%TF.GenerationSoftware,KiCad,Pcbnew,9.0.1*%
%TF.CreationDate,2025-05-02T15:54:27+01:00*%
%TF.ProjectId,main_board,6d61696e-5f62-46f6-9172-642e6b696361,rev?*%
%TF.SameCoordinates,Original*%
%TF.FileFunction,Copper,L2,Bot*%
%TF.FilePolarity,Positive*%
%FSLAX46Y46*%
G04 Gerber Fmt 4.6, Leading zero omitted, Abs format (unit mm)*
G04 Created by KiCad (PCBNEW 9.0.1) date 2025-05-02 15:54:27*
%MOMM*%
%LPD*%
G01*
G04 APERTURE LIST*
G04 Aperture macros list*
%AMRoundRect*
0 Rectangle with rounded corners*
0 $1 Rounding radius*
0 $2 $3 $4 $5 $6 $7 $8 $9 X,Y pos of 4 corners*
0 Add a 4 corners polygon primitive as box body*
4,1,4,$2,$3,$4,$5,$6,$7,$8,$9,$2,$3,0*
0 Add four circle primitives for the rounded corners*
1,1,$1+$1,$2,$3*
1,1,$1+$1,$4,$5*
1,1,$1+$1,$6,$7*
1,1,$1+$1,$8,$9*
0 Add four rect primitives between the rounded corners*
20,1,$1+$1,$2,$3,$4,$5,0*
20,1,$1+$1,$4,$5,$6,$7,0*
20,1,$1+$1,$6,$7,$8,$9,0*
20,1,$1+$1,$8,$9,$2,$3,0*%
G04 Aperture macros list end*
%TA.AperFunction,ComponentPad*%
%ADD10R,3.500000X3.500000*%
%TD*%
%TA.AperFunction,ComponentPad*%
%ADD11RoundRect,0.750000X1.000000X-0.750000X1.000000X0.750000X-1.000000X0.750000X-1.000000X-0.750000X0*%
%TD*%
%TA.AperFunction,ComponentPad*%
%ADD12RoundRect,0.875000X0.875000X-0.875000X0.875000X0.875000X-0.875000X0.875000X-0.875000X-0.875000X0*%
%TD*%
%TA.AperFunction,ComponentPad*%
%ADD13C,1.500000*%
%TD*%
%TA.AperFunction,ComponentPad*%
%ADD14RoundRect,0.250000X-0.625000X0.350000X-0.625000X-0.350000X0.625000X-0.350000X0.625000X0.350000X0*%
%TD*%
%TA.AperFunction,ComponentPad*%
%ADD15O,1.750000X1.200000*%
%TD*%
%TA.AperFunction,ComponentPad*%
%ADD16C,1.700000*%
%TD*%
%TA.AperFunction,ComponentPad*%
%ADD17R,1.700000X1.700000*%
%TD*%
%TA.AperFunction,ComponentPad*%
%ADD18RoundRect,0.250000X-1.050000X-1.050000X1.050000X-1.050000X1.050000X1.050000X-1.050000X1.050000X0*%
%TD*%
%TA.AperFunction,ComponentPad*%
%ADD19C,2.600000*%
%TD*%
%TA.AperFunction,ComponentPad*%
%ADD20RoundRect,0.250000X1.050000X1.050000X-1.050000X1.050000X-1.050000X-1.050000X1.050000X-1.050000X0*%
%TD*%
%TA.AperFunction,ComponentPad*%
%ADD21C,2.500000*%
%TD*%
%TA.AperFunction,ComponentPad*%
%ADD22RoundRect,0.250000X-1.000000X-1.000000X1.000000X-1.000000X1.000000X1.000000X-1.000000X1.000000X0*%
%TD*%
%TA.AperFunction,ComponentPad*%
%ADD23C,1.600000*%
%TD*%
%TA.AperFunction,ComponentPad*%
%ADD24O,1.600000X1.600000*%
%TD*%
%TA.AperFunction,ComponentPad*%
%ADD25C,3.500000*%
%TD*%
%TA.AperFunction,ComponentPad*%
%ADD26O,1.905000X2.000000*%
%TD*%
%TA.AperFunction,ComponentPad*%
%ADD27R,1.905000X2.000000*%
%TD*%
%TA.AperFunction,ComponentPad*%
%ADD28R,2.000000X1.905000*%
%TD*%
%TA.AperFunction,ComponentPad*%
%ADD29O,2.000000X1.905000*%
%TD*%
%TA.AperFunction,ComponentPad*%
%ADD30R,2.200000X2.200000*%
%TD*%
%TA.AperFunction,ComponentPad*%
%ADD31O,2.200000X2.200000*%
%TD*%
%TA.AperFunction,ViaPad*%
%ADD32C,0.600000*%
%TD*%
%TA.AperFunction,ViaPad*%
%ADD33C,0.700000*%
%TD*%
%TA.AperFunction,Conductor*%
%ADD34C,3.000000*%
%TD*%
%TA.AperFunction,Conductor*%
%ADD35C,1.000000*%
%TD*%
%TA.AperFunction,Conductor*%
%ADD36C,0.200000*%
%TD*%
G04 APERTURE END LIST*
D10*
%TO.P,REF\u002A\u002A,1*%
%TO.N,Big+*%
X77000000Y-137500000D03*
D11*
%TO.P,REF\u002A\u002A,2*%
%TO.N,BigGND*%
X77000000Y-143500000D03*
D12*
%TO.P,REF\u002A\u002A,3*%
%TO.N,N/C*%
X81700000Y-140500000D03*
%TD*%
D13*
%TO.P,REF\u002A\u002A,IN*%
%TO.N,N/C*%
X100000000Y-46500000D03*
%TD*%
%TO.P,REF\u002A\u002A,5V*%
%TO.N,5v+*%
X100000000Y-44000000D03*
%TD*%
D14*
%TO.P,REF\u002A\u002A,1*%
%TO.N,gnd*%
X58500000Y-91500000D03*
D15*
%TO.P,REF\u002A\u002A,2*%
%TO.N,N/C*%
X58500000Y-93500000D03*
%TO.P,REF\u002A\u002A,3*%
X58500000Y-95500000D03*
%TO.P,REF\u002A\u002A,4*%
X58500000Y-97500000D03*
%TD*%
D10*
%TO.P,REF\u002A\u002A,1*%
%TO.N,12v+*%
X135000000Y-137500000D03*
D11*
%TO.P,REF\u002A\u002A,2*%
%TO.N,gnd*%
X135000000Y-143500000D03*
D12*
%TO.P,REF\u002A\u002A,3*%
%TO.N,N/C*%
X139700000Y-140500000D03*
%TD*%
D16*
%TO.P,REF\u002A\u002A,2*%
%TO.N,N/C*%
X123000000Y-65040000D03*
%TO.P,REF\u002A\u002A,3*%
X123000000Y-67580000D03*
%TO.P,REF\u002A\u002A,4*%
X123000000Y-70120000D03*
%TO.P,REF\u002A\u002A,5*%
X123000000Y-72660000D03*
%TO.P,REF\u002A\u002A,6*%
X123000000Y-75200000D03*
%TO.P,REF\u002A\u002A,7*%
X123000000Y-77740000D03*
%TO.P,REF\u002A\u002A,8*%
X123000000Y-80280000D03*
%TO.P,REF\u002A\u002A,9*%
X123000000Y-82820000D03*
%TO.P,REF\u002A\u002A,10*%
X123000000Y-85360000D03*
%TO.P,REF\u002A\u002A,11*%
X123000000Y-87900000D03*
D17*
%TO.P,REF\u002A\u002A,CLK*%
X123000000Y-62500000D03*
D16*
%TO.P,REF\u002A\u002A,G19*%
X123000000Y-90440000D03*
%TO.P,REF\u002A\u002A,G21*%
X123000000Y-95520000D03*
%TO.P,REF\u002A\u002A,G22*%
X123000000Y-103140000D03*
%TO.P,REF\u002A\u002A,G23*%
X123000000Y-105680000D03*
%TO.P,REF\u002A\u002A,GND*%
%TO.N,gnd*%
X123000000Y-92980000D03*
X123000000Y-108220000D03*
%TO.P,REF\u002A\u002A,RXD*%
%TO.N,N/C*%
X123000000Y-98060000D03*
%TO.P,REF\u002A\u002A,TXD*%
X123000000Y-100600000D03*
%TD*%
D10*
%TO.P,REF\u002A\u002A,1*%
%TO.N,5v+*%
X171000000Y-137500000D03*
D11*
%TO.P,REF\u002A\u002A,2*%
%TO.N,gnd*%
X171000000Y-143500000D03*
D12*
%TO.P,REF\u002A\u002A,3*%
%TO.N,N/C*%
X175700000Y-140500000D03*
%TD*%
D16*
%TO.P,REF\u002A\u002A,3V3*%
%TO.N,N/C*%
X148500000Y-108220000D03*
%TO.P,REF\u002A\u002A,13*%
X148500000Y-92980000D03*
%TO.P,REF\u002A\u002A,14*%
X148500000Y-95520000D03*
%TO.P,REF\u002A\u002A,16*%
X148500000Y-100600000D03*
%TO.P,REF\u002A\u002A,17*%
X148500000Y-103140000D03*
%TO.P,REF\u002A\u002A,18*%
X148500000Y-105680000D03*
%TO.P,REF\u002A\u002A,CMD*%
X148500000Y-65040000D03*
%TO.P,REF\u002A\u002A,G12*%
X148500000Y-77740000D03*
%TO.P,REF\u002A\u002A,G13*%
%TO.N,humidiferPinOut*%
X148500000Y-72660000D03*
%TO.P,REF\u002A\u002A,G14*%
%TO.N,N/C*%
X148500000Y-80280000D03*
%TO.P,REF\u002A\u002A,G25*%
X148500000Y-87900000D03*
%TO.P,REF\u002A\u002A,G26*%
%TO.N,HeaterPin*%
X148500000Y-85360000D03*
%TO.P,REF\u002A\u002A,G27*%
%TO.N,N/C*%
X148500000Y-82820000D03*
%TO.P,REF\u002A\u002A,G33*%
%TO.N,pumpOutPin*%
X148500000Y-90440000D03*
%TO.P,REF\u002A\u002A,G34*%
%TO.N,wtrsnrIN*%
X148500000Y-98060000D03*
%TO.P,REF\u002A\u002A,GND*%
%TO.N,gnd*%
X148500000Y-75200000D03*
%TO.P,REF\u002A\u002A,SD2*%
%TO.N,N/C*%
X148500000Y-70120000D03*
%TO.P,REF\u002A\u002A,SD3*%
X148500000Y-67580000D03*
D17*
%TO.P,REF\u002A\u002A,V5*%
%TO.N,5v+*%
X148500000Y-62500000D03*
%TD*%
D18*
%TO.P,REF\u002A\u002A,1*%
%TO.N,gnd*%
X151500000Y-146500000D03*
D19*
%TO.P,REF\u002A\u002A,2*%
%TO.N,wtrsnrIN*%
X156580000Y-146500000D03*
%TD*%
D16*
%TO.P,REF\u002A\u002A,2*%
%TO.N,N/C*%
X87540000Y-57500000D03*
D17*
%TO.P,REF\u002A\u002A,GND*%
%TO.N,gnd*%
X85000000Y-57500000D03*
D16*
%TO.P,REF\u002A\u002A,IN1*%
%TO.N,N/C*%
X90080000Y-57500000D03*
%TD*%
D20*
%TO.P,REF\u002A\u002A,1*%
%TO.N,12v+*%
X120545000Y-44000000D03*
D19*
%TO.P,REF\u002A\u002A,2*%
%TO.N,gnd*%
X115465000Y-44000000D03*
%TD*%
D10*
%TO.P,REF\u002A\u002A,1*%
%TO.N,N/C*%
X60000000Y-137500000D03*
D11*
%TO.P,REF\u002A\u002A,2*%
X60000000Y-143500000D03*
D12*
%TO.P,REF\u002A\u002A,3*%
X64700000Y-140500000D03*
%TD*%
D21*
%TO.P,REF\u002A\u002A,11*%
%TO.N,Big+*%
X105000000Y-123000000D03*
%TO.P,REF\u002A\u002A,12*%
%TO.N,N/C*%
X119200000Y-117000000D03*
%TO.P,REF\u002A\u002A,14*%
X119200000Y-129000000D03*
D22*
%TO.P,REF\u002A\u002A,A1*%
X107000000Y-117000000D03*
D21*
%TO.P,REF\u002A\u002A,A2*%
%TO.N,gnd*%
X107000000Y-129000000D03*
%TD*%
D17*
%TO.P,REF\u002A\u002A,1*%
%TO.N,N/C*%
X119000000Y-62500000D03*
D16*
%TO.P,REF\u002A\u002A,2*%
X119000000Y-65040000D03*
%TO.P,REF\u002A\u002A,3*%
X119000000Y-67580000D03*
%TO.P,REF\u002A\u002A,4*%
X119000000Y-70120000D03*
%TO.P,REF\u002A\u002A,5*%
X119000000Y-72660000D03*
%TO.P,REF\u002A\u002A,6*%
X119000000Y-75200000D03*
%TO.P,REF\u002A\u002A,7*%
X119000000Y-77740000D03*
%TO.P,REF\u002A\u002A,8*%
X119000000Y-80280000D03*
%TO.P,REF\u002A\u002A,9*%
X119000000Y-82820000D03*
%TO.P,REF\u002A\u002A,10*%
X119000000Y-85360000D03*
%TO.P,REF\u002A\u002A,11*%
X119000000Y-87900000D03*
%TO.P,REF\u002A\u002A,12*%
X119000000Y-90440000D03*
%TO.P,REF\u002A\u002A,13*%
%TO.N,gnd*%
X119000000Y-92980000D03*
%TO.P,REF\u002A\u002A,14*%
%TO.N,N/C*%
X119000000Y-95520000D03*
%TO.P,REF\u002A\u002A,15*%
X119000000Y-98060000D03*
%TO.P,REF\u002A\u002A,16*%
X119000000Y-100600000D03*
%TO.P,REF\u002A\u002A,17*%
X119000000Y-103140000D03*
%TO.P,REF\u002A\u002A,18*%
X119000000Y-105680000D03*
%TO.P,REF\u002A\u002A,19*%
%TO.N,gnd*%
X119000000Y-108220000D03*
%TD*%
D23*
%TO.P,REF\u002A\u002A,1*%
%TO.N,gnd*%
X149000000Y-130500000D03*
D24*
%TO.P,REF\u002A\u002A,2*%
%TO.N,wtrsnrIN*%
X159160000Y-130500000D03*
%TD*%
D20*
%TO.P,REF\u002A\u002A,1*%
%TO.N,5v+*%
X155500000Y-44000000D03*
D19*
%TO.P,REF\u002A\u002A,2*%
%TO.N,gnd*%
X150420000Y-44000000D03*
%TD*%
D25*
%TO.P,REF\u002A\u002A,1*%
%TO.N,BigGND*%
X87000000Y-114000000D03*
%TD*%
D26*
%TO.P,REF\u002A\u002A,GND*%
%TO.N,gnd*%
X140040000Y-119000000D03*
D27*
%TO.P,REF\u002A\u002A,IN*%
%TO.N,12v+*%
X137500000Y-119000000D03*
D26*
%TO.P,REF\u002A\u002A,OUT*%
%TO.N,5v+*%
X142580000Y-119000000D03*
%TD*%
D28*
%TO.P,REF\u002A\u002A,1*%
%TO.N,HeaterPin*%
X128000000Y-118500000D03*
D29*
%TO.P,REF\u002A\u002A,2*%
%TO.N,N/C*%
X128000000Y-121040000D03*
%TO.P,REF\u002A\u002A,3*%
%TO.N,gnd*%
X128000000Y-123580000D03*
%TD*%
D25*
%TO.P,,MTR*%
%TO.N,N/C*%
X74500000Y-114000000D03*
%TD*%
D17*
%TO.P,REF\u002A\u002A,1*%
%TO.N,5v+*%
X152500000Y-62500000D03*
D16*
%TO.P,REF\u002A\u002A,2*%
%TO.N,N/C*%
X152500000Y-65040000D03*
%TO.P,REF\u002A\u002A,3*%
X152500000Y-67580000D03*
%TO.P,REF\u002A\u002A,4*%
X152500000Y-70120000D03*
%TO.P,REF\u002A\u002A,5*%
%TO.N,humidiferPinOut*%
X152500000Y-72660000D03*
%TO.P,REF\u002A\u002A,6*%
%TO.N,gnd*%
X152500000Y-75200000D03*
%TO.P,REF\u002A\u002A,7*%
%TO.N,N/C*%
X152500000Y-77740000D03*
%TO.P,REF\u002A\u002A,8*%
X152500000Y-80280000D03*
%TO.P,REF\u002A\u002A,9*%
X152500000Y-82820000D03*
%TO.P,REF\u002A\u002A,11*%
X152500000Y-87900000D03*
%TO.P,REF\u002A\u002A,12*%
%TO.N,pumpOutPin*%
X152500000Y-90440000D03*
%TO.P,REF\u002A\u002A,13*%
%TO.N,N/C*%
X152500000Y-92980000D03*
%TO.P,REF\u002A\u002A,14*%
X152500000Y-95520000D03*
%TO.P,REF\u002A\u002A,15*%
%TO.N,wtrsnrIN*%
X152500000Y-98060000D03*
%TO.P,REF\u002A\u002A,16*%
%TO.N,N/C*%
X152500000Y-100600000D03*
%TO.P,REF\u002A\u002A,17*%
X152500000Y-103140000D03*
%TO.P,REF\u002A\u002A,18*%
X152500000Y-105680000D03*
%TO.P,REF\u002A\u002A,19*%
X152500000Y-108220000D03*
%TO.P,REF\u002A\u002A,G26*%
%TO.N,HeaterPin*%
X152500000Y-85360000D03*
%TD*%
D30*
%TO.P,REF\u002A\u002A,1*%
%TO.N,N/C*%
X100500000Y-119500000D03*
D31*
%TO.P,REF\u002A\u002A,2*%
%TO.N,gnd*%
X100500000Y-127120000D03*
%TD*%
D25*
%TO.P,,MTR*%
%TO.N,N/C*%
X80000000Y-114000000D03*
%TD*%
%TO.P,REF\u002A\u002A,1*%
%TO.N,Big+*%
X92500000Y-114000000D03*
%TD*%
D10*
%TO.P,REF\u002A\u002A,1*%
%TO.N,N/C*%
X92500000Y-137500000D03*
D11*
%TO.P,REF\u002A\u002A,2*%
%TO.N,BigGND*%
X92500000Y-143500000D03*
D12*
%TO.P,REF\u002A\u002A,3*%
%TO.N,N/C*%
X97200000Y-140500000D03*
%TD*%
D13*
%TO.P,REF\u002A\u002A,GND*%
%TO.N,gnd*%
X100000000Y-49000000D03*
%TD*%
D20*
%TO.P,REF\u002A\u002A,1*%
%TO.N,12v+*%
X173545000Y-44000000D03*
D19*
%TO.P,REF\u002A\u002A,2*%
%TO.N,pumpGND*%
X168465000Y-44000000D03*
%TD*%
D32*
%TO.N,*%
X117000000Y-113500000D03*
X110500000Y-93500000D03*
X110000000Y-57500000D03*
D33*
%TO.N,12v+*%
X173000000Y-61500000D03*
X130000000Y-61000000D03*
%TO.N,gnd*%
X134220000Y-110720000D03*
X166500000Y-64000000D03*
D32*
%TO.N,HeaterPin*%
X127000000Y-101000000D03*
%TO.N,pumpOutPin*%
X171000000Y-93500000D03*
%TD*%
D34*
%TO.N,BigGND*%
X72500000Y-133500000D02*
X72500000Y-140000000D01*
X87000000Y-119000000D02*
X72500000Y-133500000D01*
X72500000Y-140000000D02*
X76000000Y-143500000D01*
X87000000Y-114000000D02*
X87000000Y-119000000D01*
X76000000Y-143500000D02*
X77000000Y-143500000D01*
D35*
%TO.N,gnd*%
X143500000Y-143500000D02*
X135000000Y-143500000D01*
X140040000Y-120460000D02*
X140040000Y-121540000D01*
X140040000Y-121540000D02*
X149000000Y-130500000D01*
D34*
%TO.N,BigGND*%
X78000000Y-144500000D02*
X91500000Y-144500000D01*
X91500000Y-144500000D02*
X92500000Y-143500000D01*
X77000000Y-143500000D02*
X78000000Y-144500000D01*
D36*
%TO.N,*%
X123880000Y-119880000D02*
X100880000Y-119880000D01*
X119240000Y-77500000D02*
X121500000Y-77500000D01*
X152500000Y-100600000D02*
X148500000Y-100600000D01*
X110500000Y-97500000D02*
X116140000Y-103140000D01*
X148500000Y-67580000D02*
X152500000Y-67580000D01*
X119300000Y-75500000D02*
X123000000Y-75500000D01*
X148500000Y-82820000D02*
X152500000Y-82820000D01*
X123000000Y-75500000D02*
X123000000Y-75200000D01*
X143240000Y-77740000D02*
X148500000Y-77740000D01*
X58500000Y-95500000D02*
X118980000Y-95500000D01*
X119000000Y-100600000D02*
X123000000Y-100600000D01*
X146000000Y-113500000D02*
X148500000Y-111000000D01*
X119000000Y-75200000D02*
X119300000Y-75500000D01*
X119000000Y-90440000D02*
X123000000Y-90440000D01*
X110500000Y-93500000D02*
X58500000Y-93500000D01*
X119000000Y-72660000D02*
X123000000Y-72660000D01*
X117000000Y-113500000D02*
X146000000Y-113500000D01*
X119000000Y-95520000D02*
X123000000Y-95520000D01*
X119000000Y-62500000D02*
X123000000Y-62500000D01*
X119000000Y-67580000D02*
X123000000Y-67580000D01*
X148500000Y-92980000D02*
X152500000Y-92980000D01*
X119000000Y-72660000D02*
X119340000Y-73000000D01*
X148500000Y-95520000D02*
X152500000Y-95520000D01*
X119000000Y-80280000D02*
X119220000Y-80500000D01*
X119820000Y-85320000D02*
X119820000Y-85180000D01*
X116140000Y-103140000D02*
X119000000Y-103140000D01*
X119000000Y-105680000D02*
X123000000Y-105680000D01*
X119000000Y-87900000D02*
X123000000Y-87900000D01*
X119000000Y-82820000D02*
X123000000Y-82820000D01*
X148500000Y-70120000D02*
X152500000Y-70120000D01*
X118980000Y-95500000D02*
X119000000Y-95520000D01*
X121500000Y-77500000D02*
X121740000Y-77740000D01*
X58500000Y-97500000D02*
X110500000Y-97500000D01*
X128000000Y-121040000D02*
X125040000Y-121040000D01*
X152500000Y-108220000D02*
X148500000Y-108220000D01*
X121740000Y-77740000D02*
X123000000Y-77740000D01*
X100880000Y-119880000D02*
X100500000Y-119500000D01*
X152500000Y-105680000D02*
X148500000Y-105680000D01*
X148500000Y-77740000D02*
X152500000Y-77740000D01*
X148500000Y-80280000D02*
X152500000Y-80280000D01*
X125040000Y-121040000D02*
X123880000Y-119880000D01*
X119000000Y-98060000D02*
X123000000Y-98060000D01*
X110000000Y-57500000D02*
X123000000Y-57500000D01*
X119000000Y-85360000D02*
X123000000Y-85360000D01*
X148500000Y-65040000D02*
X152500000Y-65040000D01*
X119000000Y-65040000D02*
X123000000Y-65040000D01*
X119220000Y-80500000D02*
X121720000Y-80500000D01*
X119000000Y-103140000D02*
X123000000Y-103140000D01*
X119000000Y-70120000D02*
X123000000Y-70120000D01*
X148500000Y-87900000D02*
X152500000Y-87900000D01*
X152500000Y-103140000D02*
X148500000Y-103140000D01*
X123000000Y-57500000D02*
X143240000Y-77740000D01*
X119000000Y-77740000D02*
X119240000Y-77500000D01*
X148500000Y-111000000D02*
X148500000Y-108220000D01*
D35*
%TO.N,12v+*%
X133500000Y-57500000D02*
X156000000Y-57500000D01*
X130000000Y-61000000D02*
X133500000Y-57500000D01*
X130000000Y-53500000D02*
X120545000Y-44045000D01*
X156000000Y-57500000D02*
X160000000Y-61500000D01*
D36*
X120545000Y-44045000D02*
X120545000Y-44000000D01*
D35*
X160000000Y-61500000D02*
X173000000Y-61500000D01*
X130000000Y-61000000D02*
X130000000Y-53500000D01*
%TO.N,gnd*%
X148420000Y-42000000D02*
X117465000Y-42000000D01*
D36*
X140040000Y-119000000D02*
X140040000Y-119047500D01*
D35*
X137000000Y-123500000D02*
X128080000Y-123500000D01*
X155300000Y-75200000D02*
X152500000Y-75200000D01*
X100000000Y-49000000D02*
X107500000Y-49000000D01*
X140040000Y-119047500D02*
X140040000Y-120460000D01*
D36*
X101000000Y-127000000D02*
X100880000Y-127120000D01*
D35*
X125580000Y-126500000D02*
X101500000Y-126500000D01*
X148500000Y-75200000D02*
X152500000Y-75200000D01*
X166500000Y-64000000D02*
X155300000Y-75200000D01*
X112500000Y-44000000D02*
X115465000Y-44000000D01*
X115500000Y-91500000D02*
X116980000Y-92980000D01*
X152500000Y-146500000D02*
X151500000Y-146500000D01*
D36*
X100880000Y-127120000D02*
X100500000Y-127120000D01*
X128080000Y-123500000D02*
X128000000Y-123580000D01*
D35*
X134220000Y-110720000D02*
X131720000Y-108220000D01*
X140040000Y-120460000D02*
X137000000Y-123500000D01*
D36*
X150500000Y-44000000D02*
X150420000Y-44000000D01*
D35*
X128000000Y-124080000D02*
X125580000Y-126500000D01*
X107500000Y-49000000D02*
X112500000Y-44000000D01*
X123000000Y-108220000D02*
X119000000Y-108220000D01*
X119000000Y-92980000D02*
X123000000Y-92980000D01*
X150420000Y-44000000D02*
X148420000Y-42000000D01*
X101500000Y-126500000D02*
X101000000Y-127000000D01*
X58500000Y-91500000D02*
X115500000Y-91500000D01*
D36*
X128000000Y-123580000D02*
X128000000Y-124080000D01*
D35*
X117465000Y-42000000D02*
X115465000Y-44000000D01*
X116980000Y-92980000D02*
X119000000Y-92980000D01*
X131720000Y-108220000D02*
X123000000Y-108220000D01*
%TO.N,5v+*%
X148500000Y-62500000D02*
X152500000Y-62500000D01*
D36*
%TO.N,wtrsnrIN*%
X159160000Y-130500000D02*
X159000000Y-130340000D01*
X148500000Y-98060000D02*
X152500000Y-98060000D01*
X156580000Y-133920000D02*
X159160000Y-131340000D01*
X159000000Y-130340000D02*
X159000000Y-102500000D01*
X159160000Y-131340000D02*
X159160000Y-130500000D01*
X159000000Y-102500000D02*
X154560000Y-98060000D01*
X156580000Y-146500000D02*
X156580000Y-133920000D01*
X154560000Y-98060000D02*
X152500000Y-98060000D01*
%TO.N,HeaterPin*%
X127000000Y-101000000D02*
X142640000Y-85360000D01*
X148500000Y-85360000D02*
X152500000Y-85360000D01*
X142640000Y-85360000D02*
X148500000Y-85360000D01*
%TO.N,pumpOutPin*%
X158500000Y-93500000D02*
X155440000Y-90440000D01*
X152500000Y-90440000D02*
X148500000Y-90440000D01*
X171000000Y-93500000D02*
X158500000Y-93500000D01*
X155440000Y-90440000D02*
X152500000Y-90440000D01*
%TO.N,humidiferPinOut*%
X148500000Y-72660000D02*
X152500000Y-72660000D01*
D35*
%TO.N,gnd*%
X146500000Y-146500000D02*
X143500000Y-143500000D01*
X151500000Y-146500000D02*
X146500000Y-146500000D01*
X140040000Y-121540000D02*
X144000000Y-125500000D01*
X144000000Y-125500000D02*
X144000000Y-143000000D01*
X144000000Y-143000000D02*
X143500000Y-143500000D01*
%TD*%
M02*
