%TF.GenerationSoftware,KiCad,Pcbnew,9.0.1*%
%TF.CreationDate,2025-05-02T15:54:27+01:00*%
%TF.ProjectId,main_board,6d61696e-5f62-46f6-9172-642e6b696361,rev?*%
%TF.SameCoordinates,Original*%
%TF.FileFunction,Copper,L1,Top*%
%TF.FilePolarity,Positive*%
%FSLAX46Y46*%
G04 Gerber Fmt 4.6, Leading zero omitted, Abs format (unit mm)*
G04 Created by KiCad (PCBNEW 9.0.1) date 2025-05-02 15:54:27*
%MOMM*%
%LPD*%
G01*
G04 APERTURE LIST*
G04 Aperture macros list*
%AMRoundRect*
0 Rectangle with rounded corners*
0 $1 Rounding radius*
0 $2 $3 $4 $5 $6 $7 $8 $9 X,Y pos of 4 corners*
0 Add a 4 corners polygon primitive as box body*
4,1,4,$2,$3,$4,$5,$6,$7,$8,$9,$2,$3,0*
0 Add four circle primitives for the rounded corners*
1,1,$1+$1,$2,$3*
1,1,$1+$1,$4,$5*
1,1,$1+$1,$6,$7*
1,1,$1+$1,$8,$9*
0 Add four rect primitives between the rounded corners*
20,1,$1+$1,$2,$3,$4,$5,0*
20,1,$1+$1,$4,$5,$6,$7,0*
20,1,$1+$1,$6,$7,$8,$9,0*
20,1,$1+$1,$8,$9,$2,$3,0*%
G04 Aperture macros list end*
%TA.AperFunction,ComponentPad*%
%ADD10R,3.500000X3.500000*%
%TD*%
%TA.AperFunction,ComponentPad*%
%ADD11RoundRect,0.750000X1.000000X-0.750000X1.000000X0.750000X-1.000000X0.750000X-1.000000X-0.750000X0*%
%TD*%
%TA.AperFunction,ComponentPad*%
%ADD12RoundRect,0.875000X0.875000X-0.875000X0.875000X0.875000X-0.875000X0.875000X-0.875000X-0.875000X0*%
%TD*%
%TA.AperFunction,ComponentPad*%
%ADD13C,1.500000*%
%TD*%
%TA.AperFunction,SMDPad,CuDef*%
%ADD14O,2.600000X5.700000*%
%TD*%
%TA.AperFunction,ComponentPad*%
%ADD15RoundRect,0.250000X-0.625000X0.350000X-0.625000X-0.350000X0.625000X-0.350000X0.625000X0.350000X0*%
%TD*%
%TA.AperFunction,ComponentPad*%
%ADD16O,1.750000X1.200000*%
%TD*%
%TA.AperFunction,ComponentPad*%
%ADD17C,1.700000*%
%TD*%
%TA.AperFunction,ComponentPad*%
%ADD18R,1.700000X1.700000*%
%TD*%
%TA.AperFunction,ComponentPad*%
%ADD19RoundRect,0.250000X-1.050000X-1.050000X1.050000X-1.050000X1.050000X1.050000X-1.050000X1.050000X0*%
%TD*%
%TA.AperFunction,ComponentPad*%
%ADD20C,2.600000*%
%TD*%
%TA.AperFunction,ComponentPad*%
%ADD21RoundRect,0.250000X1.050000X1.050000X-1.050000X1.050000X-1.050000X-1.050000X1.050000X-1.050000X0*%
%TD*%
%TA.AperFunction,ComponentPad*%
%ADD22C,2.500000*%
%TD*%
%TA.AperFunction,ComponentPad*%
%ADD23RoundRect,0.250000X-1.000000X-1.000000X1.000000X-1.000000X1.000000X1.000000X-1.000000X1.000000X0*%
%TD*%
%TA.AperFunction,ComponentPad*%
%ADD24C,1.600000*%
%TD*%
%TA.AperFunction,ComponentPad*%
%ADD25O,1.600000X1.600000*%
%TD*%
%TA.AperFunction,ComponentPad*%
%ADD26C,3.500000*%
%TD*%
%TA.AperFunction,ComponentPad*%
%ADD27O,1.905000X2.000000*%
%TD*%
%TA.AperFunction,ComponentPad*%
%ADD28R,1.905000X2.000000*%
%TD*%
%TA.AperFunction,ComponentPad*%
%ADD29R,2.000000X1.905000*%
%TD*%
%TA.AperFunction,ComponentPad*%
%ADD30O,2.000000X1.905000*%
%TD*%
%TA.AperFunction,ComponentPad*%
%ADD31R,2.200000X2.200000*%
%TD*%
%TA.AperFunction,ComponentPad*%
%ADD32O,2.200000X2.200000*%
%TD*%
%TA.AperFunction,ViaPad*%
%ADD33C,0.600000*%
%TD*%
%TA.AperFunction,ViaPad*%
%ADD34C,0.700000*%
%TD*%
%TA.AperFunction,Conductor*%
%ADD35C,1.000000*%
%TD*%
%TA.AperFunction,Conductor*%
%ADD36C,3.000000*%
%TD*%
%TA.AperFunction,Conductor*%
%ADD37C,0.200000*%
%TD*%
G04 APERTURE END LIST*
D10*
%TO.P,REF\u002A\u002A,1*%
%TO.N,Big+*%
X77000000Y-137500000D03*
D11*
%TO.P,REF\u002A\u002A,2*%
%TO.N,BigGND*%
X77000000Y-143500000D03*
D12*
%TO.P,REF\u002A\u002A,3*%
%TO.N,N/C*%
X81700000Y-140500000D03*
%TD*%
D13*
%TO.P,REF\u002A\u002A,IN*%
%TO.N,N/C*%
X100000000Y-46500000D03*
%TD*%
D14*
%TO.P,REF\u002A\u002A,+*%
%TO.N,5v+*%
X176000000Y-97500000D03*
%TO.P,REF\u002A\u002A,GND*%
%TO.N,gnd*%
X168500000Y-130500000D03*
%TO.P,REF\u002A\u002A,Load GND*%
%TO.N,humidiferGND*%
X171150000Y-97500000D03*
%TO.P,REF\u002A\u002A,PWM*%
%TO.N,humidiferPinOut*%
X173500000Y-130500000D03*
%TO.P,REF\u002A\u002A,PWR GND*%
%TO.N,gnd*%
X166500000Y-97500000D03*
%TD*%
D13*
%TO.P,REF\u002A\u002A,5V*%
%TO.N,5v+*%
X100000000Y-44000000D03*
%TD*%
D15*
%TO.P,REF\u002A\u002A,1*%
%TO.N,gnd*%
X58500000Y-91500000D03*
D16*
%TO.P,REF\u002A\u002A,2*%
%TO.N,N/C*%
X58500000Y-93500000D03*
%TO.P,REF\u002A\u002A,3*%
X58500000Y-95500000D03*
%TO.P,REF\u002A\u002A,4*%
X58500000Y-97500000D03*
%TD*%
D10*
%TO.P,REF\u002A\u002A,1*%
%TO.N,12v+*%
X135000000Y-137500000D03*
D11*
%TO.P,REF\u002A\u002A,2*%
%TO.N,gnd*%
X135000000Y-143500000D03*
D12*
%TO.P,REF\u002A\u002A,3*%
%TO.N,N/C*%
X139700000Y-140500000D03*
%TD*%
D17*
%TO.P,REF\u002A\u002A,2*%
%TO.N,N/C*%
X123000000Y-65040000D03*
%TO.P,REF\u002A\u002A,3*%
X123000000Y-67580000D03*
%TO.P,REF\u002A\u002A,4*%
X123000000Y-70120000D03*
%TO.P,REF\u002A\u002A,5*%
X123000000Y-72660000D03*
%TO.P,REF\u002A\u002A,6*%
X123000000Y-75200000D03*
%TO.P,REF\u002A\u002A,7*%
X123000000Y-77740000D03*
%TO.P,REF\u002A\u002A,8*%
X123000000Y-80280000D03*
%TO.P,REF\u002A\u002A,9*%
X123000000Y-82820000D03*
%TO.P,REF\u002A\u002A,10*%
X123000000Y-85360000D03*
%TO.P,REF\u002A\u002A,11*%
X123000000Y-87900000D03*
D18*
%TO.P,REF\u002A\u002A,CLK*%
X123000000Y-62500000D03*
D17*
%TO.P,REF\u002A\u002A,G19*%
X123000000Y-90440000D03*
%TO.P,REF\u002A\u002A,G21*%
X123000000Y-95520000D03*
%TO.P,REF\u002A\u002A,G22*%
X123000000Y-103140000D03*
%TO.P,REF\u002A\u002A,G23*%
X123000000Y-105680000D03*
%TO.P,REF\u002A\u002A,GND*%
%TO.N,gnd*%
X123000000Y-92980000D03*
X123000000Y-108220000D03*
%TO.P,REF\u002A\u002A,RXD*%
%TO.N,N/C*%
X123000000Y-98060000D03*
%TO.P,REF\u002A\u002A,TXD*%
X123000000Y-100600000D03*
%TD*%
D10*
%TO.P,REF\u002A\u002A,1*%
%TO.N,5v+*%
X171000000Y-137500000D03*
D11*
%TO.P,REF\u002A\u002A,2*%
%TO.N,gnd*%
X171000000Y-143500000D03*
D12*
%TO.P,REF\u002A\u002A,3*%
%TO.N,N/C*%
X175700000Y-140500000D03*
%TD*%
D17*
%TO.P,REF\u002A\u002A,3V3*%
%TO.N,N/C*%
X148500000Y-108220000D03*
%TO.P,REF\u002A\u002A,13*%
X148500000Y-92980000D03*
%TO.P,REF\u002A\u002A,14*%
X148500000Y-95520000D03*
%TO.P,REF\u002A\u002A,16*%
X148500000Y-100600000D03*
%TO.P,REF\u002A\u002A,17*%
X148500000Y-103140000D03*
%TO.P,REF\u002A\u002A,18*%
X148500000Y-105680000D03*
%TO.P,REF\u002A\u002A,CMD*%
X148500000Y-65040000D03*
%TO.P,REF\u002A\u002A,G12*%
X148500000Y-77740000D03*
%TO.P,REF\u002A\u002A,G13*%
%TO.N,humidiferPinOut*%
X148500000Y-72660000D03*
%TO.P,REF\u002A\u002A,G14*%
%TO.N,N/C*%
X148500000Y-80280000D03*
%TO.P,REF\u002A\u002A,G25*%
X148500000Y-87900000D03*
%TO.P,REF\u002A\u002A,G26*%
%TO.N,HeaterPin*%
X148500000Y-85360000D03*
%TO.P,REF\u002A\u002A,G27*%
%TO.N,N/C*%
X148500000Y-82820000D03*
%TO.P,REF\u002A\u002A,G33*%
%TO.N,pumpOutPin*%
X148500000Y-90440000D03*
%TO.P,REF\u002A\u002A,G34*%
%TO.N,wtrsnrIN*%
X148500000Y-98060000D03*
%TO.P,REF\u002A\u002A,GND*%
%TO.N,gnd*%
X148500000Y-75200000D03*
%TO.P,REF\u002A\u002A,SD2*%
%TO.N,N/C*%
X148500000Y-70120000D03*
%TO.P,REF\u002A\u002A,SD3*%
X148500000Y-67580000D03*
D18*
%TO.P,REF\u002A\u002A,V5*%
%TO.N,5v+*%
X148500000Y-62500000D03*
%TD*%
D19*
%TO.P,REF\u002A\u002A,1*%
%TO.N,gnd*%
X151500000Y-146500000D03*
D20*
%TO.P,REF\u002A\u002A,2*%
%TO.N,wtrsnrIN*%
X156580000Y-146500000D03*
%TD*%
D17*
%TO.P,REF\u002A\u002A,2*%
%TO.N,N/C*%
X87540000Y-57500000D03*
D18*
%TO.P,REF\u002A\u002A,GND*%
%TO.N,gnd*%
X85000000Y-57500000D03*
D17*
%TO.P,REF\u002A\u002A,IN1*%
%TO.N,N/C*%
X90080000Y-57500000D03*
%TD*%
D21*
%TO.P,REF\u002A\u002A,1*%
%TO.N,12v+*%
X120545000Y-44000000D03*
D20*
%TO.P,REF\u002A\u002A,2*%
%TO.N,gnd*%
X115465000Y-44000000D03*
%TD*%
D10*
%TO.P,REF\u002A\u002A,1*%
%TO.N,N/C*%
X60000000Y-137500000D03*
D11*
%TO.P,REF\u002A\u002A,2*%
X60000000Y-143500000D03*
D12*
%TO.P,REF\u002A\u002A,3*%
X64700000Y-140500000D03*
%TD*%
D22*
%TO.P,REF\u002A\u002A,11*%
%TO.N,Big+*%
X105000000Y-123000000D03*
%TO.P,REF\u002A\u002A,12*%
%TO.N,N/C*%
X119200000Y-117000000D03*
%TO.P,REF\u002A\u002A,14*%
X119200000Y-129000000D03*
D23*
%TO.P,REF\u002A\u002A,A1*%
X107000000Y-117000000D03*
D22*
%TO.P,REF\u002A\u002A,A2*%
%TO.N,gnd*%
X107000000Y-129000000D03*
%TD*%
D18*
%TO.P,REF\u002A\u002A,1*%
%TO.N,N/C*%
X119000000Y-62500000D03*
D17*
%TO.P,REF\u002A\u002A,2*%
X119000000Y-65040000D03*
%TO.P,REF\u002A\u002A,3*%
X119000000Y-67580000D03*
%TO.P,REF\u002A\u002A,4*%
X119000000Y-70120000D03*
%TO.P,REF\u002A\u002A,5*%
X119000000Y-72660000D03*
%TO.P,REF\u002A\u002A,6*%
X119000000Y-75200000D03*
%TO.P,REF\u002A\u002A,7*%
X119000000Y-77740000D03*
%TO.P,REF\u002A\u002A,8*%
X119000000Y-80280000D03*
%TO.P,REF\u002A\u002A,9*%
X119000000Y-82820000D03*
%TO.P,REF\u002A\u002A,10*%
X119000000Y-85360000D03*
%TO.P,REF\u002A\u002A,11*%
X119000000Y-87900000D03*
%TO.P,REF\u002A\u002A,12*%
X119000000Y-90440000D03*
%TO.P,REF\u002A\u002A,13*%
%TO.N,gnd*%
X119000000Y-92980000D03*
%TO.P,REF\u002A\u002A,14*%
%TO.N,N/C*%
X119000000Y-95520000D03*
%TO.P,REF\u002A\u002A,15*%
X119000000Y-98060000D03*
%TO.P,REF\u002A\u002A,16*%
X119000000Y-100600000D03*
%TO.P,REF\u002A\u002A,17*%
X119000000Y-103140000D03*
%TO.P,REF\u002A\u002A,18*%
X119000000Y-105680000D03*
%TO.P,REF\u002A\u002A,19*%
%TO.N,gnd*%
X119000000Y-108220000D03*
%TD*%
D24*
%TO.P,REF\u002A\u002A,1*%
%TO.N,gnd*%
X149000000Y-130500000D03*
D25*
%TO.P,REF\u002A\u002A,2*%
%TO.N,wtrsnrIN*%
X159160000Y-130500000D03*
%TD*%
D21*
%TO.P,REF\u002A\u002A,1*%
%TO.N,5v+*%
X155500000Y-44000000D03*
D20*
%TO.P,REF\u002A\u002A,2*%
%TO.N,gnd*%
X150420000Y-44000000D03*
%TD*%
D26*
%TO.P,REF\u002A\u002A,1*%
%TO.N,BigGND*%
X87000000Y-114000000D03*
%TD*%
D27*
%TO.P,REF\u002A\u002A,GND*%
%TO.N,gnd*%
X140040000Y-119000000D03*
D28*
%TO.P,REF\u002A\u002A,IN*%
%TO.N,12v+*%
X137500000Y-119000000D03*
D27*
%TO.P,REF\u002A\u002A,OUT*%
%TO.N,5v+*%
X142580000Y-119000000D03*
%TD*%
D29*
%TO.P,REF\u002A\u002A,1*%
%TO.N,HeaterPin*%
X128000000Y-118500000D03*
D30*
%TO.P,REF\u002A\u002A,2*%
%TO.N,N/C*%
X128000000Y-121040000D03*
%TO.P,REF\u002A\u002A,3*%
%TO.N,gnd*%
X128000000Y-123580000D03*
%TD*%
D26*
%TO.P,,MTR*%
%TO.N,N/C*%
X74500000Y-114000000D03*
%TD*%
D18*
%TO.P,REF\u002A\u002A,1*%
%TO.N,5v+*%
X152500000Y-62500000D03*
D17*
%TO.P,REF\u002A\u002A,2*%
%TO.N,N/C*%
X152500000Y-65040000D03*
%TO.P,REF\u002A\u002A,3*%
X152500000Y-67580000D03*
%TO.P,REF\u002A\u002A,4*%
X152500000Y-70120000D03*
%TO.P,REF\u002A\u002A,5*%
%TO.N,humidiferPinOut*%
X152500000Y-72660000D03*
%TO.P,REF\u002A\u002A,6*%
%TO.N,gnd*%
X152500000Y-75200000D03*
%TO.P,REF\u002A\u002A,7*%
%TO.N,N/C*%
X152500000Y-77740000D03*
%TO.P,REF\u002A\u002A,8*%
X152500000Y-80280000D03*
%TO.P,REF\u002A\u002A,9*%
X152500000Y-82820000D03*
%TO.P,REF\u002A\u002A,11*%
X152500000Y-87900000D03*
%TO.P,REF\u002A\u002A,12*%
%TO.N,pumpOutPin*%
X152500000Y-90440000D03*
%TO.P,REF\u002A\u002A,13*%
%TO.N,N/C*%
X152500000Y-92980000D03*
%TO.P,REF\u002A\u002A,14*%
X152500000Y-95520000D03*
%TO.P,REF\u002A\u002A,15*%
%TO.N,wtrsnrIN*%
X152500000Y-98060000D03*
%TO.P,REF\u002A\u002A,16*%
%TO.N,N/C*%
X152500000Y-100600000D03*
%TO.P,REF\u002A\u002A,17*%
X152500000Y-103140000D03*
%TO.P,REF\u002A\u002A,18*%
X152500000Y-105680000D03*
%TO.P,REF\u002A\u002A,19*%
X152500000Y-108220000D03*
%TO.P,REF\u002A\u002A,G26*%
%TO.N,HeaterPin*%
X152500000Y-85360000D03*
%TD*%
D31*
%TO.P,REF\u002A\u002A,1*%
%TO.N,N/C*%
X100500000Y-119500000D03*
D32*
%TO.P,REF\u002A\u002A,2*%
%TO.N,gnd*%
X100500000Y-127120000D03*
%TD*%
D26*
%TO.P,,MTR*%
%TO.N,N/C*%
X80000000Y-114000000D03*
%TD*%
%TO.P,REF\u002A\u002A,1*%
%TO.N,Big+*%
X92500000Y-114000000D03*
%TD*%
D14*
%TO.P,REF\u002A\u002A,+*%
%TO.N,12v+*%
X176000000Y-56000000D03*
%TO.P,REF\u002A\u002A,GND*%
%TO.N,gnd*%
X168500000Y-89000000D03*
%TO.P,REF\u002A\u002A,PWM*%
%TO.N,pumpOutPin*%
X173500000Y-89000000D03*
%TO.P,REF\u002A\u002A,PWR GND*%
%TO.N,gnd*%
X166500000Y-56000000D03*
%TO.P,REF\u002A\u002A,pump GND*%
%TO.N,pumpGND*%
X171150000Y-56000000D03*
%TD*%
D10*
%TO.P,REF\u002A\u002A,1*%
%TO.N,N/C*%
X92500000Y-137500000D03*
D11*
%TO.P,REF\u002A\u002A,2*%
%TO.N,BigGND*%
X92500000Y-143500000D03*
D12*
%TO.P,REF\u002A\u002A,3*%
%TO.N,N/C*%
X97200000Y-140500000D03*
%TD*%
D13*
%TO.P,REF\u002A\u002A,GND*%
%TO.N,gnd*%
X100000000Y-49000000D03*
%TD*%
D21*
%TO.P,REF\u002A\u002A,1*%
%TO.N,12v+*%
X173545000Y-44000000D03*
D20*
%TO.P,REF\u002A\u002A,2*%
%TO.N,pumpGND*%
X168465000Y-44000000D03*
%TD*%
D33*
%TO.N,*%
X117000000Y-113500000D03*
X110500000Y-93500000D03*
X110000000Y-57500000D03*
D34*
%TO.N,12v+*%
X173000000Y-61500000D03*
X130000000Y-61000000D03*
%TO.N,gnd*%
X134220000Y-110720000D03*
X166500000Y-64000000D03*
D33*
%TO.N,HeaterPin*%
X127000000Y-101000000D03*
%TO.N,pumpOutPin*%
X171000000Y-93500000D03*
%TD*%
D35*
%TO.N,gnd*%
X163500000Y-136000000D02*
X163500000Y-132500000D01*
X171000000Y-143500000D02*
X163500000Y-136000000D01*
X163500000Y-132500000D02*
X151500000Y-144500000D01*
D36*
%TO.N,*%
X67250000Y-144500000D02*
X61000000Y-144500000D01*
X70000000Y-124000000D02*
X70000000Y-141750000D01*
X80000000Y-114000000D02*
X70000000Y-124000000D01*
X70000000Y-141750000D02*
X67250000Y-144500000D01*
X61000000Y-144500000D02*
X60000000Y-143500000D01*
X60000000Y-128000000D02*
X60000000Y-137500000D01*
D37*
X115000000Y-98000000D02*
X115000000Y-111500000D01*
X101000000Y-119500000D02*
X103500000Y-117000000D01*
D36*
X113000000Y-135500000D02*
X119200000Y-129300000D01*
D37*
X100500000Y-119500000D02*
X101000000Y-119500000D01*
X117940000Y-90440000D02*
X119000000Y-90440000D01*
D36*
X92500000Y-137500000D02*
X94500000Y-135500000D01*
D37*
X100040000Y-46500000D02*
X107500000Y-46500000D01*
X110000000Y-57500000D02*
X90080000Y-57500000D01*
D36*
X94500000Y-135500000D02*
X113000000Y-135500000D01*
D37*
X100000000Y-120500000D02*
X99500000Y-120500000D01*
X103500000Y-117000000D02*
X107000000Y-117000000D01*
X110500000Y-93500000D02*
X115000000Y-98000000D01*
X107500000Y-46500000D02*
X115000000Y-54000000D01*
X115000000Y-54000000D02*
X115000000Y-87500000D01*
X74000000Y-114000000D02*
X74500000Y-114000000D01*
D36*
X119200000Y-129300000D02*
X119200000Y-129000000D01*
D37*
X100000000Y-46540000D02*
X100040000Y-46500000D01*
D36*
X74000000Y-114000000D02*
X60000000Y-128000000D01*
D37*
X115000000Y-111500000D02*
X117000000Y-113500000D01*
X115000000Y-87500000D02*
X117940000Y-90440000D01*
X99500000Y-120500000D02*
X99500000Y-120537308D01*
D35*
%TO.N,12v+*%
X173000000Y-61500000D02*
X176000000Y-58500000D01*
X130000000Y-61000000D02*
X130000000Y-112000000D01*
X137500000Y-119000000D02*
X135000000Y-121500000D01*
D37*
X137000000Y-119000000D02*
X137500000Y-119000000D01*
D35*
X130000000Y-112000000D02*
X137000000Y-119000000D01*
X135000000Y-121500000D02*
X135000000Y-137500000D01*
X176000000Y-56000000D02*
X176000000Y-46455000D01*
X176000000Y-46455000D02*
X173545000Y-44000000D01*
X176000000Y-58500000D02*
X176000000Y-56000000D01*
%TO.N,gnd*%
X166500000Y-48250000D02*
X166500000Y-56000000D01*
D37*
X85000000Y-57000000D02*
X85000000Y-57500000D01*
D35*
X166500000Y-97500000D02*
X166500000Y-91000000D01*
X92920000Y-49080000D02*
X85000000Y-57000000D01*
X166500000Y-64000000D02*
X166500000Y-56000000D01*
D37*
X168500000Y-89000000D02*
X168000000Y-89000000D01*
D35*
X112980000Y-92980000D02*
X85000000Y-65000000D01*
X165500000Y-130500000D02*
X163500000Y-132500000D01*
X85000000Y-65000000D02*
X85000000Y-57500000D01*
X168500000Y-130500000D02*
X165500000Y-130500000D01*
X168000000Y-89000000D02*
X154200000Y-75200000D01*
X134220000Y-110720000D02*
X140000001Y-116500001D01*
X119000000Y-92980000D02*
X112980000Y-92980000D01*
X151500000Y-144500000D02*
X151500000Y-146500000D01*
X107000000Y-129000000D02*
X102000000Y-129000000D01*
D37*
X139500000Y-119000000D02*
X140040000Y-119000000D01*
D35*
X100000000Y-49080000D02*
X92920000Y-49080000D01*
D37*
X100500000Y-127500000D02*
X100500000Y-127120000D01*
D35*
X140000001Y-116500001D02*
X140000001Y-118499999D01*
X102000000Y-129000000D02*
X100500000Y-127500000D01*
X150420000Y-44000000D02*
X152920000Y-41500000D01*
X166500000Y-91000000D02*
X168500000Y-89000000D01*
X152920000Y-41500000D02*
X159750000Y-41500000D01*
X154200000Y-75200000D02*
X152500000Y-75200000D01*
X159750000Y-41500000D02*
X166500000Y-48250000D01*
D37*
%TO.N,5v+*%
X163000000Y-119000000D02*
X142580000Y-119000000D01*
D35*
X176000000Y-83500000D02*
X155000000Y-62500000D01*
X103500000Y-40500000D02*
X133500000Y-40500000D01*
X133500000Y-40500000D02*
X148500000Y-55500000D01*
X148500000Y-62500000D02*
X148500000Y-56500000D01*
X142580000Y-116920000D02*
X142580000Y-119000000D01*
D37*
X171000000Y-127000000D02*
X163000000Y-119000000D01*
D35*
X176000000Y-97500000D02*
X176000000Y-83500000D01*
D37*
X171000000Y-137500000D02*
X171000000Y-127000000D01*
D35*
X155500000Y-44000000D02*
X155500000Y-47000000D01*
X145000000Y-65000000D02*
X145000000Y-114500000D01*
X155500000Y-47000000D02*
X148500000Y-54000000D01*
X100000000Y-44000000D02*
X103500000Y-40500000D01*
X145000000Y-114500000D02*
X142580000Y-116920000D01*
X148500000Y-54000000D02*
X148500000Y-56500000D01*
X147500000Y-62500000D02*
X145000000Y-65000000D01*
X155000000Y-62500000D02*
X152500000Y-62500000D01*
X147500000Y-62500000D02*
X148500000Y-62500000D01*
X148500000Y-55500000D02*
X148500000Y-57000000D01*
D37*
%TO.N,wtrsnrIN*%
X156920000Y-146500000D02*
X157000000Y-146420000D01*
X156580000Y-146500000D02*
X156920000Y-146500000D01*
%TO.N,humidiferGND*%
X175700000Y-102050000D02*
X171150000Y-97500000D01*
X175700000Y-140500000D02*
X175700000Y-102050000D01*
D35*
%TO.N,pumpGND*%
X168465000Y-44035000D02*
X168465000Y-44000000D01*
D37*
X171150000Y-56000000D02*
X171150000Y-46685000D01*
X171150000Y-46685000D02*
X168465000Y-44000000D01*
%TO.N,BigGND*%
X87000000Y-115000000D02*
X87000000Y-114000000D01*
%TO.N,HeaterPin*%
X127000000Y-117500000D02*
X128000000Y-118500000D01*
X127000000Y-101000000D02*
X127000000Y-117500000D01*
D36*
%TO.N,Big+*%
X92500000Y-114000000D02*
X92500000Y-116500000D01*
X86000000Y-123000000D02*
X105000000Y-123000000D01*
X77000000Y-132000000D02*
X77000000Y-137500000D01*
X85500000Y-123500000D02*
X86000000Y-123000000D01*
X85500000Y-123500000D02*
X92500000Y-116500000D01*
X85500000Y-123500000D02*
X77000000Y-132000000D01*
D37*
%TO.N,pumpOutPin*%
X173500000Y-91000000D02*
X173500000Y-89000000D01*
X171000000Y-93500000D02*
X173500000Y-91000000D01*
%TO.N,humidiferPinOut*%
X173500000Y-122000000D02*
X168399000Y-116899000D01*
X171000000Y-92000000D02*
X171000000Y-86000000D01*
X168399000Y-116899000D02*
X168399000Y-94601000D01*
X168399000Y-94601000D02*
X171000000Y-92000000D01*
X157660000Y-72660000D02*
X152500000Y-72660000D01*
X173500000Y-130500000D02*
X173500000Y-122000000D01*
X171000000Y-86000000D02*
X157660000Y-72660000D01*
%TD*%
M02*
