M48
; DRILL file {KiCad 9.0.1} date 2025-05-02T15:54:35+0100
; FORMAT={-:-/ absolute / metric / decimal}
; #@! TF.CreationDate,2025-05-02T15:54:35+01:00
; #@! TF.GenerationSoftware,Kicad,Pcbnew,9.0.1
; #@! TF.FileFunction,Plated,1,2,PTH
FMAT,2
METRIC
; #@! TA.AperFunction,Plated,PTH,ViaDrill
T1C0.300
; #@! TA.AperFunction,Plated,PTH,ComponentDrill
T2C0.700
; #@! TA.AperFunction,Plated,PTH,ComponentDrill
T3C0.750
; #@! TA.AperFunction,Plated,PTH,ComponentDrill
T4C0.800
; #@! TA.AperFunction,Plated,PTH,ComponentDrill
T5C1.000
; #@! TA.AperFunction,Plated,PTH,ComponentDrill
T6C1.100
; #@! TA.AperFunction,Plated,PTH,ComponentDrill
T7C1.300
; #@! TA.AperFunction,Plated,PTH,ComponentDrill
T8C2.200
%
G90
G05
T1
X110.0Y-57.5
X110.5Y-93.5
X117.0Y-113.5
X127.0Y-101.0
X130.0Y-61.0
X134.22Y-110.72
X166.5Y-64.0
X171.0Y-93.5
X173.0Y-61.5
T2
X100.0Y-44.0
X100.0Y-46.5
X100.0Y-49.0
T3
X58.5Y-91.5
X58.5Y-93.5
X58.5Y-95.5
X58.5Y-97.5
T4
X149.0Y-130.5
X159.16Y-130.5
T5
X85.0Y-57.5
X87.54Y-57.5
X90.08Y-57.5
X119.0Y-62.5
X119.0Y-65.04
X119.0Y-67.58
X119.0Y-70.12
X119.0Y-72.66
X119.0Y-75.2
X119.0Y-77.74
X119.0Y-80.28
X119.0Y-82.82
X119.0Y-85.36
X119.0Y-87.9
X119.0Y-90.44
X119.0Y-92.98
X119.0Y-95.52
X119.0Y-98.06
X119.0Y-100.6
X119.0Y-103.14
X119.0Y-105.68
X119.0Y-108.22
X123.0Y-62.5
X123.0Y-65.04
X123.0Y-67.58
X123.0Y-70.12
X123.0Y-72.66
X123.0Y-75.2
X123.0Y-77.74
X123.0Y-80.28
X123.0Y-82.82
X123.0Y-85.36
X123.0Y-87.9
X123.0Y-90.44
X123.0Y-92.98
X123.0Y-95.52
X123.0Y-98.06
X123.0Y-100.6
X123.0Y-103.14
X123.0Y-105.68
X123.0Y-108.22
X148.5Y-62.5
X148.5Y-65.04
X148.5Y-67.58
X148.5Y-70.12
X148.5Y-72.66
X148.5Y-75.2
X148.5Y-77.74
X148.5Y-80.28
X148.5Y-82.82
X148.5Y-85.36
X148.5Y-87.9
X148.5Y-90.44
X148.5Y-92.98
X148.5Y-95.52
X148.5Y-98.06
X148.5Y-100.6
X148.5Y-103.14
X148.5Y-105.68
X148.5Y-108.22
X152.5Y-62.5
X152.5Y-65.04
X152.5Y-67.58
X152.5Y-70.12
X152.5Y-72.66
X152.5Y-75.2
X152.5Y-77.74
X152.5Y-80.28
X152.5Y-82.82
X152.5Y-85.36
X152.5Y-87.9
X152.5Y-90.44
X152.5Y-92.98
X152.5Y-95.52
X152.5Y-98.06
X152.5Y-100.6
X152.5Y-103.14
X152.5Y-105.68
X152.5Y-108.22
T6
X100.5Y-119.5
X100.5Y-127.12
X128.0Y-118.5
X128.0Y-121.04
X128.0Y-123.58
X137.5Y-119.0
X140.04Y-119.0
X142.58Y-119.0
T7
X105.0Y-123.0
X107.0Y-117.0
X107.0Y-129.0
X115.465Y-44.0
X119.2Y-117.0
X119.2Y-129.0
X120.545Y-44.0
X150.42Y-44.0
X151.5Y-146.5
X155.5Y-44.0
X156.58Y-146.5
X168.465Y-44.0
X173.545Y-44.0
T8
X74.5Y-114.0
X80.0Y-114.0
X87.0Y-114.0
X92.5Y-114.0
T5
G00X59.0Y-137.5
M15
G01X61.0Y-137.5
M16
G05
G00X59.0Y-143.5
M15
G01X61.0Y-143.5
M16
G05
G00X64.7Y-141.5
M15
G01X64.7Y-139.5
M16
G05
G00X76.0Y-137.5
M15
G01X78.0Y-137.5
M16
G05
G00X76.0Y-143.5
M15
G01X78.0Y-143.5
M16
G05
G00X81.7Y-141.5
M15
G01X81.7Y-139.5
M16
G05
G00X91.5Y-137.5
M15
G01X93.5Y-137.5
M16
G05
G00X91.5Y-143.5
M15
G01X93.5Y-143.5
M16
G05
G00X97.2Y-141.5
M15
G01X97.2Y-139.5
M16
G05
G00X134.0Y-137.5
M15
G01X136.0Y-137.5
M16
G05
G00X134.0Y-143.5
M15
G01X136.0Y-143.5
M16
G05
G00X139.7Y-141.5
M15
G01X139.7Y-139.5
M16
G05
G00X170.0Y-137.5
M15
G01X172.0Y-137.5
M16
G05
G00X170.0Y-143.5
M15
G01X172.0Y-143.5
M16
G05
G00X175.7Y-141.5
M15
G01X175.7Y-139.5
M16
G05
M30
