M48
; DRILL file {KiCad 9.0.1} date 2025-05-24T15:45:40+0100
; FORMAT={-:-/ absolute / metric / decimal}
; #@! TF.CreationDate,2025-05-24T15:45:40+01:00
; #@! TF.GenerationSoftware,Kicad,Pcbnew,9.0.1
; #@! TF.FileFunction,Plated,1,2,PTH
FMAT,2
METRIC
; #@! TA.AperFunction,Plated,PTH,ViaDrill
T1C0.300
; #@! TA.AperFunction,Plated,PTH,ComponentDrill
T2C0.750
; #@! TA.AperFunction,Plated,PTH,ComponentDrill
T3C0.800
; #@! TA.AperFunction,Plated,PTH,ComponentDrill
T4C0.900
; #@! TA.AperFunction,Plated,PTH,ComponentDrill
T5C1.000
; #@! TA.AperFunction,Plated,PTH,ComponentDrill
T6C1.100
; #@! TA.AperFunction,Plated,PTH,ComponentDrill
T7C1.300
; #@! TA.AperFunction,Plated,PTH,ComponentDrill
T8C2.200
%
G90
G05
T1
X112.5Y-57.5
X127.0Y-104.5
X130.0Y-61.0
X131.72Y-108.22
X135.0Y-60.0
X137.01Y-85.99
X139.0Y-87.5
X145.5Y-70.5
X158.5Y-86.0
X171.5Y-84.5
X172.75Y-124.75
X173.0Y-61.5
T2
X133.0Y-45.5
X135.0Y-45.5
X137.0Y-45.5
X139.0Y-45.5
T3
X133.5Y-127.5
X133.5Y-132.5
X149.0Y-135.0
X159.16Y-135.0
T4
X138.5Y-129.0
X140.5Y-129.0
T5
X85.0Y-57.5
X87.54Y-57.5
X90.08Y-57.5
X119.0Y-62.5
X119.0Y-65.04
X119.0Y-67.58
X119.0Y-70.12
X119.0Y-72.66
X119.0Y-75.2
X119.0Y-77.74
X119.0Y-80.28
X119.0Y-82.82
X119.0Y-85.36
X119.0Y-87.9
X119.0Y-90.44
X119.0Y-92.98
X119.0Y-95.52
X119.0Y-98.06
X119.0Y-100.6
X119.0Y-103.14
X119.0Y-105.68
X119.0Y-108.22
X123.0Y-62.5
X123.0Y-65.04
X123.0Y-67.58
X123.0Y-70.12
X123.0Y-72.66
X123.0Y-75.2
X123.0Y-77.74
X123.0Y-80.28
X123.0Y-82.82
X123.0Y-85.36
X123.0Y-87.9
X123.0Y-90.44
X123.0Y-92.98
X123.0Y-95.52
X123.0Y-98.06
X123.0Y-100.6
X123.0Y-103.14
X123.0Y-105.68
X123.0Y-108.22
X138.5Y-123.5
X141.04Y-123.5
X143.58Y-123.5
X148.5Y-62.5
X148.5Y-65.04
X148.5Y-67.58
X148.5Y-70.12
X148.5Y-72.66
X148.5Y-75.2
X148.5Y-77.74
X148.5Y-80.28
X148.5Y-82.82
X148.5Y-85.36
X148.5Y-87.9
X148.5Y-90.44
X148.5Y-92.98
X148.5Y-95.52
X148.5Y-98.06
X148.5Y-100.6
X148.5Y-103.14
X148.5Y-105.68
X148.5Y-108.22
X152.5Y-62.5
X152.5Y-65.04
X152.5Y-67.58
X152.5Y-70.12
X152.5Y-72.66
X152.5Y-75.2
X152.5Y-77.74
X152.5Y-80.28
X152.5Y-82.82
X152.5Y-85.36
X152.5Y-87.9
X152.5Y-90.44
X152.5Y-92.98
X152.5Y-95.52
X152.5Y-98.06
X152.5Y-100.6
X152.5Y-103.14
X152.5Y-105.68
X152.5Y-108.22
T6
X121.0Y-120.0
X121.0Y-127.62
X127.0Y-118.5
X127.0Y-121.04
X127.0Y-123.58
T7
X101.0Y-118.0
X101.0Y-130.0
X113.2Y-118.0
X113.2Y-130.0
X115.2Y-124.0
X115.465Y-44.0
X120.545Y-44.0
X150.42Y-44.0
X151.5Y-146.5
X155.5Y-44.0
X156.58Y-146.5
X168.465Y-44.0
X173.545Y-44.0
T8
X74.5Y-114.0
X80.0Y-114.0
X87.0Y-114.0
X92.5Y-114.0
T5
G00X59.0Y-137.5
M15
G01X61.0Y-137.5
M16
G05
G00X59.0Y-143.5
M15
G01X61.0Y-143.5
M16
G05
G00X64.7Y-141.5
M15
G01X64.7Y-139.5
M16
G05
G00X76.0Y-137.5
M15
G01X78.0Y-137.5
M16
G05
G00X76.0Y-143.5
M15
G01X78.0Y-143.5
M16
G05
G00X81.7Y-141.5
M15
G01X81.7Y-139.5
M16
G05
G00X91.5Y-137.5
M15
G01X93.5Y-137.5
M16
G05
G00X91.5Y-143.5
M15
G01X93.5Y-143.5
M16
G05
G00X97.2Y-141.5
M15
G01X97.2Y-139.5
M16
G05
G00X134.0Y-137.5
M15
G01X136.0Y-137.5
M16
G05
G00X134.0Y-143.5
M15
G01X136.0Y-143.5
M16
G05
G00X139.7Y-141.5
M15
G01X139.7Y-139.5
M16
G05
G00X170.0Y-137.5
M15
G01X172.0Y-137.5
M16
G05
G00X170.0Y-143.5
M15
G01X172.0Y-143.5
M16
G05
G00X175.7Y-141.5
M15
G01X175.7Y-139.5
M16
G05
M30
