%TF.GenerationSoftware,KiCad,Pcbnew,9.0.1*%
%TF.CreationDate,2025-05-02T15:54:27+01:00*%
%TF.ProjectId,main_board,6d61696e-5f62-46f6-9172-642e6b696361,rev?*%
%TF.SameCoordinates,Original*%
%TF.FileFunction,Legend,Top*%
%TF.FilePolarity,Positive*%
%FSLAX46Y46*%
G04 Gerber Fmt 4.6, Leading zero omitted, Abs format (unit mm)*
G04 Created by KiCad (PCBNEW 9.0.1) date 2025-05-02 15:54:27*
%MOMM*%
%LPD*%
G01*
G04 APERTURE LIST*
%ADD10C,0.200000*%
%ADD11C,0.100000*%
%ADD12C,0.300000*%
%ADD13C,0.312500*%
%ADD14C,0.375000*%
%ADD15C,0.250000*%
%ADD16C,0.187500*%
%ADD17C,0.150000*%
%ADD18C,0.120000*%
G04 APERTURE END LIST*
D10*
X97000000Y-46500000D02*
G75*
G02*
X89000000Y-46500000I-4000000J0D01*
G01*
X89000000Y-46500000D02*
G75*
G02*
X97000000Y-46500000I4000000J0D01*
G01*
D11*
X68500001Y-61000002D02*
X104491634Y-61000002D01*
X104500008Y-60999992D02*
G75*
G02*
X108000008Y-64499992I-8J-3500008D01*
G01*
X68500000Y-109500000D02*
G75*
G02*
X65000000Y-106000000I0J3500000D01*
G01*
X65000000Y-106000000D02*
X65000000Y-64500000D01*
X108025135Y-106025117D02*
G75*
G02*
X104525109Y-109525135I-3500035J17D01*
G01*
X65000001Y-64500001D02*
G75*
G02*
X68500001Y-61000001I3499999J1D01*
G01*
X108000008Y-64499991D02*
X108000009Y-105999991D01*
X104513875Y-109525117D02*
X68500000Y-109500000D01*
X166499999Y-71762475D02*
X166499999Y-70762475D01*
X166499999Y-70762475D02*
X166738094Y-70762475D01*
X166738094Y-70762475D02*
X166880951Y-70810094D01*
X166880951Y-70810094D02*
X166976189Y-70905332D01*
X166976189Y-70905332D02*
X167023808Y-71000570D01*
X167023808Y-71000570D02*
X167071427Y-71191046D01*
X167071427Y-71191046D02*
X167071427Y-71333903D01*
X167071427Y-71333903D02*
X167023808Y-71524379D01*
X167023808Y-71524379D02*
X166976189Y-71619617D01*
X166976189Y-71619617D02*
X166880951Y-71714856D01*
X166880951Y-71714856D02*
X166738094Y-71762475D01*
X166738094Y-71762475D02*
X166499999Y-71762475D01*
X167928570Y-71095808D02*
X167928570Y-71762475D01*
X167690475Y-70714856D02*
X167452380Y-71429141D01*
X167452380Y-71429141D02*
X168071427Y-71429141D01*
X168976189Y-71762475D02*
X168404761Y-71762475D01*
X168690475Y-71762475D02*
X168690475Y-70762475D01*
X168690475Y-70762475D02*
X168595237Y-70905332D01*
X168595237Y-70905332D02*
X168499999Y-71000570D01*
X168499999Y-71000570D02*
X168404761Y-71048189D01*
X169547618Y-71191046D02*
X169452380Y-71143427D01*
X169452380Y-71143427D02*
X169404761Y-71095808D01*
X169404761Y-71095808D02*
X169357142Y-71000570D01*
X169357142Y-71000570D02*
X169357142Y-70952951D01*
X169357142Y-70952951D02*
X169404761Y-70857713D01*
X169404761Y-70857713D02*
X169452380Y-70810094D01*
X169452380Y-70810094D02*
X169547618Y-70762475D01*
X169547618Y-70762475D02*
X169738094Y-70762475D01*
X169738094Y-70762475D02*
X169833332Y-70810094D01*
X169833332Y-70810094D02*
X169880951Y-70857713D01*
X169880951Y-70857713D02*
X169928570Y-70952951D01*
X169928570Y-70952951D02*
X169928570Y-71000570D01*
X169928570Y-71000570D02*
X169880951Y-71095808D01*
X169880951Y-71095808D02*
X169833332Y-71143427D01*
X169833332Y-71143427D02*
X169738094Y-71191046D01*
X169738094Y-71191046D02*
X169547618Y-71191046D01*
X169547618Y-71191046D02*
X169452380Y-71238665D01*
X169452380Y-71238665D02*
X169404761Y-71286284D01*
X169404761Y-71286284D02*
X169357142Y-71381522D01*
X169357142Y-71381522D02*
X169357142Y-71571998D01*
X169357142Y-71571998D02*
X169404761Y-71667236D01*
X169404761Y-71667236D02*
X169452380Y-71714856D01*
X169452380Y-71714856D02*
X169547618Y-71762475D01*
X169547618Y-71762475D02*
X169738094Y-71762475D01*
X169738094Y-71762475D02*
X169833332Y-71714856D01*
X169833332Y-71714856D02*
X169880951Y-71667236D01*
X169880951Y-71667236D02*
X169928570Y-71571998D01*
X169928570Y-71571998D02*
X169928570Y-71381522D01*
X169928570Y-71381522D02*
X169880951Y-71286284D01*
X169880951Y-71286284D02*
X169833332Y-71238665D01*
X169833332Y-71238665D02*
X169738094Y-71191046D01*
X171119047Y-71762475D02*
X171119047Y-70762475D01*
X171119047Y-70762475D02*
X171452380Y-71476760D01*
X171452380Y-71476760D02*
X171785713Y-70762475D01*
X171785713Y-70762475D02*
X171785713Y-71762475D01*
X172404761Y-71762475D02*
X172309523Y-71714856D01*
X172309523Y-71714856D02*
X172261904Y-71667236D01*
X172261904Y-71667236D02*
X172214285Y-71571998D01*
X172214285Y-71571998D02*
X172214285Y-71286284D01*
X172214285Y-71286284D02*
X172261904Y-71191046D01*
X172261904Y-71191046D02*
X172309523Y-71143427D01*
X172309523Y-71143427D02*
X172404761Y-71095808D01*
X172404761Y-71095808D02*
X172547618Y-71095808D01*
X172547618Y-71095808D02*
X172642856Y-71143427D01*
X172642856Y-71143427D02*
X172690475Y-71191046D01*
X172690475Y-71191046D02*
X172738094Y-71286284D01*
X172738094Y-71286284D02*
X172738094Y-71571998D01*
X172738094Y-71571998D02*
X172690475Y-71667236D01*
X172690475Y-71667236D02*
X172642856Y-71714856D01*
X172642856Y-71714856D02*
X172547618Y-71762475D01*
X172547618Y-71762475D02*
X172404761Y-71762475D01*
X173119047Y-71714856D02*
X173214285Y-71762475D01*
X173214285Y-71762475D02*
X173404761Y-71762475D01*
X173404761Y-71762475D02*
X173499999Y-71714856D01*
X173499999Y-71714856D02*
X173547618Y-71619617D01*
X173547618Y-71619617D02*
X173547618Y-71571998D01*
X173547618Y-71571998D02*
X173499999Y-71476760D01*
X173499999Y-71476760D02*
X173404761Y-71429141D01*
X173404761Y-71429141D02*
X173261904Y-71429141D01*
X173261904Y-71429141D02*
X173166666Y-71381522D01*
X173166666Y-71381522D02*
X173119047Y-71286284D01*
X173119047Y-71286284D02*
X173119047Y-71238665D01*
X173119047Y-71238665D02*
X173166666Y-71143427D01*
X173166666Y-71143427D02*
X173261904Y-71095808D01*
X173261904Y-71095808D02*
X173404761Y-71095808D01*
X173404761Y-71095808D02*
X173499999Y-71143427D01*
X173833333Y-71095808D02*
X174214285Y-71095808D01*
X173976190Y-71762475D02*
X173976190Y-70905332D01*
X173976190Y-70905332D02*
X174023809Y-70810094D01*
X174023809Y-70810094D02*
X174119047Y-70762475D01*
X174119047Y-70762475D02*
X174214285Y-70762475D01*
X174928571Y-71714856D02*
X174833333Y-71762475D01*
X174833333Y-71762475D02*
X174642857Y-71762475D01*
X174642857Y-71762475D02*
X174547619Y-71714856D01*
X174547619Y-71714856D02*
X174500000Y-71619617D01*
X174500000Y-71619617D02*
X174500000Y-71238665D01*
X174500000Y-71238665D02*
X174547619Y-71143427D01*
X174547619Y-71143427D02*
X174642857Y-71095808D01*
X174642857Y-71095808D02*
X174833333Y-71095808D01*
X174833333Y-71095808D02*
X174928571Y-71143427D01*
X174928571Y-71143427D02*
X174976190Y-71238665D01*
X174976190Y-71238665D02*
X174976190Y-71333903D01*
X174976190Y-71333903D02*
X174500000Y-71429141D01*
X175261905Y-71095808D02*
X175642857Y-71095808D01*
X175404762Y-70762475D02*
X175404762Y-71619617D01*
X175404762Y-71619617D02*
X175452381Y-71714856D01*
X175452381Y-71714856D02*
X175547619Y-71762475D01*
X175547619Y-71762475D02*
X175642857Y-71762475D01*
X169166667Y-73372419D02*
X169166667Y-72372419D01*
X169166667Y-72372419D02*
X169547619Y-72372419D01*
X169547619Y-72372419D02*
X169642857Y-72420038D01*
X169642857Y-72420038D02*
X169690476Y-72467657D01*
X169690476Y-72467657D02*
X169738095Y-72562895D01*
X169738095Y-72562895D02*
X169738095Y-72705752D01*
X169738095Y-72705752D02*
X169690476Y-72800990D01*
X169690476Y-72800990D02*
X169642857Y-72848609D01*
X169642857Y-72848609D02*
X169547619Y-72896228D01*
X169547619Y-72896228D02*
X169166667Y-72896228D01*
X170595238Y-72705752D02*
X170595238Y-73372419D01*
X170166667Y-72705752D02*
X170166667Y-73229561D01*
X170166667Y-73229561D02*
X170214286Y-73324800D01*
X170214286Y-73324800D02*
X170309524Y-73372419D01*
X170309524Y-73372419D02*
X170452381Y-73372419D01*
X170452381Y-73372419D02*
X170547619Y-73324800D01*
X170547619Y-73324800D02*
X170595238Y-73277180D01*
X171071429Y-73372419D02*
X171071429Y-72705752D01*
X171071429Y-72800990D02*
X171119048Y-72753371D01*
X171119048Y-72753371D02*
X171214286Y-72705752D01*
X171214286Y-72705752D02*
X171357143Y-72705752D01*
X171357143Y-72705752D02*
X171452381Y-72753371D01*
X171452381Y-72753371D02*
X171500000Y-72848609D01*
X171500000Y-72848609D02*
X171500000Y-73372419D01*
X171500000Y-72848609D02*
X171547619Y-72753371D01*
X171547619Y-72753371D02*
X171642857Y-72705752D01*
X171642857Y-72705752D02*
X171785714Y-72705752D01*
X171785714Y-72705752D02*
X171880953Y-72753371D01*
X171880953Y-72753371D02*
X171928572Y-72848609D01*
X171928572Y-72848609D02*
X171928572Y-73372419D01*
X172404762Y-72705752D02*
X172404762Y-73705752D01*
X172404762Y-72753371D02*
X172500000Y-72705752D01*
X172500000Y-72705752D02*
X172690476Y-72705752D01*
X172690476Y-72705752D02*
X172785714Y-72753371D01*
X172785714Y-72753371D02*
X172833333Y-72800990D01*
X172833333Y-72800990D02*
X172880952Y-72896228D01*
X172880952Y-72896228D02*
X172880952Y-73181942D01*
X172880952Y-73181942D02*
X172833333Y-73277180D01*
X172833333Y-73277180D02*
X172785714Y-73324800D01*
X172785714Y-73324800D02*
X172690476Y-73372419D01*
X172690476Y-73372419D02*
X172500000Y-73372419D01*
X172500000Y-73372419D02*
X172404762Y-73324800D01*
D12*
X150054510Y-50729400D02*
X151197368Y-50729400D01*
X163250000Y-52300828D02*
X163250000Y-50800828D01*
X163250000Y-50800828D02*
X163821429Y-50800828D01*
X163821429Y-50800828D02*
X163964286Y-50872257D01*
X163964286Y-50872257D02*
X164035715Y-50943685D01*
X164035715Y-50943685D02*
X164107143Y-51086542D01*
X164107143Y-51086542D02*
X164107143Y-51300828D01*
X164107143Y-51300828D02*
X164035715Y-51443685D01*
X164035715Y-51443685D02*
X163964286Y-51515114D01*
X163964286Y-51515114D02*
X163821429Y-51586542D01*
X163821429Y-51586542D02*
X163250000Y-51586542D01*
X165392858Y-51300828D02*
X165392858Y-52300828D01*
X164750000Y-51300828D02*
X164750000Y-52086542D01*
X164750000Y-52086542D02*
X164821429Y-52229400D01*
X164821429Y-52229400D02*
X164964286Y-52300828D01*
X164964286Y-52300828D02*
X165178572Y-52300828D01*
X165178572Y-52300828D02*
X165321429Y-52229400D01*
X165321429Y-52229400D02*
X165392858Y-52157971D01*
X166107143Y-52300828D02*
X166107143Y-51300828D01*
X166107143Y-51443685D02*
X166178572Y-51372257D01*
X166178572Y-51372257D02*
X166321429Y-51300828D01*
X166321429Y-51300828D02*
X166535715Y-51300828D01*
X166535715Y-51300828D02*
X166678572Y-51372257D01*
X166678572Y-51372257D02*
X166750001Y-51515114D01*
X166750001Y-51515114D02*
X166750001Y-52300828D01*
X166750001Y-51515114D02*
X166821429Y-51372257D01*
X166821429Y-51372257D02*
X166964286Y-51300828D01*
X166964286Y-51300828D02*
X167178572Y-51300828D01*
X167178572Y-51300828D02*
X167321429Y-51372257D01*
X167321429Y-51372257D02*
X167392858Y-51515114D01*
X167392858Y-51515114D02*
X167392858Y-52300828D01*
X168107143Y-51300828D02*
X168107143Y-52800828D01*
X168107143Y-51372257D02*
X168250001Y-51300828D01*
X168250001Y-51300828D02*
X168535715Y-51300828D01*
X168535715Y-51300828D02*
X168678572Y-51372257D01*
X168678572Y-51372257D02*
X168750001Y-51443685D01*
X168750001Y-51443685D02*
X168821429Y-51586542D01*
X168821429Y-51586542D02*
X168821429Y-52015114D01*
X168821429Y-52015114D02*
X168750001Y-52157971D01*
X168750001Y-52157971D02*
X168678572Y-52229400D01*
X168678572Y-52229400D02*
X168535715Y-52300828D01*
X168535715Y-52300828D02*
X168250001Y-52300828D01*
X168250001Y-52300828D02*
X168107143Y-52229400D01*
X170821429Y-52300828D02*
X170678572Y-52229400D01*
X170678572Y-52229400D02*
X170607143Y-52157971D01*
X170607143Y-52157971D02*
X170535715Y-52015114D01*
X170535715Y-52015114D02*
X170535715Y-51586542D01*
X170535715Y-51586542D02*
X170607143Y-51443685D01*
X170607143Y-51443685D02*
X170678572Y-51372257D01*
X170678572Y-51372257D02*
X170821429Y-51300828D01*
X170821429Y-51300828D02*
X171035715Y-51300828D01*
X171035715Y-51300828D02*
X171178572Y-51372257D01*
X171178572Y-51372257D02*
X171250001Y-51443685D01*
X171250001Y-51443685D02*
X171321429Y-51586542D01*
X171321429Y-51586542D02*
X171321429Y-52015114D01*
X171321429Y-52015114D02*
X171250001Y-52157971D01*
X171250001Y-52157971D02*
X171178572Y-52229400D01*
X171178572Y-52229400D02*
X171035715Y-52300828D01*
X171035715Y-52300828D02*
X170821429Y-52300828D01*
X172607144Y-51300828D02*
X172607144Y-52300828D01*
X171964286Y-51300828D02*
X171964286Y-52086542D01*
X171964286Y-52086542D02*
X172035715Y-52229400D01*
X172035715Y-52229400D02*
X172178572Y-52300828D01*
X172178572Y-52300828D02*
X172392858Y-52300828D01*
X172392858Y-52300828D02*
X172535715Y-52229400D01*
X172535715Y-52229400D02*
X172607144Y-52157971D01*
X173107144Y-51300828D02*
X173678572Y-51300828D01*
X173321429Y-50800828D02*
X173321429Y-52086542D01*
X173321429Y-52086542D02*
X173392858Y-52229400D01*
X173392858Y-52229400D02*
X173535715Y-52300828D01*
X173535715Y-52300828D02*
X173678572Y-52300828D01*
X176107144Y-52300828D02*
X175250001Y-52300828D01*
X175678572Y-52300828D02*
X175678572Y-50800828D01*
X175678572Y-50800828D02*
X175535715Y-51015114D01*
X175535715Y-51015114D02*
X175392858Y-51157971D01*
X175392858Y-51157971D02*
X175250001Y-51229400D01*
X176678572Y-50943685D02*
X176750000Y-50872257D01*
X176750000Y-50872257D02*
X176892858Y-50800828D01*
X176892858Y-50800828D02*
X177250000Y-50800828D01*
X177250000Y-50800828D02*
X177392858Y-50872257D01*
X177392858Y-50872257D02*
X177464286Y-50943685D01*
X177464286Y-50943685D02*
X177535715Y-51086542D01*
X177535715Y-51086542D02*
X177535715Y-51229400D01*
X177535715Y-51229400D02*
X177464286Y-51443685D01*
X177464286Y-51443685D02*
X176607143Y-52300828D01*
X176607143Y-52300828D02*
X177535715Y-52300828D01*
X177964286Y-50800828D02*
X178464286Y-52300828D01*
X178464286Y-52300828D02*
X178964286Y-50800828D01*
D13*
X135330773Y-106059522D02*
X135330773Y-105226189D01*
X136640297Y-104869046D02*
X136640297Y-106059522D01*
X136640297Y-106059522D02*
X134140297Y-106059522D01*
X134140297Y-106059522D02*
X134140297Y-104869046D01*
X136521250Y-103916665D02*
X136640297Y-103559522D01*
X136640297Y-103559522D02*
X136640297Y-102964284D01*
X136640297Y-102964284D02*
X136521250Y-102726189D01*
X136521250Y-102726189D02*
X136402202Y-102607141D01*
X136402202Y-102607141D02*
X136164107Y-102488094D01*
X136164107Y-102488094D02*
X135926011Y-102488094D01*
X135926011Y-102488094D02*
X135687916Y-102607141D01*
X135687916Y-102607141D02*
X135568869Y-102726189D01*
X135568869Y-102726189D02*
X135449821Y-102964284D01*
X135449821Y-102964284D02*
X135330773Y-103440475D01*
X135330773Y-103440475D02*
X135211726Y-103678570D01*
X135211726Y-103678570D02*
X135092678Y-103797617D01*
X135092678Y-103797617D02*
X134854583Y-103916665D01*
X134854583Y-103916665D02*
X134616488Y-103916665D01*
X134616488Y-103916665D02*
X134378392Y-103797617D01*
X134378392Y-103797617D02*
X134259345Y-103678570D01*
X134259345Y-103678570D02*
X134140297Y-103440475D01*
X134140297Y-103440475D02*
X134140297Y-102845236D01*
X134140297Y-102845236D02*
X134259345Y-102488094D01*
X136640297Y-101416665D02*
X134140297Y-101416665D01*
X134140297Y-101416665D02*
X134140297Y-100464284D01*
X134140297Y-100464284D02*
X134259345Y-100226189D01*
X134259345Y-100226189D02*
X134378392Y-100107142D01*
X134378392Y-100107142D02*
X134616488Y-99988094D01*
X134616488Y-99988094D02*
X134973630Y-99988094D01*
X134973630Y-99988094D02*
X135211726Y-100107142D01*
X135211726Y-100107142D02*
X135330773Y-100226189D01*
X135330773Y-100226189D02*
X135449821Y-100464284D01*
X135449821Y-100464284D02*
X135449821Y-101416665D01*
X134140297Y-99154761D02*
X134140297Y-97607142D01*
X134140297Y-97607142D02*
X135092678Y-98440475D01*
X135092678Y-98440475D02*
X135092678Y-98083332D01*
X135092678Y-98083332D02*
X135211726Y-97845237D01*
X135211726Y-97845237D02*
X135330773Y-97726189D01*
X135330773Y-97726189D02*
X135568869Y-97607142D01*
X135568869Y-97607142D02*
X136164107Y-97607142D01*
X136164107Y-97607142D02*
X136402202Y-97726189D01*
X136402202Y-97726189D02*
X136521250Y-97845237D01*
X136521250Y-97845237D02*
X136640297Y-98083332D01*
X136640297Y-98083332D02*
X136640297Y-98797618D01*
X136640297Y-98797618D02*
X136521250Y-99035713D01*
X136521250Y-99035713D02*
X136402202Y-99154761D01*
X134378392Y-96654761D02*
X134259345Y-96535713D01*
X134259345Y-96535713D02*
X134140297Y-96297618D01*
X134140297Y-96297618D02*
X134140297Y-95702380D01*
X134140297Y-95702380D02*
X134259345Y-95464285D01*
X134259345Y-95464285D02*
X134378392Y-95345237D01*
X134378392Y-95345237D02*
X134616488Y-95226190D01*
X134616488Y-95226190D02*
X134854583Y-95226190D01*
X134854583Y-95226190D02*
X135211726Y-95345237D01*
X135211726Y-95345237D02*
X136640297Y-96773809D01*
X136640297Y-96773809D02*
X136640297Y-95226190D01*
X135687916Y-94154761D02*
X135687916Y-92250000D01*
X134140297Y-91297619D02*
X136640297Y-90702381D01*
X136640297Y-90702381D02*
X134854583Y-90226190D01*
X134854583Y-90226190D02*
X136640297Y-89750000D01*
X136640297Y-89750000D02*
X134140297Y-89154762D01*
X136640297Y-86773809D02*
X135449821Y-87607142D01*
X136640297Y-88202380D02*
X134140297Y-88202380D01*
X134140297Y-88202380D02*
X134140297Y-87249999D01*
X134140297Y-87249999D02*
X134259345Y-87011904D01*
X134259345Y-87011904D02*
X134378392Y-86892857D01*
X134378392Y-86892857D02*
X134616488Y-86773809D01*
X134616488Y-86773809D02*
X134973630Y-86773809D01*
X134973630Y-86773809D02*
X135211726Y-86892857D01*
X135211726Y-86892857D02*
X135330773Y-87011904D01*
X135330773Y-87011904D02*
X135449821Y-87249999D01*
X135449821Y-87249999D02*
X135449821Y-88202380D01*
X134140297Y-85226190D02*
X134140297Y-84749999D01*
X134140297Y-84749999D02*
X134259345Y-84511904D01*
X134259345Y-84511904D02*
X134497440Y-84273809D01*
X134497440Y-84273809D02*
X134973630Y-84154761D01*
X134973630Y-84154761D02*
X135806964Y-84154761D01*
X135806964Y-84154761D02*
X136283154Y-84273809D01*
X136283154Y-84273809D02*
X136521250Y-84511904D01*
X136521250Y-84511904D02*
X136640297Y-84749999D01*
X136640297Y-84749999D02*
X136640297Y-85226190D01*
X136640297Y-85226190D02*
X136521250Y-85464285D01*
X136521250Y-85464285D02*
X136283154Y-85702380D01*
X136283154Y-85702380D02*
X135806964Y-85821428D01*
X135806964Y-85821428D02*
X134973630Y-85821428D01*
X134973630Y-85821428D02*
X134497440Y-85702380D01*
X134497440Y-85702380D02*
X134259345Y-85464285D01*
X134259345Y-85464285D02*
X134140297Y-85226190D01*
X134140297Y-82607142D02*
X134140297Y-82130951D01*
X134140297Y-82130951D02*
X134259345Y-81892856D01*
X134259345Y-81892856D02*
X134497440Y-81654761D01*
X134497440Y-81654761D02*
X134973630Y-81535713D01*
X134973630Y-81535713D02*
X135806964Y-81535713D01*
X135806964Y-81535713D02*
X136283154Y-81654761D01*
X136283154Y-81654761D02*
X136521250Y-81892856D01*
X136521250Y-81892856D02*
X136640297Y-82130951D01*
X136640297Y-82130951D02*
X136640297Y-82607142D01*
X136640297Y-82607142D02*
X136521250Y-82845237D01*
X136521250Y-82845237D02*
X136283154Y-83083332D01*
X136283154Y-83083332D02*
X135806964Y-83202380D01*
X135806964Y-83202380D02*
X134973630Y-83202380D01*
X134973630Y-83202380D02*
X134497440Y-83083332D01*
X134497440Y-83083332D02*
X134259345Y-82845237D01*
X134259345Y-82845237D02*
X134140297Y-82607142D01*
X136640297Y-80464284D02*
X134140297Y-80464284D01*
X134140297Y-80464284D02*
X135926011Y-79630951D01*
X135926011Y-79630951D02*
X134140297Y-78797618D01*
X134140297Y-78797618D02*
X136640297Y-78797618D01*
X135687916Y-77607141D02*
X135687916Y-75702380D01*
X134140297Y-74749999D02*
X134140297Y-73202380D01*
X134140297Y-73202380D02*
X135092678Y-74035713D01*
X135092678Y-74035713D02*
X135092678Y-73678570D01*
X135092678Y-73678570D02*
X135211726Y-73440475D01*
X135211726Y-73440475D02*
X135330773Y-73321427D01*
X135330773Y-73321427D02*
X135568869Y-73202380D01*
X135568869Y-73202380D02*
X136164107Y-73202380D01*
X136164107Y-73202380D02*
X136402202Y-73321427D01*
X136402202Y-73321427D02*
X136521250Y-73440475D01*
X136521250Y-73440475D02*
X136640297Y-73678570D01*
X136640297Y-73678570D02*
X136640297Y-74392856D01*
X136640297Y-74392856D02*
X136521250Y-74630951D01*
X136521250Y-74630951D02*
X136402202Y-74749999D01*
X134378392Y-72249999D02*
X134259345Y-72130951D01*
X134259345Y-72130951D02*
X134140297Y-71892856D01*
X134140297Y-71892856D02*
X134140297Y-71297618D01*
X134140297Y-71297618D02*
X134259345Y-71059523D01*
X134259345Y-71059523D02*
X134378392Y-70940475D01*
X134378392Y-70940475D02*
X134616488Y-70821428D01*
X134616488Y-70821428D02*
X134854583Y-70821428D01*
X134854583Y-70821428D02*
X135211726Y-70940475D01*
X135211726Y-70940475D02*
X136640297Y-72369047D01*
X136640297Y-72369047D02*
X136640297Y-70821428D01*
D12*
X147911653Y-138300828D02*
X148268796Y-139800828D01*
X148268796Y-139800828D02*
X148554510Y-138729400D01*
X148554510Y-138729400D02*
X148840225Y-139800828D01*
X148840225Y-139800828D02*
X149197368Y-138300828D01*
X150411654Y-139800828D02*
X150411654Y-139015114D01*
X150411654Y-139015114D02*
X150340225Y-138872257D01*
X150340225Y-138872257D02*
X150197368Y-138800828D01*
X150197368Y-138800828D02*
X149911654Y-138800828D01*
X149911654Y-138800828D02*
X149768796Y-138872257D01*
X150411654Y-139729400D02*
X150268796Y-139800828D01*
X150268796Y-139800828D02*
X149911654Y-139800828D01*
X149911654Y-139800828D02*
X149768796Y-139729400D01*
X149768796Y-139729400D02*
X149697368Y-139586542D01*
X149697368Y-139586542D02*
X149697368Y-139443685D01*
X149697368Y-139443685D02*
X149768796Y-139300828D01*
X149768796Y-139300828D02*
X149911654Y-139229400D01*
X149911654Y-139229400D02*
X150268796Y-139229400D01*
X150268796Y-139229400D02*
X150411654Y-139157971D01*
X150911654Y-138800828D02*
X151483082Y-138800828D01*
X151125939Y-138300828D02*
X151125939Y-139586542D01*
X151125939Y-139586542D02*
X151197368Y-139729400D01*
X151197368Y-139729400D02*
X151340225Y-139800828D01*
X151340225Y-139800828D02*
X151483082Y-139800828D01*
X152554511Y-139729400D02*
X152411654Y-139800828D01*
X152411654Y-139800828D02*
X152125940Y-139800828D01*
X152125940Y-139800828D02*
X151983082Y-139729400D01*
X151983082Y-139729400D02*
X151911654Y-139586542D01*
X151911654Y-139586542D02*
X151911654Y-139015114D01*
X151911654Y-139015114D02*
X151983082Y-138872257D01*
X151983082Y-138872257D02*
X152125940Y-138800828D01*
X152125940Y-138800828D02*
X152411654Y-138800828D01*
X152411654Y-138800828D02*
X152554511Y-138872257D01*
X152554511Y-138872257D02*
X152625940Y-139015114D01*
X152625940Y-139015114D02*
X152625940Y-139157971D01*
X152625940Y-139157971D02*
X151911654Y-139300828D01*
X153268796Y-139800828D02*
X153268796Y-138800828D01*
X153268796Y-139086542D02*
X153340225Y-138943685D01*
X153340225Y-138943685D02*
X153411654Y-138872257D01*
X153411654Y-138872257D02*
X153554511Y-138800828D01*
X153554511Y-138800828D02*
X153697368Y-138800828D01*
X155268796Y-139729400D02*
X155483082Y-139800828D01*
X155483082Y-139800828D02*
X155840224Y-139800828D01*
X155840224Y-139800828D02*
X155983082Y-139729400D01*
X155983082Y-139729400D02*
X156054510Y-139657971D01*
X156054510Y-139657971D02*
X156125939Y-139515114D01*
X156125939Y-139515114D02*
X156125939Y-139372257D01*
X156125939Y-139372257D02*
X156054510Y-139229400D01*
X156054510Y-139229400D02*
X155983082Y-139157971D01*
X155983082Y-139157971D02*
X155840224Y-139086542D01*
X155840224Y-139086542D02*
X155554510Y-139015114D01*
X155554510Y-139015114D02*
X155411653Y-138943685D01*
X155411653Y-138943685D02*
X155340224Y-138872257D01*
X155340224Y-138872257D02*
X155268796Y-138729400D01*
X155268796Y-138729400D02*
X155268796Y-138586542D01*
X155268796Y-138586542D02*
X155340224Y-138443685D01*
X155340224Y-138443685D02*
X155411653Y-138372257D01*
X155411653Y-138372257D02*
X155554510Y-138300828D01*
X155554510Y-138300828D02*
X155911653Y-138300828D01*
X155911653Y-138300828D02*
X156125939Y-138372257D01*
X157340224Y-139729400D02*
X157197367Y-139800828D01*
X157197367Y-139800828D02*
X156911653Y-139800828D01*
X156911653Y-139800828D02*
X156768795Y-139729400D01*
X156768795Y-139729400D02*
X156697367Y-139586542D01*
X156697367Y-139586542D02*
X156697367Y-139015114D01*
X156697367Y-139015114D02*
X156768795Y-138872257D01*
X156768795Y-138872257D02*
X156911653Y-138800828D01*
X156911653Y-138800828D02*
X157197367Y-138800828D01*
X157197367Y-138800828D02*
X157340224Y-138872257D01*
X157340224Y-138872257D02*
X157411653Y-139015114D01*
X157411653Y-139015114D02*
X157411653Y-139157971D01*
X157411653Y-139157971D02*
X156697367Y-139300828D01*
X158054509Y-138800828D02*
X158054509Y-139800828D01*
X158054509Y-138943685D02*
X158125938Y-138872257D01*
X158125938Y-138872257D02*
X158268795Y-138800828D01*
X158268795Y-138800828D02*
X158483081Y-138800828D01*
X158483081Y-138800828D02*
X158625938Y-138872257D01*
X158625938Y-138872257D02*
X158697367Y-139015114D01*
X158697367Y-139015114D02*
X158697367Y-139800828D01*
X159340224Y-139729400D02*
X159483081Y-139800828D01*
X159483081Y-139800828D02*
X159768795Y-139800828D01*
X159768795Y-139800828D02*
X159911652Y-139729400D01*
X159911652Y-139729400D02*
X159983081Y-139586542D01*
X159983081Y-139586542D02*
X159983081Y-139515114D01*
X159983081Y-139515114D02*
X159911652Y-139372257D01*
X159911652Y-139372257D02*
X159768795Y-139300828D01*
X159768795Y-139300828D02*
X159554510Y-139300828D01*
X159554510Y-139300828D02*
X159411652Y-139229400D01*
X159411652Y-139229400D02*
X159340224Y-139086542D01*
X159340224Y-139086542D02*
X159340224Y-139015114D01*
X159340224Y-139015114D02*
X159411652Y-138872257D01*
X159411652Y-138872257D02*
X159554510Y-138800828D01*
X159554510Y-138800828D02*
X159768795Y-138800828D01*
X159768795Y-138800828D02*
X159911652Y-138872257D01*
X160840224Y-139800828D02*
X160697367Y-139729400D01*
X160697367Y-139729400D02*
X160625938Y-139657971D01*
X160625938Y-139657971D02*
X160554510Y-139515114D01*
X160554510Y-139515114D02*
X160554510Y-139086542D01*
X160554510Y-139086542D02*
X160625938Y-138943685D01*
X160625938Y-138943685D02*
X160697367Y-138872257D01*
X160697367Y-138872257D02*
X160840224Y-138800828D01*
X160840224Y-138800828D02*
X161054510Y-138800828D01*
X161054510Y-138800828D02*
X161197367Y-138872257D01*
X161197367Y-138872257D02*
X161268796Y-138943685D01*
X161268796Y-138943685D02*
X161340224Y-139086542D01*
X161340224Y-139086542D02*
X161340224Y-139515114D01*
X161340224Y-139515114D02*
X161268796Y-139657971D01*
X161268796Y-139657971D02*
X161197367Y-139729400D01*
X161197367Y-139729400D02*
X161054510Y-139800828D01*
X161054510Y-139800828D02*
X160840224Y-139800828D01*
X161983081Y-139800828D02*
X161983081Y-138800828D01*
X161983081Y-139086542D02*
X162054510Y-138943685D01*
X162054510Y-138943685D02*
X162125939Y-138872257D01*
X162125939Y-138872257D02*
X162268796Y-138800828D01*
X162268796Y-138800828D02*
X162411653Y-138800828D01*
X113500001Y-52872257D02*
X114214287Y-52872257D01*
X113357144Y-53300828D02*
X113857144Y-51800828D01*
X113857144Y-51800828D02*
X114357144Y-53300828D01*
X114857143Y-51800828D02*
X114857143Y-53015114D01*
X114857143Y-53015114D02*
X114928572Y-53157971D01*
X114928572Y-53157971D02*
X115000001Y-53229400D01*
X115000001Y-53229400D02*
X115142858Y-53300828D01*
X115142858Y-53300828D02*
X115428572Y-53300828D01*
X115428572Y-53300828D02*
X115571429Y-53229400D01*
X115571429Y-53229400D02*
X115642858Y-53157971D01*
X115642858Y-53157971D02*
X115714286Y-53015114D01*
X115714286Y-53015114D02*
X115714286Y-51800828D01*
X116285715Y-51800828D02*
X117285715Y-53300828D01*
X117285715Y-51800828D02*
X116285715Y-53300828D01*
X119785715Y-53300828D02*
X118928572Y-53300828D01*
X119357143Y-53300828D02*
X119357143Y-51800828D01*
X119357143Y-51800828D02*
X119214286Y-52015114D01*
X119214286Y-52015114D02*
X119071429Y-52157971D01*
X119071429Y-52157971D02*
X118928572Y-52229400D01*
X120357143Y-51943685D02*
X120428571Y-51872257D01*
X120428571Y-51872257D02*
X120571429Y-51800828D01*
X120571429Y-51800828D02*
X120928571Y-51800828D01*
X120928571Y-51800828D02*
X121071429Y-51872257D01*
X121071429Y-51872257D02*
X121142857Y-51943685D01*
X121142857Y-51943685D02*
X121214286Y-52086542D01*
X121214286Y-52086542D02*
X121214286Y-52229400D01*
X121214286Y-52229400D02*
X121142857Y-52443685D01*
X121142857Y-52443685D02*
X120285714Y-53300828D01*
X120285714Y-53300828D02*
X121214286Y-53300828D01*
X121642857Y-51800828D02*
X122142857Y-53300828D01*
X122142857Y-53300828D02*
X122642857Y-51800828D01*
X149214286Y-52872257D02*
X149928572Y-52872257D01*
X149071429Y-53300828D02*
X149571429Y-51800828D01*
X149571429Y-51800828D02*
X150071429Y-53300828D01*
X150571428Y-51800828D02*
X150571428Y-53015114D01*
X150571428Y-53015114D02*
X150642857Y-53157971D01*
X150642857Y-53157971D02*
X150714286Y-53229400D01*
X150714286Y-53229400D02*
X150857143Y-53300828D01*
X150857143Y-53300828D02*
X151142857Y-53300828D01*
X151142857Y-53300828D02*
X151285714Y-53229400D01*
X151285714Y-53229400D02*
X151357143Y-53157971D01*
X151357143Y-53157971D02*
X151428571Y-53015114D01*
X151428571Y-53015114D02*
X151428571Y-51800828D01*
X152000000Y-51800828D02*
X153000000Y-53300828D01*
X153000000Y-51800828D02*
X152000000Y-53300828D01*
X155428571Y-51800828D02*
X154714285Y-51800828D01*
X154714285Y-51800828D02*
X154642857Y-52515114D01*
X154642857Y-52515114D02*
X154714285Y-52443685D01*
X154714285Y-52443685D02*
X154857143Y-52372257D01*
X154857143Y-52372257D02*
X155214285Y-52372257D01*
X155214285Y-52372257D02*
X155357143Y-52443685D01*
X155357143Y-52443685D02*
X155428571Y-52515114D01*
X155428571Y-52515114D02*
X155500000Y-52657971D01*
X155500000Y-52657971D02*
X155500000Y-53015114D01*
X155500000Y-53015114D02*
X155428571Y-53157971D01*
X155428571Y-53157971D02*
X155357143Y-53229400D01*
X155357143Y-53229400D02*
X155214285Y-53300828D01*
X155214285Y-53300828D02*
X154857143Y-53300828D01*
X154857143Y-53300828D02*
X154714285Y-53229400D01*
X154714285Y-53229400D02*
X154642857Y-53157971D01*
X155928571Y-51800828D02*
X156428571Y-53300828D01*
X156428571Y-53300828D02*
X156928571Y-51800828D01*
X73554510Y-118800828D02*
X73554510Y-117300828D01*
X73554510Y-117300828D02*
X74054510Y-118372257D01*
X74054510Y-118372257D02*
X74554510Y-117300828D01*
X74554510Y-117300828D02*
X74554510Y-118800828D01*
X75554511Y-117300828D02*
X75840225Y-117300828D01*
X75840225Y-117300828D02*
X75983082Y-117372257D01*
X75983082Y-117372257D02*
X76125939Y-117515114D01*
X76125939Y-117515114D02*
X76197368Y-117800828D01*
X76197368Y-117800828D02*
X76197368Y-118300828D01*
X76197368Y-118300828D02*
X76125939Y-118586542D01*
X76125939Y-118586542D02*
X75983082Y-118729400D01*
X75983082Y-118729400D02*
X75840225Y-118800828D01*
X75840225Y-118800828D02*
X75554511Y-118800828D01*
X75554511Y-118800828D02*
X75411654Y-118729400D01*
X75411654Y-118729400D02*
X75268796Y-118586542D01*
X75268796Y-118586542D02*
X75197368Y-118300828D01*
X75197368Y-118300828D02*
X75197368Y-117800828D01*
X75197368Y-117800828D02*
X75268796Y-117515114D01*
X75268796Y-117515114D02*
X75411654Y-117372257D01*
X75411654Y-117372257D02*
X75554511Y-117300828D01*
X76625940Y-117300828D02*
X77483083Y-117300828D01*
X77054511Y-118800828D02*
X77054511Y-117300828D01*
X78268797Y-117300828D02*
X78554511Y-117300828D01*
X78554511Y-117300828D02*
X78697368Y-117372257D01*
X78697368Y-117372257D02*
X78840225Y-117515114D01*
X78840225Y-117515114D02*
X78911654Y-117800828D01*
X78911654Y-117800828D02*
X78911654Y-118300828D01*
X78911654Y-118300828D02*
X78840225Y-118586542D01*
X78840225Y-118586542D02*
X78697368Y-118729400D01*
X78697368Y-118729400D02*
X78554511Y-118800828D01*
X78554511Y-118800828D02*
X78268797Y-118800828D01*
X78268797Y-118800828D02*
X78125940Y-118729400D01*
X78125940Y-118729400D02*
X77983082Y-118586542D01*
X77983082Y-118586542D02*
X77911654Y-118300828D01*
X77911654Y-118300828D02*
X77911654Y-117800828D01*
X77911654Y-117800828D02*
X77983082Y-117515114D01*
X77983082Y-117515114D02*
X78125940Y-117372257D01*
X78125940Y-117372257D02*
X78268797Y-117300828D01*
X80411654Y-118800828D02*
X79911654Y-118086542D01*
X79554511Y-118800828D02*
X79554511Y-117300828D01*
X79554511Y-117300828D02*
X80125940Y-117300828D01*
X80125940Y-117300828D02*
X80268797Y-117372257D01*
X80268797Y-117372257D02*
X80340226Y-117443685D01*
X80340226Y-117443685D02*
X80411654Y-117586542D01*
X80411654Y-117586542D02*
X80411654Y-117800828D01*
X80411654Y-117800828D02*
X80340226Y-117943685D01*
X80340226Y-117943685D02*
X80268797Y-118015114D01*
X80268797Y-118015114D02*
X80125940Y-118086542D01*
X80125940Y-118086542D02*
X79554511Y-118086542D01*
X51983082Y-88229400D02*
X52197368Y-88300828D01*
X52197368Y-88300828D02*
X52554510Y-88300828D01*
X52554510Y-88300828D02*
X52697368Y-88229400D01*
X52697368Y-88229400D02*
X52768796Y-88157971D01*
X52768796Y-88157971D02*
X52840225Y-88015114D01*
X52840225Y-88015114D02*
X52840225Y-87872257D01*
X52840225Y-87872257D02*
X52768796Y-87729400D01*
X52768796Y-87729400D02*
X52697368Y-87657971D01*
X52697368Y-87657971D02*
X52554510Y-87586542D01*
X52554510Y-87586542D02*
X52268796Y-87515114D01*
X52268796Y-87515114D02*
X52125939Y-87443685D01*
X52125939Y-87443685D02*
X52054510Y-87372257D01*
X52054510Y-87372257D02*
X51983082Y-87229400D01*
X51983082Y-87229400D02*
X51983082Y-87086542D01*
X51983082Y-87086542D02*
X52054510Y-86943685D01*
X52054510Y-86943685D02*
X52125939Y-86872257D01*
X52125939Y-86872257D02*
X52268796Y-86800828D01*
X52268796Y-86800828D02*
X52625939Y-86800828D01*
X52625939Y-86800828D02*
X52840225Y-86872257D01*
X53268796Y-86800828D02*
X54125939Y-86800828D01*
X53697367Y-88300828D02*
X53697367Y-86800828D01*
X54625938Y-87515114D02*
X55125938Y-87515114D01*
X55340224Y-88300828D02*
X54625938Y-88300828D01*
X54625938Y-88300828D02*
X54625938Y-86800828D01*
X54625938Y-86800828D02*
X55340224Y-86800828D01*
X55983081Y-88300828D02*
X55983081Y-86800828D01*
X55983081Y-86800828D02*
X56483081Y-87872257D01*
X56483081Y-87872257D02*
X56983081Y-86800828D01*
X56983081Y-86800828D02*
X56983081Y-88300828D01*
X57697367Y-88300828D02*
X57697367Y-86800828D01*
X57697367Y-86800828D02*
X58197367Y-87872257D01*
X58197367Y-87872257D02*
X58697367Y-86800828D01*
X58697367Y-86800828D02*
X58697367Y-88300828D01*
X59340225Y-87872257D02*
X60054511Y-87872257D01*
X59197368Y-88300828D02*
X59697368Y-86800828D01*
X59697368Y-86800828D02*
X60197368Y-88300828D01*
X62840224Y-88443685D02*
X62697367Y-88372257D01*
X62697367Y-88372257D02*
X62554510Y-88229400D01*
X62554510Y-88229400D02*
X62340224Y-88015114D01*
X62340224Y-88015114D02*
X62197367Y-87943685D01*
X62197367Y-87943685D02*
X62054510Y-87943685D01*
X62125939Y-88300828D02*
X61983082Y-88229400D01*
X61983082Y-88229400D02*
X61840224Y-88086542D01*
X61840224Y-88086542D02*
X61768796Y-87800828D01*
X61768796Y-87800828D02*
X61768796Y-87300828D01*
X61768796Y-87300828D02*
X61840224Y-87015114D01*
X61840224Y-87015114D02*
X61983082Y-86872257D01*
X61983082Y-86872257D02*
X62125939Y-86800828D01*
X62125939Y-86800828D02*
X62411653Y-86800828D01*
X62411653Y-86800828D02*
X62554510Y-86872257D01*
X62554510Y-86872257D02*
X62697367Y-87015114D01*
X62697367Y-87015114D02*
X62768796Y-87300828D01*
X62768796Y-87300828D02*
X62768796Y-87800828D01*
X62768796Y-87800828D02*
X62697367Y-88086542D01*
X62697367Y-88086542D02*
X62554510Y-88229400D01*
X62554510Y-88229400D02*
X62411653Y-88300828D01*
X62411653Y-88300828D02*
X62125939Y-88300828D01*
X63197368Y-86800828D02*
X64054511Y-86800828D01*
X63625939Y-88300828D02*
X63625939Y-86800828D01*
X55054510Y-134300828D02*
X55054510Y-132800828D01*
X55054510Y-132800828D02*
X55554510Y-133872257D01*
X55554510Y-133872257D02*
X56054510Y-132800828D01*
X56054510Y-132800828D02*
X56054510Y-134300828D01*
X56983082Y-134300828D02*
X56840225Y-134229400D01*
X56840225Y-134229400D02*
X56768796Y-134157971D01*
X56768796Y-134157971D02*
X56697368Y-134015114D01*
X56697368Y-134015114D02*
X56697368Y-133586542D01*
X56697368Y-133586542D02*
X56768796Y-133443685D01*
X56768796Y-133443685D02*
X56840225Y-133372257D01*
X56840225Y-133372257D02*
X56983082Y-133300828D01*
X56983082Y-133300828D02*
X57197368Y-133300828D01*
X57197368Y-133300828D02*
X57340225Y-133372257D01*
X57340225Y-133372257D02*
X57411654Y-133443685D01*
X57411654Y-133443685D02*
X57483082Y-133586542D01*
X57483082Y-133586542D02*
X57483082Y-134015114D01*
X57483082Y-134015114D02*
X57411654Y-134157971D01*
X57411654Y-134157971D02*
X57340225Y-134229400D01*
X57340225Y-134229400D02*
X57197368Y-134300828D01*
X57197368Y-134300828D02*
X56983082Y-134300828D01*
X57911654Y-133300828D02*
X58483082Y-133300828D01*
X58125939Y-132800828D02*
X58125939Y-134086542D01*
X58125939Y-134086542D02*
X58197368Y-134229400D01*
X58197368Y-134229400D02*
X58340225Y-134300828D01*
X58340225Y-134300828D02*
X58483082Y-134300828D01*
X59197368Y-134300828D02*
X59054511Y-134229400D01*
X59054511Y-134229400D02*
X58983082Y-134157971D01*
X58983082Y-134157971D02*
X58911654Y-134015114D01*
X58911654Y-134015114D02*
X58911654Y-133586542D01*
X58911654Y-133586542D02*
X58983082Y-133443685D01*
X58983082Y-133443685D02*
X59054511Y-133372257D01*
X59054511Y-133372257D02*
X59197368Y-133300828D01*
X59197368Y-133300828D02*
X59411654Y-133300828D01*
X59411654Y-133300828D02*
X59554511Y-133372257D01*
X59554511Y-133372257D02*
X59625940Y-133443685D01*
X59625940Y-133443685D02*
X59697368Y-133586542D01*
X59697368Y-133586542D02*
X59697368Y-134015114D01*
X59697368Y-134015114D02*
X59625940Y-134157971D01*
X59625940Y-134157971D02*
X59554511Y-134229400D01*
X59554511Y-134229400D02*
X59411654Y-134300828D01*
X59411654Y-134300828D02*
X59197368Y-134300828D01*
X60340225Y-134300828D02*
X60340225Y-133300828D01*
X60340225Y-133586542D02*
X60411654Y-133443685D01*
X60411654Y-133443685D02*
X60483083Y-133372257D01*
X60483083Y-133372257D02*
X60625940Y-133300828D01*
X60625940Y-133300828D02*
X60768797Y-133300828D01*
X62697368Y-132800828D02*
X62983082Y-132800828D01*
X62983082Y-132800828D02*
X63125939Y-132872257D01*
X63125939Y-132872257D02*
X63268796Y-133015114D01*
X63268796Y-133015114D02*
X63340225Y-133300828D01*
X63340225Y-133300828D02*
X63340225Y-133800828D01*
X63340225Y-133800828D02*
X63268796Y-134086542D01*
X63268796Y-134086542D02*
X63125939Y-134229400D01*
X63125939Y-134229400D02*
X62983082Y-134300828D01*
X62983082Y-134300828D02*
X62697368Y-134300828D01*
X62697368Y-134300828D02*
X62554511Y-134229400D01*
X62554511Y-134229400D02*
X62411653Y-134086542D01*
X62411653Y-134086542D02*
X62340225Y-133800828D01*
X62340225Y-133800828D02*
X62340225Y-133300828D01*
X62340225Y-133300828D02*
X62411653Y-133015114D01*
X62411653Y-133015114D02*
X62554511Y-132872257D01*
X62554511Y-132872257D02*
X62697368Y-132800828D01*
X64625940Y-133300828D02*
X64625940Y-134300828D01*
X63983082Y-133300828D02*
X63983082Y-134086542D01*
X63983082Y-134086542D02*
X64054511Y-134229400D01*
X64054511Y-134229400D02*
X64197368Y-134300828D01*
X64197368Y-134300828D02*
X64411654Y-134300828D01*
X64411654Y-134300828D02*
X64554511Y-134229400D01*
X64554511Y-134229400D02*
X64625940Y-134157971D01*
X65125940Y-133300828D02*
X65697368Y-133300828D01*
X65340225Y-132800828D02*
X65340225Y-134086542D01*
X65340225Y-134086542D02*
X65411654Y-134229400D01*
X65411654Y-134229400D02*
X65554511Y-134300828D01*
X65554511Y-134300828D02*
X65697368Y-134300828D01*
X98178328Y-126714284D02*
X98178328Y-127571427D01*
X98178328Y-127142856D02*
X96678328Y-127142856D01*
X96678328Y-127142856D02*
X96892614Y-127285713D01*
X96892614Y-127285713D02*
X97035471Y-127428570D01*
X97035471Y-127428570D02*
X97106900Y-127571427D01*
X98178328Y-126071428D02*
X96678328Y-126071428D01*
X96678328Y-126071428D02*
X98178328Y-125214285D01*
X98178328Y-125214285D02*
X96678328Y-125214285D01*
X97178328Y-123857142D02*
X98178328Y-123857142D01*
X96606900Y-124214284D02*
X97678328Y-124571427D01*
X97678328Y-124571427D02*
X97678328Y-123642856D01*
X96678328Y-122785713D02*
X96678328Y-122642856D01*
X96678328Y-122642856D02*
X96749757Y-122499999D01*
X96749757Y-122499999D02*
X96821185Y-122428571D01*
X96821185Y-122428571D02*
X96964042Y-122357142D01*
X96964042Y-122357142D02*
X97249757Y-122285713D01*
X97249757Y-122285713D02*
X97606900Y-122285713D01*
X97606900Y-122285713D02*
X97892614Y-122357142D01*
X97892614Y-122357142D02*
X98035471Y-122428571D01*
X98035471Y-122428571D02*
X98106900Y-122499999D01*
X98106900Y-122499999D02*
X98178328Y-122642856D01*
X98178328Y-122642856D02*
X98178328Y-122785713D01*
X98178328Y-122785713D02*
X98106900Y-122928571D01*
X98106900Y-122928571D02*
X98035471Y-122999999D01*
X98035471Y-122999999D02*
X97892614Y-123071428D01*
X97892614Y-123071428D02*
X97606900Y-123142856D01*
X97606900Y-123142856D02*
X97249757Y-123142856D01*
X97249757Y-123142856D02*
X96964042Y-123071428D01*
X96964042Y-123071428D02*
X96821185Y-122999999D01*
X96821185Y-122999999D02*
X96749757Y-122928571D01*
X96749757Y-122928571D02*
X96678328Y-122785713D01*
X96678328Y-121357142D02*
X96678328Y-121214285D01*
X96678328Y-121214285D02*
X96749757Y-121071428D01*
X96749757Y-121071428D02*
X96821185Y-121000000D01*
X96821185Y-121000000D02*
X96964042Y-120928571D01*
X96964042Y-120928571D02*
X97249757Y-120857142D01*
X97249757Y-120857142D02*
X97606900Y-120857142D01*
X97606900Y-120857142D02*
X97892614Y-120928571D01*
X97892614Y-120928571D02*
X98035471Y-121000000D01*
X98035471Y-121000000D02*
X98106900Y-121071428D01*
X98106900Y-121071428D02*
X98178328Y-121214285D01*
X98178328Y-121214285D02*
X98178328Y-121357142D01*
X98178328Y-121357142D02*
X98106900Y-121500000D01*
X98106900Y-121500000D02*
X98035471Y-121571428D01*
X98035471Y-121571428D02*
X97892614Y-121642857D01*
X97892614Y-121642857D02*
X97606900Y-121714285D01*
X97606900Y-121714285D02*
X97249757Y-121714285D01*
X97249757Y-121714285D02*
X96964042Y-121642857D01*
X96964042Y-121642857D02*
X96821185Y-121571428D01*
X96821185Y-121571428D02*
X96749757Y-121500000D01*
X96749757Y-121500000D02*
X96678328Y-121357142D01*
X96678328Y-120357143D02*
X96678328Y-119357143D01*
X96678328Y-119357143D02*
X98178328Y-120000000D01*
X84554510Y-118229400D02*
X85697368Y-118229400D01*
X87554510Y-118800828D02*
X87554510Y-117300828D01*
X87554510Y-117300828D02*
X88125939Y-117300828D01*
X88125939Y-117300828D02*
X88268796Y-117372257D01*
X88268796Y-117372257D02*
X88340225Y-117443685D01*
X88340225Y-117443685D02*
X88411653Y-117586542D01*
X88411653Y-117586542D02*
X88411653Y-117800828D01*
X88411653Y-117800828D02*
X88340225Y-117943685D01*
X88340225Y-117943685D02*
X88268796Y-118015114D01*
X88268796Y-118015114D02*
X88125939Y-118086542D01*
X88125939Y-118086542D02*
X87554510Y-118086542D01*
X88911653Y-117300828D02*
X89268796Y-118800828D01*
X89268796Y-118800828D02*
X89554510Y-117729400D01*
X89554510Y-117729400D02*
X89840225Y-118800828D01*
X89840225Y-118800828D02*
X90197368Y-117300828D01*
X91625939Y-118800828D02*
X91125939Y-118086542D01*
X90768796Y-118800828D02*
X90768796Y-117300828D01*
X90768796Y-117300828D02*
X91340225Y-117300828D01*
X91340225Y-117300828D02*
X91483082Y-117372257D01*
X91483082Y-117372257D02*
X91554511Y-117443685D01*
X91554511Y-117443685D02*
X91625939Y-117586542D01*
X91625939Y-117586542D02*
X91625939Y-117800828D01*
X91625939Y-117800828D02*
X91554511Y-117943685D01*
X91554511Y-117943685D02*
X91483082Y-118015114D01*
X91483082Y-118015114D02*
X91340225Y-118086542D01*
X91340225Y-118086542D02*
X90768796Y-118086542D01*
X93411653Y-118229400D02*
X94554511Y-118229400D01*
X93983082Y-118800828D02*
X93983082Y-117657971D01*
X152340225Y-127800828D02*
X151483082Y-127800828D01*
X151911653Y-127800828D02*
X151911653Y-126300828D01*
X151911653Y-126300828D02*
X151768796Y-126515114D01*
X151768796Y-126515114D02*
X151625939Y-126657971D01*
X151625939Y-126657971D02*
X151483082Y-126729400D01*
X153268796Y-126300828D02*
X153411653Y-126300828D01*
X153411653Y-126300828D02*
X153554510Y-126372257D01*
X153554510Y-126372257D02*
X153625939Y-126443685D01*
X153625939Y-126443685D02*
X153697367Y-126586542D01*
X153697367Y-126586542D02*
X153768796Y-126872257D01*
X153768796Y-126872257D02*
X153768796Y-127229400D01*
X153768796Y-127229400D02*
X153697367Y-127515114D01*
X153697367Y-127515114D02*
X153625939Y-127657971D01*
X153625939Y-127657971D02*
X153554510Y-127729400D01*
X153554510Y-127729400D02*
X153411653Y-127800828D01*
X153411653Y-127800828D02*
X153268796Y-127800828D01*
X153268796Y-127800828D02*
X153125939Y-127729400D01*
X153125939Y-127729400D02*
X153054510Y-127657971D01*
X153054510Y-127657971D02*
X152983081Y-127515114D01*
X152983081Y-127515114D02*
X152911653Y-127229400D01*
X152911653Y-127229400D02*
X152911653Y-126872257D01*
X152911653Y-126872257D02*
X152983081Y-126586542D01*
X152983081Y-126586542D02*
X153054510Y-126443685D01*
X153054510Y-126443685D02*
X153125939Y-126372257D01*
X153125939Y-126372257D02*
X153268796Y-126300828D01*
X154411652Y-127800828D02*
X154411652Y-126300828D01*
X155268795Y-127800828D02*
X154625938Y-126943685D01*
X155268795Y-126300828D02*
X154411652Y-127157971D01*
X155840224Y-127800828D02*
X156197367Y-127800828D01*
X156197367Y-127800828D02*
X156197367Y-127515114D01*
X156197367Y-127515114D02*
X156054510Y-127443685D01*
X156054510Y-127443685D02*
X155911652Y-127300828D01*
X155911652Y-127300828D02*
X155840224Y-127086542D01*
X155840224Y-127086542D02*
X155840224Y-126729400D01*
X155840224Y-126729400D02*
X155911652Y-126515114D01*
X155911652Y-126515114D02*
X156054510Y-126372257D01*
X156054510Y-126372257D02*
X156268795Y-126300828D01*
X156268795Y-126300828D02*
X156554510Y-126300828D01*
X156554510Y-126300828D02*
X156768795Y-126372257D01*
X156768795Y-126372257D02*
X156911652Y-126515114D01*
X156911652Y-126515114D02*
X156983081Y-126729400D01*
X156983081Y-126729400D02*
X156983081Y-127086542D01*
X156983081Y-127086542D02*
X156911652Y-127300828D01*
X156911652Y-127300828D02*
X156768795Y-127443685D01*
X156768795Y-127443685D02*
X156625938Y-127515114D01*
X156625938Y-127515114D02*
X156625938Y-127800828D01*
X156625938Y-127800828D02*
X156983081Y-127800828D01*
D14*
X58984805Y-48110023D02*
X58794329Y-48300500D01*
X58794329Y-48300500D02*
X58222900Y-48490976D01*
X58222900Y-48490976D02*
X57841948Y-48490976D01*
X57841948Y-48490976D02*
X57270519Y-48300500D01*
X57270519Y-48300500D02*
X56889567Y-47919547D01*
X56889567Y-47919547D02*
X56699090Y-47538595D01*
X56699090Y-47538595D02*
X56508614Y-46776690D01*
X56508614Y-46776690D02*
X56508614Y-46205261D01*
X56508614Y-46205261D02*
X56699090Y-45443357D01*
X56699090Y-45443357D02*
X56889567Y-45062404D01*
X56889567Y-45062404D02*
X57270519Y-44681452D01*
X57270519Y-44681452D02*
X57841948Y-44490976D01*
X57841948Y-44490976D02*
X58222900Y-44490976D01*
X58222900Y-44490976D02*
X58794329Y-44681452D01*
X58794329Y-44681452D02*
X58984805Y-44871928D01*
X62413376Y-48490976D02*
X62413376Y-46395738D01*
X62413376Y-46395738D02*
X62222900Y-46014785D01*
X62222900Y-46014785D02*
X61841948Y-45824309D01*
X61841948Y-45824309D02*
X61080043Y-45824309D01*
X61080043Y-45824309D02*
X60699090Y-46014785D01*
X62413376Y-48300500D02*
X62032424Y-48490976D01*
X62032424Y-48490976D02*
X61080043Y-48490976D01*
X61080043Y-48490976D02*
X60699090Y-48300500D01*
X60699090Y-48300500D02*
X60508614Y-47919547D01*
X60508614Y-47919547D02*
X60508614Y-47538595D01*
X60508614Y-47538595D02*
X60699090Y-47157642D01*
X60699090Y-47157642D02*
X61080043Y-46967166D01*
X61080043Y-46967166D02*
X62032424Y-46967166D01*
X62032424Y-46967166D02*
X62413376Y-46776690D01*
X64318138Y-45824309D02*
X64318138Y-48490976D01*
X64318138Y-46205261D02*
X64508615Y-46014785D01*
X64508615Y-46014785D02*
X64889567Y-45824309D01*
X64889567Y-45824309D02*
X65460996Y-45824309D01*
X65460996Y-45824309D02*
X65841948Y-46014785D01*
X65841948Y-46014785D02*
X66032424Y-46395738D01*
X66032424Y-46395738D02*
X66032424Y-48490976D01*
X67937186Y-45824309D02*
X67937186Y-48490976D01*
X67937186Y-46205261D02*
X68127663Y-46014785D01*
X68127663Y-46014785D02*
X68508615Y-45824309D01*
X68508615Y-45824309D02*
X69080044Y-45824309D01*
X69080044Y-45824309D02*
X69460996Y-46014785D01*
X69460996Y-46014785D02*
X69651472Y-46395738D01*
X69651472Y-46395738D02*
X69651472Y-48490976D01*
X73270520Y-48490976D02*
X73270520Y-46395738D01*
X73270520Y-46395738D02*
X73080044Y-46014785D01*
X73080044Y-46014785D02*
X72699092Y-45824309D01*
X72699092Y-45824309D02*
X71937187Y-45824309D01*
X71937187Y-45824309D02*
X71556234Y-46014785D01*
X73270520Y-48300500D02*
X72889568Y-48490976D01*
X72889568Y-48490976D02*
X71937187Y-48490976D01*
X71937187Y-48490976D02*
X71556234Y-48300500D01*
X71556234Y-48300500D02*
X71365758Y-47919547D01*
X71365758Y-47919547D02*
X71365758Y-47538595D01*
X71365758Y-47538595D02*
X71556234Y-47157642D01*
X71556234Y-47157642D02*
X71937187Y-46967166D01*
X71937187Y-46967166D02*
X72889568Y-46967166D01*
X72889568Y-46967166D02*
X73270520Y-46776690D01*
X74794330Y-45824309D02*
X75556235Y-48490976D01*
X75556235Y-48490976D02*
X76318140Y-46586214D01*
X76318140Y-46586214D02*
X77080044Y-48490976D01*
X77080044Y-48490976D02*
X77841949Y-45824309D01*
X79365758Y-48490976D02*
X79365758Y-45824309D01*
X79365758Y-44490976D02*
X79175282Y-44681452D01*
X79175282Y-44681452D02*
X79365758Y-44871928D01*
X79365758Y-44871928D02*
X79556235Y-44681452D01*
X79556235Y-44681452D02*
X79365758Y-44490976D01*
X79365758Y-44490976D02*
X79365758Y-44871928D01*
X81270520Y-48490976D02*
X81270520Y-44490976D01*
X81651473Y-46967166D02*
X82794330Y-48490976D01*
X82794330Y-45824309D02*
X81270520Y-47348119D01*
X84508615Y-48490976D02*
X84508615Y-45824309D01*
X84508615Y-44490976D02*
X84318139Y-44681452D01*
X84318139Y-44681452D02*
X84508615Y-44871928D01*
X84508615Y-44871928D02*
X84699092Y-44681452D01*
X84699092Y-44681452D02*
X84508615Y-44490976D01*
X84508615Y-44490976D02*
X84508615Y-44871928D01*
D12*
X168054510Y-50229400D02*
X169197368Y-50229400D01*
D11*
X106803884Y-114872419D02*
X106803884Y-113872419D01*
X106803884Y-114348609D02*
X107375312Y-114348609D01*
X107375312Y-114872419D02*
X107375312Y-113872419D01*
X108232455Y-114824800D02*
X108137217Y-114872419D01*
X108137217Y-114872419D02*
X107946741Y-114872419D01*
X107946741Y-114872419D02*
X107851503Y-114824800D01*
X107851503Y-114824800D02*
X107803884Y-114729561D01*
X107803884Y-114729561D02*
X107803884Y-114348609D01*
X107803884Y-114348609D02*
X107851503Y-114253371D01*
X107851503Y-114253371D02*
X107946741Y-114205752D01*
X107946741Y-114205752D02*
X108137217Y-114205752D01*
X108137217Y-114205752D02*
X108232455Y-114253371D01*
X108232455Y-114253371D02*
X108280074Y-114348609D01*
X108280074Y-114348609D02*
X108280074Y-114443847D01*
X108280074Y-114443847D02*
X107803884Y-114539085D01*
X109137217Y-114872419D02*
X109137217Y-114348609D01*
X109137217Y-114348609D02*
X109089598Y-114253371D01*
X109089598Y-114253371D02*
X108994360Y-114205752D01*
X108994360Y-114205752D02*
X108803884Y-114205752D01*
X108803884Y-114205752D02*
X108708646Y-114253371D01*
X109137217Y-114824800D02*
X109041979Y-114872419D01*
X109041979Y-114872419D02*
X108803884Y-114872419D01*
X108803884Y-114872419D02*
X108708646Y-114824800D01*
X108708646Y-114824800D02*
X108661027Y-114729561D01*
X108661027Y-114729561D02*
X108661027Y-114634323D01*
X108661027Y-114634323D02*
X108708646Y-114539085D01*
X108708646Y-114539085D02*
X108803884Y-114491466D01*
X108803884Y-114491466D02*
X109041979Y-114491466D01*
X109041979Y-114491466D02*
X109137217Y-114443847D01*
X109470551Y-114205752D02*
X109851503Y-114205752D01*
X109613408Y-113872419D02*
X109613408Y-114729561D01*
X109613408Y-114729561D02*
X109661027Y-114824800D01*
X109661027Y-114824800D02*
X109756265Y-114872419D01*
X109756265Y-114872419D02*
X109851503Y-114872419D01*
X110565789Y-114824800D02*
X110470551Y-114872419D01*
X110470551Y-114872419D02*
X110280075Y-114872419D01*
X110280075Y-114872419D02*
X110184837Y-114824800D01*
X110184837Y-114824800D02*
X110137218Y-114729561D01*
X110137218Y-114729561D02*
X110137218Y-114348609D01*
X110137218Y-114348609D02*
X110184837Y-114253371D01*
X110184837Y-114253371D02*
X110280075Y-114205752D01*
X110280075Y-114205752D02*
X110470551Y-114205752D01*
X110470551Y-114205752D02*
X110565789Y-114253371D01*
X110565789Y-114253371D02*
X110613408Y-114348609D01*
X110613408Y-114348609D02*
X110613408Y-114443847D01*
X110613408Y-114443847D02*
X110137218Y-114539085D01*
X111041980Y-114872419D02*
X111041980Y-114205752D01*
X111041980Y-114396228D02*
X111089599Y-114300990D01*
X111089599Y-114300990D02*
X111137218Y-114253371D01*
X111137218Y-114253371D02*
X111232456Y-114205752D01*
X111232456Y-114205752D02*
X111327694Y-114205752D01*
X112994361Y-114872419D02*
X112661028Y-114396228D01*
X112422933Y-114872419D02*
X112422933Y-113872419D01*
X112422933Y-113872419D02*
X112803885Y-113872419D01*
X112803885Y-113872419D02*
X112899123Y-113920038D01*
X112899123Y-113920038D02*
X112946742Y-113967657D01*
X112946742Y-113967657D02*
X112994361Y-114062895D01*
X112994361Y-114062895D02*
X112994361Y-114205752D01*
X112994361Y-114205752D02*
X112946742Y-114300990D01*
X112946742Y-114300990D02*
X112899123Y-114348609D01*
X112899123Y-114348609D02*
X112803885Y-114396228D01*
X112803885Y-114396228D02*
X112422933Y-114396228D01*
X113803885Y-114824800D02*
X113708647Y-114872419D01*
X113708647Y-114872419D02*
X113518171Y-114872419D01*
X113518171Y-114872419D02*
X113422933Y-114824800D01*
X113422933Y-114824800D02*
X113375314Y-114729561D01*
X113375314Y-114729561D02*
X113375314Y-114348609D01*
X113375314Y-114348609D02*
X113422933Y-114253371D01*
X113422933Y-114253371D02*
X113518171Y-114205752D01*
X113518171Y-114205752D02*
X113708647Y-114205752D01*
X113708647Y-114205752D02*
X113803885Y-114253371D01*
X113803885Y-114253371D02*
X113851504Y-114348609D01*
X113851504Y-114348609D02*
X113851504Y-114443847D01*
X113851504Y-114443847D02*
X113375314Y-114539085D01*
X114422933Y-114872419D02*
X114327695Y-114824800D01*
X114327695Y-114824800D02*
X114280076Y-114729561D01*
X114280076Y-114729561D02*
X114280076Y-113872419D01*
X115232457Y-114872419D02*
X115232457Y-114348609D01*
X115232457Y-114348609D02*
X115184838Y-114253371D01*
X115184838Y-114253371D02*
X115089600Y-114205752D01*
X115089600Y-114205752D02*
X114899124Y-114205752D01*
X114899124Y-114205752D02*
X114803886Y-114253371D01*
X115232457Y-114824800D02*
X115137219Y-114872419D01*
X115137219Y-114872419D02*
X114899124Y-114872419D01*
X114899124Y-114872419D02*
X114803886Y-114824800D01*
X114803886Y-114824800D02*
X114756267Y-114729561D01*
X114756267Y-114729561D02*
X114756267Y-114634323D01*
X114756267Y-114634323D02*
X114803886Y-114539085D01*
X114803886Y-114539085D02*
X114899124Y-114491466D01*
X114899124Y-114491466D02*
X115137219Y-114491466D01*
X115137219Y-114491466D02*
X115232457Y-114443847D01*
X115613410Y-114205752D02*
X115851505Y-114872419D01*
X116089600Y-114205752D02*
X115851505Y-114872419D01*
X115851505Y-114872419D02*
X115756267Y-115110514D01*
X115756267Y-115110514D02*
X115708648Y-115158133D01*
X115708648Y-115158133D02*
X115613410Y-115205752D01*
D12*
X73468796Y-133335912D02*
X72754510Y-133335912D01*
X72754510Y-133335912D02*
X72683082Y-134050198D01*
X72683082Y-134050198D02*
X72754510Y-133978769D01*
X72754510Y-133978769D02*
X72897368Y-133907341D01*
X72897368Y-133907341D02*
X73254510Y-133907341D01*
X73254510Y-133907341D02*
X73397368Y-133978769D01*
X73397368Y-133978769D02*
X73468796Y-134050198D01*
X73468796Y-134050198D02*
X73540225Y-134193055D01*
X73540225Y-134193055D02*
X73540225Y-134550198D01*
X73540225Y-134550198D02*
X73468796Y-134693055D01*
X73468796Y-134693055D02*
X73397368Y-134764484D01*
X73397368Y-134764484D02*
X73254510Y-134835912D01*
X73254510Y-134835912D02*
X72897368Y-134835912D01*
X72897368Y-134835912D02*
X72754510Y-134764484D01*
X72754510Y-134764484D02*
X72683082Y-134693055D01*
X74111653Y-134407341D02*
X74825939Y-134407341D01*
X73968796Y-134835912D02*
X74468796Y-133335912D01*
X74468796Y-133335912D02*
X74968796Y-134835912D01*
X77397367Y-134835912D02*
X76540224Y-134835912D01*
X76968795Y-134835912D02*
X76968795Y-133335912D01*
X76968795Y-133335912D02*
X76825938Y-133550198D01*
X76825938Y-133550198D02*
X76683081Y-133693055D01*
X76683081Y-133693055D02*
X76540224Y-133764484D01*
X77968795Y-133478769D02*
X78040223Y-133407341D01*
X78040223Y-133407341D02*
X78183081Y-133335912D01*
X78183081Y-133335912D02*
X78540223Y-133335912D01*
X78540223Y-133335912D02*
X78683081Y-133407341D01*
X78683081Y-133407341D02*
X78754509Y-133478769D01*
X78754509Y-133478769D02*
X78825938Y-133621626D01*
X78825938Y-133621626D02*
X78825938Y-133764484D01*
X78825938Y-133764484D02*
X78754509Y-133978769D01*
X78754509Y-133978769D02*
X77897366Y-134835912D01*
X77897366Y-134835912D02*
X78825938Y-134835912D01*
X79254509Y-133335912D02*
X79754509Y-134835912D01*
X79754509Y-134835912D02*
X80254509Y-133335912D01*
X81897365Y-134835912D02*
X81897365Y-133335912D01*
X82611651Y-133835912D02*
X82611651Y-134835912D01*
X82611651Y-133978769D02*
X82683080Y-133907341D01*
X82683080Y-133907341D02*
X82825937Y-133835912D01*
X82825937Y-133835912D02*
X83040223Y-133835912D01*
X83040223Y-133835912D02*
X83183080Y-133907341D01*
X83183080Y-133907341D02*
X83254509Y-134050198D01*
X83254509Y-134050198D02*
X83254509Y-134835912D01*
X132840225Y-134300828D02*
X131983082Y-134300828D01*
X132411653Y-134300828D02*
X132411653Y-132800828D01*
X132411653Y-132800828D02*
X132268796Y-133015114D01*
X132268796Y-133015114D02*
X132125939Y-133157971D01*
X132125939Y-133157971D02*
X131983082Y-133229400D01*
X133411653Y-132943685D02*
X133483081Y-132872257D01*
X133483081Y-132872257D02*
X133625939Y-132800828D01*
X133625939Y-132800828D02*
X133983081Y-132800828D01*
X133983081Y-132800828D02*
X134125939Y-132872257D01*
X134125939Y-132872257D02*
X134197367Y-132943685D01*
X134197367Y-132943685D02*
X134268796Y-133086542D01*
X134268796Y-133086542D02*
X134268796Y-133229400D01*
X134268796Y-133229400D02*
X134197367Y-133443685D01*
X134197367Y-133443685D02*
X133340224Y-134300828D01*
X133340224Y-134300828D02*
X134268796Y-134300828D01*
X134697367Y-132800828D02*
X135197367Y-134300828D01*
X135197367Y-134300828D02*
X135697367Y-132800828D01*
X137340223Y-134300828D02*
X137340223Y-132800828D01*
X138054509Y-133300828D02*
X138054509Y-134300828D01*
X138054509Y-133443685D02*
X138125938Y-133372257D01*
X138125938Y-133372257D02*
X138268795Y-133300828D01*
X138268795Y-133300828D02*
X138483081Y-133300828D01*
X138483081Y-133300828D02*
X138625938Y-133372257D01*
X138625938Y-133372257D02*
X138697367Y-133515114D01*
X138697367Y-133515114D02*
X138697367Y-134300828D01*
X125800828Y-124945489D02*
X124300828Y-124945489D01*
X125800828Y-123374060D02*
X125086542Y-123874060D01*
X125800828Y-124231203D02*
X124300828Y-124231203D01*
X124300828Y-124231203D02*
X124300828Y-123659774D01*
X124300828Y-123659774D02*
X124372257Y-123516917D01*
X124372257Y-123516917D02*
X124443685Y-123445488D01*
X124443685Y-123445488D02*
X124586542Y-123374060D01*
X124586542Y-123374060D02*
X124800828Y-123374060D01*
X124800828Y-123374060D02*
X124943685Y-123445488D01*
X124943685Y-123445488D02*
X125015114Y-123516917D01*
X125015114Y-123516917D02*
X125086542Y-123659774D01*
X125086542Y-123659774D02*
X125086542Y-124231203D01*
X125800828Y-122016917D02*
X125800828Y-122731203D01*
X125800828Y-122731203D02*
X124300828Y-122731203D01*
X124300828Y-121659774D02*
X124300828Y-120659774D01*
X124300828Y-120659774D02*
X125800828Y-121659774D01*
X125800828Y-121659774D02*
X125800828Y-120659774D01*
X124800828Y-119445489D02*
X125800828Y-119445489D01*
X124229400Y-119802631D02*
X125300828Y-120159774D01*
X125300828Y-120159774D02*
X125300828Y-119231203D01*
X124800828Y-118016918D02*
X125800828Y-118016918D01*
X124229400Y-118374060D02*
X125300828Y-118731203D01*
X125300828Y-118731203D02*
X125300828Y-117802632D01*
X125800828Y-117231204D02*
X124300828Y-117231204D01*
X124300828Y-117231204D02*
X125800828Y-116374061D01*
X125800828Y-116374061D02*
X124300828Y-116374061D01*
D15*
X89902568Y-46864619D02*
X89902568Y-45864619D01*
X89902568Y-45864619D02*
X90473996Y-46864619D01*
X90473996Y-46864619D02*
X90473996Y-45864619D01*
X91331139Y-46817000D02*
X91235901Y-46864619D01*
X91235901Y-46864619D02*
X91045425Y-46864619D01*
X91045425Y-46864619D02*
X90950187Y-46817000D01*
X90950187Y-46817000D02*
X90902568Y-46721761D01*
X90902568Y-46721761D02*
X90902568Y-46340809D01*
X90902568Y-46340809D02*
X90950187Y-46245571D01*
X90950187Y-46245571D02*
X91045425Y-46197952D01*
X91045425Y-46197952D02*
X91235901Y-46197952D01*
X91235901Y-46197952D02*
X91331139Y-46245571D01*
X91331139Y-46245571D02*
X91378758Y-46340809D01*
X91378758Y-46340809D02*
X91378758Y-46436047D01*
X91378758Y-46436047D02*
X90902568Y-46531285D01*
X91950187Y-46864619D02*
X91854949Y-46817000D01*
X91854949Y-46817000D02*
X91807330Y-46769380D01*
X91807330Y-46769380D02*
X91759711Y-46674142D01*
X91759711Y-46674142D02*
X91759711Y-46388428D01*
X91759711Y-46388428D02*
X91807330Y-46293190D01*
X91807330Y-46293190D02*
X91854949Y-46245571D01*
X91854949Y-46245571D02*
X91950187Y-46197952D01*
X91950187Y-46197952D02*
X92093044Y-46197952D01*
X92093044Y-46197952D02*
X92188282Y-46245571D01*
X92188282Y-46245571D02*
X92235901Y-46293190D01*
X92235901Y-46293190D02*
X92283520Y-46388428D01*
X92283520Y-46388428D02*
X92283520Y-46674142D01*
X92283520Y-46674142D02*
X92235901Y-46769380D01*
X92235901Y-46769380D02*
X92188282Y-46817000D01*
X92188282Y-46817000D02*
X92093044Y-46864619D01*
X92093044Y-46864619D02*
X91950187Y-46864619D01*
X92712092Y-46197952D02*
X92712092Y-47197952D01*
X92712092Y-46245571D02*
X92807330Y-46197952D01*
X92807330Y-46197952D02*
X92997806Y-46197952D01*
X92997806Y-46197952D02*
X93093044Y-46245571D01*
X93093044Y-46245571D02*
X93140663Y-46293190D01*
X93140663Y-46293190D02*
X93188282Y-46388428D01*
X93188282Y-46388428D02*
X93188282Y-46674142D01*
X93188282Y-46674142D02*
X93140663Y-46769380D01*
X93140663Y-46769380D02*
X93093044Y-46817000D01*
X93093044Y-46817000D02*
X92997806Y-46864619D01*
X92997806Y-46864619D02*
X92807330Y-46864619D01*
X92807330Y-46864619D02*
X92712092Y-46817000D01*
X93616854Y-46864619D02*
X93616854Y-46197952D01*
X93616854Y-45864619D02*
X93569235Y-45912238D01*
X93569235Y-45912238D02*
X93616854Y-45959857D01*
X93616854Y-45959857D02*
X93664473Y-45912238D01*
X93664473Y-45912238D02*
X93616854Y-45864619D01*
X93616854Y-45864619D02*
X93616854Y-45959857D01*
X93997806Y-46864619D02*
X94521615Y-46197952D01*
X93997806Y-46197952D02*
X94521615Y-46864619D01*
X95283520Y-46817000D02*
X95188282Y-46864619D01*
X95188282Y-46864619D02*
X94997806Y-46864619D01*
X94997806Y-46864619D02*
X94902568Y-46817000D01*
X94902568Y-46817000D02*
X94854949Y-46721761D01*
X94854949Y-46721761D02*
X94854949Y-46340809D01*
X94854949Y-46340809D02*
X94902568Y-46245571D01*
X94902568Y-46245571D02*
X94997806Y-46197952D01*
X94997806Y-46197952D02*
X95188282Y-46197952D01*
X95188282Y-46197952D02*
X95283520Y-46245571D01*
X95283520Y-46245571D02*
X95331139Y-46340809D01*
X95331139Y-46340809D02*
X95331139Y-46436047D01*
X95331139Y-46436047D02*
X94854949Y-46531285D01*
X95902568Y-46864619D02*
X95807330Y-46817000D01*
X95807330Y-46817000D02*
X95759711Y-46721761D01*
X95759711Y-46721761D02*
X95759711Y-45864619D01*
D11*
X166499999Y-113652447D02*
X166499999Y-112652447D01*
X166499999Y-112652447D02*
X166738094Y-112652447D01*
X166738094Y-112652447D02*
X166880951Y-112700066D01*
X166880951Y-112700066D02*
X166976189Y-112795304D01*
X166976189Y-112795304D02*
X167023808Y-112890542D01*
X167023808Y-112890542D02*
X167071427Y-113081018D01*
X167071427Y-113081018D02*
X167071427Y-113223875D01*
X167071427Y-113223875D02*
X167023808Y-113414351D01*
X167023808Y-113414351D02*
X166976189Y-113509589D01*
X166976189Y-113509589D02*
X166880951Y-113604828D01*
X166880951Y-113604828D02*
X166738094Y-113652447D01*
X166738094Y-113652447D02*
X166499999Y-113652447D01*
X167928570Y-112985780D02*
X167928570Y-113652447D01*
X167690475Y-112604828D02*
X167452380Y-113319113D01*
X167452380Y-113319113D02*
X168071427Y-113319113D01*
X168976189Y-113652447D02*
X168404761Y-113652447D01*
X168690475Y-113652447D02*
X168690475Y-112652447D01*
X168690475Y-112652447D02*
X168595237Y-112795304D01*
X168595237Y-112795304D02*
X168499999Y-112890542D01*
X168499999Y-112890542D02*
X168404761Y-112938161D01*
X169547618Y-113081018D02*
X169452380Y-113033399D01*
X169452380Y-113033399D02*
X169404761Y-112985780D01*
X169404761Y-112985780D02*
X169357142Y-112890542D01*
X169357142Y-112890542D02*
X169357142Y-112842923D01*
X169357142Y-112842923D02*
X169404761Y-112747685D01*
X169404761Y-112747685D02*
X169452380Y-112700066D01*
X169452380Y-112700066D02*
X169547618Y-112652447D01*
X169547618Y-112652447D02*
X169738094Y-112652447D01*
X169738094Y-112652447D02*
X169833332Y-112700066D01*
X169833332Y-112700066D02*
X169880951Y-112747685D01*
X169880951Y-112747685D02*
X169928570Y-112842923D01*
X169928570Y-112842923D02*
X169928570Y-112890542D01*
X169928570Y-112890542D02*
X169880951Y-112985780D01*
X169880951Y-112985780D02*
X169833332Y-113033399D01*
X169833332Y-113033399D02*
X169738094Y-113081018D01*
X169738094Y-113081018D02*
X169547618Y-113081018D01*
X169547618Y-113081018D02*
X169452380Y-113128637D01*
X169452380Y-113128637D02*
X169404761Y-113176256D01*
X169404761Y-113176256D02*
X169357142Y-113271494D01*
X169357142Y-113271494D02*
X169357142Y-113461970D01*
X169357142Y-113461970D02*
X169404761Y-113557208D01*
X169404761Y-113557208D02*
X169452380Y-113604828D01*
X169452380Y-113604828D02*
X169547618Y-113652447D01*
X169547618Y-113652447D02*
X169738094Y-113652447D01*
X169738094Y-113652447D02*
X169833332Y-113604828D01*
X169833332Y-113604828D02*
X169880951Y-113557208D01*
X169880951Y-113557208D02*
X169928570Y-113461970D01*
X169928570Y-113461970D02*
X169928570Y-113271494D01*
X169928570Y-113271494D02*
X169880951Y-113176256D01*
X169880951Y-113176256D02*
X169833332Y-113128637D01*
X169833332Y-113128637D02*
X169738094Y-113081018D01*
X171119047Y-113652447D02*
X171119047Y-112652447D01*
X171119047Y-112652447D02*
X171452380Y-113366732D01*
X171452380Y-113366732D02*
X171785713Y-112652447D01*
X171785713Y-112652447D02*
X171785713Y-113652447D01*
X172404761Y-113652447D02*
X172309523Y-113604828D01*
X172309523Y-113604828D02*
X172261904Y-113557208D01*
X172261904Y-113557208D02*
X172214285Y-113461970D01*
X172214285Y-113461970D02*
X172214285Y-113176256D01*
X172214285Y-113176256D02*
X172261904Y-113081018D01*
X172261904Y-113081018D02*
X172309523Y-113033399D01*
X172309523Y-113033399D02*
X172404761Y-112985780D01*
X172404761Y-112985780D02*
X172547618Y-112985780D01*
X172547618Y-112985780D02*
X172642856Y-113033399D01*
X172642856Y-113033399D02*
X172690475Y-113081018D01*
X172690475Y-113081018D02*
X172738094Y-113176256D01*
X172738094Y-113176256D02*
X172738094Y-113461970D01*
X172738094Y-113461970D02*
X172690475Y-113557208D01*
X172690475Y-113557208D02*
X172642856Y-113604828D01*
X172642856Y-113604828D02*
X172547618Y-113652447D01*
X172547618Y-113652447D02*
X172404761Y-113652447D01*
X173119047Y-113604828D02*
X173214285Y-113652447D01*
X173214285Y-113652447D02*
X173404761Y-113652447D01*
X173404761Y-113652447D02*
X173499999Y-113604828D01*
X173499999Y-113604828D02*
X173547618Y-113509589D01*
X173547618Y-113509589D02*
X173547618Y-113461970D01*
X173547618Y-113461970D02*
X173499999Y-113366732D01*
X173499999Y-113366732D02*
X173404761Y-113319113D01*
X173404761Y-113319113D02*
X173261904Y-113319113D01*
X173261904Y-113319113D02*
X173166666Y-113271494D01*
X173166666Y-113271494D02*
X173119047Y-113176256D01*
X173119047Y-113176256D02*
X173119047Y-113128637D01*
X173119047Y-113128637D02*
X173166666Y-113033399D01*
X173166666Y-113033399D02*
X173261904Y-112985780D01*
X173261904Y-112985780D02*
X173404761Y-112985780D01*
X173404761Y-112985780D02*
X173499999Y-113033399D01*
X173833333Y-112985780D02*
X174214285Y-112985780D01*
X173976190Y-113652447D02*
X173976190Y-112795304D01*
X173976190Y-112795304D02*
X174023809Y-112700066D01*
X174023809Y-112700066D02*
X174119047Y-112652447D01*
X174119047Y-112652447D02*
X174214285Y-112652447D01*
X174928571Y-113604828D02*
X174833333Y-113652447D01*
X174833333Y-113652447D02*
X174642857Y-113652447D01*
X174642857Y-113652447D02*
X174547619Y-113604828D01*
X174547619Y-113604828D02*
X174500000Y-113509589D01*
X174500000Y-113509589D02*
X174500000Y-113128637D01*
X174500000Y-113128637D02*
X174547619Y-113033399D01*
X174547619Y-113033399D02*
X174642857Y-112985780D01*
X174642857Y-112985780D02*
X174833333Y-112985780D01*
X174833333Y-112985780D02*
X174928571Y-113033399D01*
X174928571Y-113033399D02*
X174976190Y-113128637D01*
X174976190Y-113128637D02*
X174976190Y-113223875D01*
X174976190Y-113223875D02*
X174500000Y-113319113D01*
X175261905Y-112985780D02*
X175642857Y-112985780D01*
X175404762Y-112652447D02*
X175404762Y-113509589D01*
X175404762Y-113509589D02*
X175452381Y-113604828D01*
X175452381Y-113604828D02*
X175547619Y-113652447D01*
X175547619Y-113652447D02*
X175642857Y-113652447D01*
X167404762Y-115262391D02*
X167404762Y-114262391D01*
X167404762Y-114738581D02*
X167976190Y-114738581D01*
X167976190Y-115262391D02*
X167976190Y-114262391D01*
X168880952Y-114595724D02*
X168880952Y-115262391D01*
X168452381Y-114595724D02*
X168452381Y-115119533D01*
X168452381Y-115119533D02*
X168500000Y-115214772D01*
X168500000Y-115214772D02*
X168595238Y-115262391D01*
X168595238Y-115262391D02*
X168738095Y-115262391D01*
X168738095Y-115262391D02*
X168833333Y-115214772D01*
X168833333Y-115214772D02*
X168880952Y-115167152D01*
X169357143Y-115262391D02*
X169357143Y-114595724D01*
X169357143Y-114690962D02*
X169404762Y-114643343D01*
X169404762Y-114643343D02*
X169500000Y-114595724D01*
X169500000Y-114595724D02*
X169642857Y-114595724D01*
X169642857Y-114595724D02*
X169738095Y-114643343D01*
X169738095Y-114643343D02*
X169785714Y-114738581D01*
X169785714Y-114738581D02*
X169785714Y-115262391D01*
X169785714Y-114738581D02*
X169833333Y-114643343D01*
X169833333Y-114643343D02*
X169928571Y-114595724D01*
X169928571Y-114595724D02*
X170071428Y-114595724D01*
X170071428Y-114595724D02*
X170166667Y-114643343D01*
X170166667Y-114643343D02*
X170214286Y-114738581D01*
X170214286Y-114738581D02*
X170214286Y-115262391D01*
X170690476Y-115262391D02*
X170690476Y-114595724D01*
X170690476Y-114262391D02*
X170642857Y-114310010D01*
X170642857Y-114310010D02*
X170690476Y-114357629D01*
X170690476Y-114357629D02*
X170738095Y-114310010D01*
X170738095Y-114310010D02*
X170690476Y-114262391D01*
X170690476Y-114262391D02*
X170690476Y-114357629D01*
X171595237Y-115262391D02*
X171595237Y-114262391D01*
X171595237Y-115214772D02*
X171499999Y-115262391D01*
X171499999Y-115262391D02*
X171309523Y-115262391D01*
X171309523Y-115262391D02*
X171214285Y-115214772D01*
X171214285Y-115214772D02*
X171166666Y-115167152D01*
X171166666Y-115167152D02*
X171119047Y-115071914D01*
X171119047Y-115071914D02*
X171119047Y-114786200D01*
X171119047Y-114786200D02*
X171166666Y-114690962D01*
X171166666Y-114690962D02*
X171214285Y-114643343D01*
X171214285Y-114643343D02*
X171309523Y-114595724D01*
X171309523Y-114595724D02*
X171499999Y-114595724D01*
X171499999Y-114595724D02*
X171595237Y-114643343D01*
X172071428Y-115262391D02*
X172071428Y-114595724D01*
X172071428Y-114262391D02*
X172023809Y-114310010D01*
X172023809Y-114310010D02*
X172071428Y-114357629D01*
X172071428Y-114357629D02*
X172119047Y-114310010D01*
X172119047Y-114310010D02*
X172071428Y-114262391D01*
X172071428Y-114262391D02*
X172071428Y-114357629D01*
X172404761Y-114595724D02*
X172785713Y-114595724D01*
X172547618Y-115262391D02*
X172547618Y-114405248D01*
X172547618Y-114405248D02*
X172595237Y-114310010D01*
X172595237Y-114310010D02*
X172690475Y-114262391D01*
X172690475Y-114262391D02*
X172785713Y-114262391D01*
X173119047Y-115262391D02*
X173119047Y-114595724D01*
X173119047Y-114262391D02*
X173071428Y-114310010D01*
X173071428Y-114310010D02*
X173119047Y-114357629D01*
X173119047Y-114357629D02*
X173166666Y-114310010D01*
X173166666Y-114310010D02*
X173119047Y-114262391D01*
X173119047Y-114262391D02*
X173119047Y-114357629D01*
X173976189Y-115214772D02*
X173880951Y-115262391D01*
X173880951Y-115262391D02*
X173690475Y-115262391D01*
X173690475Y-115262391D02*
X173595237Y-115214772D01*
X173595237Y-115214772D02*
X173547618Y-115119533D01*
X173547618Y-115119533D02*
X173547618Y-114738581D01*
X173547618Y-114738581D02*
X173595237Y-114643343D01*
X173595237Y-114643343D02*
X173690475Y-114595724D01*
X173690475Y-114595724D02*
X173880951Y-114595724D01*
X173880951Y-114595724D02*
X173976189Y-114643343D01*
X173976189Y-114643343D02*
X174023808Y-114738581D01*
X174023808Y-114738581D02*
X174023808Y-114833819D01*
X174023808Y-114833819D02*
X173547618Y-114929057D01*
X174452380Y-115262391D02*
X174452380Y-114595724D01*
X174452380Y-114786200D02*
X174499999Y-114690962D01*
X174499999Y-114690962D02*
X174547618Y-114643343D01*
X174547618Y-114643343D02*
X174642856Y-114595724D01*
X174642856Y-114595724D02*
X174738094Y-114595724D01*
X166119048Y-134872419D02*
X166119048Y-133872419D01*
X166119048Y-134348609D02*
X166690476Y-134348609D01*
X166690476Y-134872419D02*
X166690476Y-133872419D01*
X167595238Y-134205752D02*
X167595238Y-134872419D01*
X167166667Y-134205752D02*
X167166667Y-134729561D01*
X167166667Y-134729561D02*
X167214286Y-134824800D01*
X167214286Y-134824800D02*
X167309524Y-134872419D01*
X167309524Y-134872419D02*
X167452381Y-134872419D01*
X167452381Y-134872419D02*
X167547619Y-134824800D01*
X167547619Y-134824800D02*
X167595238Y-134777180D01*
X168071429Y-134872419D02*
X168071429Y-134205752D01*
X168071429Y-134300990D02*
X168119048Y-134253371D01*
X168119048Y-134253371D02*
X168214286Y-134205752D01*
X168214286Y-134205752D02*
X168357143Y-134205752D01*
X168357143Y-134205752D02*
X168452381Y-134253371D01*
X168452381Y-134253371D02*
X168500000Y-134348609D01*
X168500000Y-134348609D02*
X168500000Y-134872419D01*
X168500000Y-134348609D02*
X168547619Y-134253371D01*
X168547619Y-134253371D02*
X168642857Y-134205752D01*
X168642857Y-134205752D02*
X168785714Y-134205752D01*
X168785714Y-134205752D02*
X168880953Y-134253371D01*
X168880953Y-134253371D02*
X168928572Y-134348609D01*
X168928572Y-134348609D02*
X168928572Y-134872419D01*
X169404762Y-134872419D02*
X169404762Y-134205752D01*
X169404762Y-133872419D02*
X169357143Y-133920038D01*
X169357143Y-133920038D02*
X169404762Y-133967657D01*
X169404762Y-133967657D02*
X169452381Y-133920038D01*
X169452381Y-133920038D02*
X169404762Y-133872419D01*
X169404762Y-133872419D02*
X169404762Y-133967657D01*
X170309523Y-134872419D02*
X170309523Y-133872419D01*
X170309523Y-134824800D02*
X170214285Y-134872419D01*
X170214285Y-134872419D02*
X170023809Y-134872419D01*
X170023809Y-134872419D02*
X169928571Y-134824800D01*
X169928571Y-134824800D02*
X169880952Y-134777180D01*
X169880952Y-134777180D02*
X169833333Y-134681942D01*
X169833333Y-134681942D02*
X169833333Y-134396228D01*
X169833333Y-134396228D02*
X169880952Y-134300990D01*
X169880952Y-134300990D02*
X169928571Y-134253371D01*
X169928571Y-134253371D02*
X170023809Y-134205752D01*
X170023809Y-134205752D02*
X170214285Y-134205752D01*
X170214285Y-134205752D02*
X170309523Y-134253371D01*
X170785714Y-134872419D02*
X170785714Y-134205752D01*
X170785714Y-133872419D02*
X170738095Y-133920038D01*
X170738095Y-133920038D02*
X170785714Y-133967657D01*
X170785714Y-133967657D02*
X170833333Y-133920038D01*
X170833333Y-133920038D02*
X170785714Y-133872419D01*
X170785714Y-133872419D02*
X170785714Y-133967657D01*
X171119047Y-134205752D02*
X171499999Y-134205752D01*
X171261904Y-134872419D02*
X171261904Y-134015276D01*
X171261904Y-134015276D02*
X171309523Y-133920038D01*
X171309523Y-133920038D02*
X171404761Y-133872419D01*
X171404761Y-133872419D02*
X171499999Y-133872419D01*
X171833333Y-134872419D02*
X171833333Y-134205752D01*
X171833333Y-133872419D02*
X171785714Y-133920038D01*
X171785714Y-133920038D02*
X171833333Y-133967657D01*
X171833333Y-133967657D02*
X171880952Y-133920038D01*
X171880952Y-133920038D02*
X171833333Y-133872419D01*
X171833333Y-133872419D02*
X171833333Y-133967657D01*
X172690475Y-134824800D02*
X172595237Y-134872419D01*
X172595237Y-134872419D02*
X172404761Y-134872419D01*
X172404761Y-134872419D02*
X172309523Y-134824800D01*
X172309523Y-134824800D02*
X172261904Y-134729561D01*
X172261904Y-134729561D02*
X172261904Y-134348609D01*
X172261904Y-134348609D02*
X172309523Y-134253371D01*
X172309523Y-134253371D02*
X172404761Y-134205752D01*
X172404761Y-134205752D02*
X172595237Y-134205752D01*
X172595237Y-134205752D02*
X172690475Y-134253371D01*
X172690475Y-134253371D02*
X172738094Y-134348609D01*
X172738094Y-134348609D02*
X172738094Y-134443847D01*
X172738094Y-134443847D02*
X172261904Y-134539085D01*
X173166666Y-134872419D02*
X173166666Y-134205752D01*
X173166666Y-134396228D02*
X173214285Y-134300990D01*
X173214285Y-134300990D02*
X173261904Y-134253371D01*
X173261904Y-134253371D02*
X173357142Y-134205752D01*
X173357142Y-134205752D02*
X173452380Y-134205752D01*
X175023809Y-133872419D02*
X174547619Y-133872419D01*
X174547619Y-133872419D02*
X174500000Y-134348609D01*
X174500000Y-134348609D02*
X174547619Y-134300990D01*
X174547619Y-134300990D02*
X174642857Y-134253371D01*
X174642857Y-134253371D02*
X174880952Y-134253371D01*
X174880952Y-134253371D02*
X174976190Y-134300990D01*
X174976190Y-134300990D02*
X175023809Y-134348609D01*
X175023809Y-134348609D02*
X175071428Y-134443847D01*
X175071428Y-134443847D02*
X175071428Y-134681942D01*
X175071428Y-134681942D02*
X175023809Y-134777180D01*
X175023809Y-134777180D02*
X174976190Y-134824800D01*
X174976190Y-134824800D02*
X174880952Y-134872419D01*
X174880952Y-134872419D02*
X174642857Y-134872419D01*
X174642857Y-134872419D02*
X174547619Y-134824800D01*
X174547619Y-134824800D02*
X174500000Y-134777180D01*
X175357143Y-133872419D02*
X175690476Y-134872419D01*
X175690476Y-134872419D02*
X176023809Y-133872419D01*
D15*
X86742238Y-94359336D02*
X84742238Y-94359336D01*
X84742238Y-94359336D02*
X86170809Y-93692669D01*
X86170809Y-93692669D02*
X84742238Y-93026003D01*
X84742238Y-93026003D02*
X86742238Y-93026003D01*
X86742238Y-91787908D02*
X86647000Y-91978384D01*
X86647000Y-91978384D02*
X86551761Y-92073622D01*
X86551761Y-92073622D02*
X86361285Y-92168860D01*
X86361285Y-92168860D02*
X85789857Y-92168860D01*
X85789857Y-92168860D02*
X85599380Y-92073622D01*
X85599380Y-92073622D02*
X85504142Y-91978384D01*
X85504142Y-91978384D02*
X85408904Y-91787908D01*
X85408904Y-91787908D02*
X85408904Y-91502193D01*
X85408904Y-91502193D02*
X85504142Y-91311717D01*
X85504142Y-91311717D02*
X85599380Y-91216479D01*
X85599380Y-91216479D02*
X85789857Y-91121241D01*
X85789857Y-91121241D02*
X86361285Y-91121241D01*
X86361285Y-91121241D02*
X86551761Y-91216479D01*
X86551761Y-91216479D02*
X86647000Y-91311717D01*
X86647000Y-91311717D02*
X86742238Y-91502193D01*
X86742238Y-91502193D02*
X86742238Y-91787908D01*
X85408904Y-90549812D02*
X85408904Y-89787908D01*
X84742238Y-90264098D02*
X86456523Y-90264098D01*
X86456523Y-90264098D02*
X86647000Y-90168860D01*
X86647000Y-90168860D02*
X86742238Y-89978384D01*
X86742238Y-89978384D02*
X86742238Y-89787908D01*
X86742238Y-88835527D02*
X86647000Y-89026003D01*
X86647000Y-89026003D02*
X86551761Y-89121241D01*
X86551761Y-89121241D02*
X86361285Y-89216479D01*
X86361285Y-89216479D02*
X85789857Y-89216479D01*
X85789857Y-89216479D02*
X85599380Y-89121241D01*
X85599380Y-89121241D02*
X85504142Y-89026003D01*
X85504142Y-89026003D02*
X85408904Y-88835527D01*
X85408904Y-88835527D02*
X85408904Y-88549812D01*
X85408904Y-88549812D02*
X85504142Y-88359336D01*
X85504142Y-88359336D02*
X85599380Y-88264098D01*
X85599380Y-88264098D02*
X85789857Y-88168860D01*
X85789857Y-88168860D02*
X86361285Y-88168860D01*
X86361285Y-88168860D02*
X86551761Y-88264098D01*
X86551761Y-88264098D02*
X86647000Y-88359336D01*
X86647000Y-88359336D02*
X86742238Y-88549812D01*
X86742238Y-88549812D02*
X86742238Y-88835527D01*
X86742238Y-87311717D02*
X85408904Y-87311717D01*
X85789857Y-87311717D02*
X85599380Y-87216479D01*
X85599380Y-87216479D02*
X85504142Y-87121241D01*
X85504142Y-87121241D02*
X85408904Y-86930765D01*
X85408904Y-86930765D02*
X85408904Y-86740288D01*
X86742238Y-84549812D02*
X84742238Y-84549812D01*
X84742238Y-84549812D02*
X84742238Y-84073622D01*
X84742238Y-84073622D02*
X84837476Y-83787907D01*
X84837476Y-83787907D02*
X85027952Y-83597431D01*
X85027952Y-83597431D02*
X85218428Y-83502193D01*
X85218428Y-83502193D02*
X85599380Y-83406955D01*
X85599380Y-83406955D02*
X85885095Y-83406955D01*
X85885095Y-83406955D02*
X86266047Y-83502193D01*
X86266047Y-83502193D02*
X86456523Y-83597431D01*
X86456523Y-83597431D02*
X86647000Y-83787907D01*
X86647000Y-83787907D02*
X86742238Y-84073622D01*
X86742238Y-84073622D02*
X86742238Y-84549812D01*
X86742238Y-82549812D02*
X85408904Y-82549812D01*
X85789857Y-82549812D02*
X85599380Y-82454574D01*
X85599380Y-82454574D02*
X85504142Y-82359336D01*
X85504142Y-82359336D02*
X85408904Y-82168860D01*
X85408904Y-82168860D02*
X85408904Y-81978383D01*
X86742238Y-81311717D02*
X85408904Y-81311717D01*
X84742238Y-81311717D02*
X84837476Y-81406955D01*
X84837476Y-81406955D02*
X84932714Y-81311717D01*
X84932714Y-81311717D02*
X84837476Y-81216479D01*
X84837476Y-81216479D02*
X84742238Y-81311717D01*
X84742238Y-81311717D02*
X84932714Y-81311717D01*
X85408904Y-80549812D02*
X86742238Y-80073622D01*
X86742238Y-80073622D02*
X85408904Y-79597431D01*
X86647000Y-78073621D02*
X86742238Y-78264097D01*
X86742238Y-78264097D02*
X86742238Y-78645050D01*
X86742238Y-78645050D02*
X86647000Y-78835526D01*
X86647000Y-78835526D02*
X86456523Y-78930764D01*
X86456523Y-78930764D02*
X85694619Y-78930764D01*
X85694619Y-78930764D02*
X85504142Y-78835526D01*
X85504142Y-78835526D02*
X85408904Y-78645050D01*
X85408904Y-78645050D02*
X85408904Y-78264097D01*
X85408904Y-78264097D02*
X85504142Y-78073621D01*
X85504142Y-78073621D02*
X85694619Y-77978383D01*
X85694619Y-77978383D02*
X85885095Y-77978383D01*
X85885095Y-77978383D02*
X86075571Y-78930764D01*
X86742238Y-77121240D02*
X85408904Y-77121240D01*
X85789857Y-77121240D02*
X85599380Y-77026002D01*
X85599380Y-77026002D02*
X85504142Y-76930764D01*
X85504142Y-76930764D02*
X85408904Y-76740288D01*
X85408904Y-76740288D02*
X85408904Y-76549811D01*
D12*
X68785715Y-51800828D02*
X67928572Y-51800828D01*
X68357143Y-51800828D02*
X68357143Y-50300828D01*
X68357143Y-50300828D02*
X68214286Y-50515114D01*
X68214286Y-50515114D02*
X68071429Y-50657971D01*
X68071429Y-50657971D02*
X67928572Y-50729400D01*
X69428571Y-51657971D02*
X69500000Y-51729400D01*
X69500000Y-51729400D02*
X69428571Y-51800828D01*
X69428571Y-51800828D02*
X69357143Y-51729400D01*
X69357143Y-51729400D02*
X69428571Y-51657971D01*
X69428571Y-51657971D02*
X69428571Y-51800828D01*
X70428572Y-50300828D02*
X70571429Y-50300828D01*
X70571429Y-50300828D02*
X70714286Y-50372257D01*
X70714286Y-50372257D02*
X70785715Y-50443685D01*
X70785715Y-50443685D02*
X70857143Y-50586542D01*
X70857143Y-50586542D02*
X70928572Y-50872257D01*
X70928572Y-50872257D02*
X70928572Y-51229400D01*
X70928572Y-51229400D02*
X70857143Y-51515114D01*
X70857143Y-51515114D02*
X70785715Y-51657971D01*
X70785715Y-51657971D02*
X70714286Y-51729400D01*
X70714286Y-51729400D02*
X70571429Y-51800828D01*
X70571429Y-51800828D02*
X70428572Y-51800828D01*
X70428572Y-51800828D02*
X70285715Y-51729400D01*
X70285715Y-51729400D02*
X70214286Y-51657971D01*
X70214286Y-51657971D02*
X70142857Y-51515114D01*
X70142857Y-51515114D02*
X70071429Y-51229400D01*
X70071429Y-51229400D02*
X70071429Y-50872257D01*
X70071429Y-50872257D02*
X70142857Y-50586542D01*
X70142857Y-50586542D02*
X70214286Y-50443685D01*
X70214286Y-50443685D02*
X70285715Y-50372257D01*
X70285715Y-50372257D02*
X70428572Y-50300828D01*
X71571428Y-51657971D02*
X71642857Y-51729400D01*
X71642857Y-51729400D02*
X71571428Y-51800828D01*
X71571428Y-51800828D02*
X71500000Y-51729400D01*
X71500000Y-51729400D02*
X71571428Y-51657971D01*
X71571428Y-51657971D02*
X71571428Y-51800828D01*
X72571429Y-50300828D02*
X72714286Y-50300828D01*
X72714286Y-50300828D02*
X72857143Y-50372257D01*
X72857143Y-50372257D02*
X72928572Y-50443685D01*
X72928572Y-50443685D02*
X73000000Y-50586542D01*
X73000000Y-50586542D02*
X73071429Y-50872257D01*
X73071429Y-50872257D02*
X73071429Y-51229400D01*
X73071429Y-51229400D02*
X73000000Y-51515114D01*
X73000000Y-51515114D02*
X72928572Y-51657971D01*
X72928572Y-51657971D02*
X72857143Y-51729400D01*
X72857143Y-51729400D02*
X72714286Y-51800828D01*
X72714286Y-51800828D02*
X72571429Y-51800828D01*
X72571429Y-51800828D02*
X72428572Y-51729400D01*
X72428572Y-51729400D02*
X72357143Y-51657971D01*
X72357143Y-51657971D02*
X72285714Y-51515114D01*
X72285714Y-51515114D02*
X72214286Y-51229400D01*
X72214286Y-51229400D02*
X72214286Y-50872257D01*
X72214286Y-50872257D02*
X72285714Y-50586542D01*
X72285714Y-50586542D02*
X72357143Y-50443685D01*
X72357143Y-50443685D02*
X72428572Y-50372257D01*
X72428572Y-50372257D02*
X72571429Y-50300828D01*
X173554510Y-50229400D02*
X174697368Y-50229400D01*
X174125939Y-50800828D02*
X174125939Y-49657971D01*
D16*
X86980497Y-134806678D02*
X86980497Y-133306678D01*
X86980497Y-134020964D02*
X87837640Y-134020964D01*
X87837640Y-134806678D02*
X87837640Y-133306678D01*
X89123355Y-134735250D02*
X88980498Y-134806678D01*
X88980498Y-134806678D02*
X88694784Y-134806678D01*
X88694784Y-134806678D02*
X88551926Y-134735250D01*
X88551926Y-134735250D02*
X88480498Y-134592392D01*
X88480498Y-134592392D02*
X88480498Y-134020964D01*
X88480498Y-134020964D02*
X88551926Y-133878107D01*
X88551926Y-133878107D02*
X88694784Y-133806678D01*
X88694784Y-133806678D02*
X88980498Y-133806678D01*
X88980498Y-133806678D02*
X89123355Y-133878107D01*
X89123355Y-133878107D02*
X89194784Y-134020964D01*
X89194784Y-134020964D02*
X89194784Y-134163821D01*
X89194784Y-134163821D02*
X88480498Y-134306678D01*
X90480498Y-134806678D02*
X90480498Y-134020964D01*
X90480498Y-134020964D02*
X90409069Y-133878107D01*
X90409069Y-133878107D02*
X90266212Y-133806678D01*
X90266212Y-133806678D02*
X89980498Y-133806678D01*
X89980498Y-133806678D02*
X89837640Y-133878107D01*
X90480498Y-134735250D02*
X90337640Y-134806678D01*
X90337640Y-134806678D02*
X89980498Y-134806678D01*
X89980498Y-134806678D02*
X89837640Y-134735250D01*
X89837640Y-134735250D02*
X89766212Y-134592392D01*
X89766212Y-134592392D02*
X89766212Y-134449535D01*
X89766212Y-134449535D02*
X89837640Y-134306678D01*
X89837640Y-134306678D02*
X89980498Y-134235250D01*
X89980498Y-134235250D02*
X90337640Y-134235250D01*
X90337640Y-134235250D02*
X90480498Y-134163821D01*
X90980498Y-133806678D02*
X91551926Y-133806678D01*
X91194783Y-133306678D02*
X91194783Y-134592392D01*
X91194783Y-134592392D02*
X91266212Y-134735250D01*
X91266212Y-134735250D02*
X91409069Y-134806678D01*
X91409069Y-134806678D02*
X91551926Y-134806678D01*
X92623355Y-134735250D02*
X92480498Y-134806678D01*
X92480498Y-134806678D02*
X92194784Y-134806678D01*
X92194784Y-134806678D02*
X92051926Y-134735250D01*
X92051926Y-134735250D02*
X91980498Y-134592392D01*
X91980498Y-134592392D02*
X91980498Y-134020964D01*
X91980498Y-134020964D02*
X92051926Y-133878107D01*
X92051926Y-133878107D02*
X92194784Y-133806678D01*
X92194784Y-133806678D02*
X92480498Y-133806678D01*
X92480498Y-133806678D02*
X92623355Y-133878107D01*
X92623355Y-133878107D02*
X92694784Y-134020964D01*
X92694784Y-134020964D02*
X92694784Y-134163821D01*
X92694784Y-134163821D02*
X91980498Y-134306678D01*
X93337640Y-134806678D02*
X93337640Y-133806678D01*
X93337640Y-134092392D02*
X93409069Y-133949535D01*
X93409069Y-133949535D02*
X93480498Y-133878107D01*
X93480498Y-133878107D02*
X93623355Y-133806678D01*
X93623355Y-133806678D02*
X93766212Y-133806678D01*
X95694783Y-133306678D02*
X95980497Y-133306678D01*
X95980497Y-133306678D02*
X96123354Y-133378107D01*
X96123354Y-133378107D02*
X96266211Y-133520964D01*
X96266211Y-133520964D02*
X96337640Y-133806678D01*
X96337640Y-133806678D02*
X96337640Y-134306678D01*
X96337640Y-134306678D02*
X96266211Y-134592392D01*
X96266211Y-134592392D02*
X96123354Y-134735250D01*
X96123354Y-134735250D02*
X95980497Y-134806678D01*
X95980497Y-134806678D02*
X95694783Y-134806678D01*
X95694783Y-134806678D02*
X95551926Y-134735250D01*
X95551926Y-134735250D02*
X95409068Y-134592392D01*
X95409068Y-134592392D02*
X95337640Y-134306678D01*
X95337640Y-134306678D02*
X95337640Y-133806678D01*
X95337640Y-133806678D02*
X95409068Y-133520964D01*
X95409068Y-133520964D02*
X95551926Y-133378107D01*
X95551926Y-133378107D02*
X95694783Y-133306678D01*
X97623355Y-133806678D02*
X97623355Y-134806678D01*
X96980497Y-133806678D02*
X96980497Y-134592392D01*
X96980497Y-134592392D02*
X97051926Y-134735250D01*
X97051926Y-134735250D02*
X97194783Y-134806678D01*
X97194783Y-134806678D02*
X97409069Y-134806678D01*
X97409069Y-134806678D02*
X97551926Y-134735250D01*
X97551926Y-134735250D02*
X97623355Y-134663821D01*
X98123355Y-133806678D02*
X98694783Y-133806678D01*
X98337640Y-133306678D02*
X98337640Y-134592392D01*
X98337640Y-134592392D02*
X98409069Y-134735250D01*
X98409069Y-134735250D02*
X98551926Y-134806678D01*
X98551926Y-134806678D02*
X98694783Y-134806678D01*
D12*
X54054510Y-102300828D02*
X54054510Y-100800828D01*
X54697368Y-100943685D02*
X54768796Y-100872257D01*
X54768796Y-100872257D02*
X54911654Y-100800828D01*
X54911654Y-100800828D02*
X55268796Y-100800828D01*
X55268796Y-100800828D02*
X55411654Y-100872257D01*
X55411654Y-100872257D02*
X55483082Y-100943685D01*
X55483082Y-100943685D02*
X55554511Y-101086542D01*
X55554511Y-101086542D02*
X55554511Y-101229400D01*
X55554511Y-101229400D02*
X55483082Y-101443685D01*
X55483082Y-101443685D02*
X54625939Y-102300828D01*
X54625939Y-102300828D02*
X55554511Y-102300828D01*
X57054510Y-102157971D02*
X56983082Y-102229400D01*
X56983082Y-102229400D02*
X56768796Y-102300828D01*
X56768796Y-102300828D02*
X56625939Y-102300828D01*
X56625939Y-102300828D02*
X56411653Y-102229400D01*
X56411653Y-102229400D02*
X56268796Y-102086542D01*
X56268796Y-102086542D02*
X56197367Y-101943685D01*
X56197367Y-101943685D02*
X56125939Y-101657971D01*
X56125939Y-101657971D02*
X56125939Y-101443685D01*
X56125939Y-101443685D02*
X56197367Y-101157971D01*
X56197367Y-101157971D02*
X56268796Y-101015114D01*
X56268796Y-101015114D02*
X56411653Y-100872257D01*
X56411653Y-100872257D02*
X56625939Y-100800828D01*
X56625939Y-100800828D02*
X56768796Y-100800828D01*
X56768796Y-100800828D02*
X56983082Y-100872257D01*
X56983082Y-100872257D02*
X57054510Y-100943685D01*
X155054510Y-50729400D02*
X156197368Y-50729400D01*
X155625939Y-51300828D02*
X155625939Y-50157971D01*
X137768796Y-123300828D02*
X137054510Y-123300828D01*
X137054510Y-123300828D02*
X137054510Y-121800828D01*
X138125939Y-121800828D02*
X139125939Y-121800828D01*
X139125939Y-121800828D02*
X138483082Y-123300828D01*
X139911653Y-122443685D02*
X139768796Y-122372257D01*
X139768796Y-122372257D02*
X139697367Y-122300828D01*
X139697367Y-122300828D02*
X139625939Y-122157971D01*
X139625939Y-122157971D02*
X139625939Y-122086542D01*
X139625939Y-122086542D02*
X139697367Y-121943685D01*
X139697367Y-121943685D02*
X139768796Y-121872257D01*
X139768796Y-121872257D02*
X139911653Y-121800828D01*
X139911653Y-121800828D02*
X140197367Y-121800828D01*
X140197367Y-121800828D02*
X140340225Y-121872257D01*
X140340225Y-121872257D02*
X140411653Y-121943685D01*
X140411653Y-121943685D02*
X140483082Y-122086542D01*
X140483082Y-122086542D02*
X140483082Y-122157971D01*
X140483082Y-122157971D02*
X140411653Y-122300828D01*
X140411653Y-122300828D02*
X140340225Y-122372257D01*
X140340225Y-122372257D02*
X140197367Y-122443685D01*
X140197367Y-122443685D02*
X139911653Y-122443685D01*
X139911653Y-122443685D02*
X139768796Y-122515114D01*
X139768796Y-122515114D02*
X139697367Y-122586542D01*
X139697367Y-122586542D02*
X139625939Y-122729400D01*
X139625939Y-122729400D02*
X139625939Y-123015114D01*
X139625939Y-123015114D02*
X139697367Y-123157971D01*
X139697367Y-123157971D02*
X139768796Y-123229400D01*
X139768796Y-123229400D02*
X139911653Y-123300828D01*
X139911653Y-123300828D02*
X140197367Y-123300828D01*
X140197367Y-123300828D02*
X140340225Y-123229400D01*
X140340225Y-123229400D02*
X140411653Y-123157971D01*
X140411653Y-123157971D02*
X140483082Y-123015114D01*
X140483082Y-123015114D02*
X140483082Y-122729400D01*
X140483082Y-122729400D02*
X140411653Y-122586542D01*
X140411653Y-122586542D02*
X140340225Y-122515114D01*
X140340225Y-122515114D02*
X140197367Y-122443685D01*
X141411653Y-121800828D02*
X141554510Y-121800828D01*
X141554510Y-121800828D02*
X141697367Y-121872257D01*
X141697367Y-121872257D02*
X141768796Y-121943685D01*
X141768796Y-121943685D02*
X141840224Y-122086542D01*
X141840224Y-122086542D02*
X141911653Y-122372257D01*
X141911653Y-122372257D02*
X141911653Y-122729400D01*
X141911653Y-122729400D02*
X141840224Y-123015114D01*
X141840224Y-123015114D02*
X141768796Y-123157971D01*
X141768796Y-123157971D02*
X141697367Y-123229400D01*
X141697367Y-123229400D02*
X141554510Y-123300828D01*
X141554510Y-123300828D02*
X141411653Y-123300828D01*
X141411653Y-123300828D02*
X141268796Y-123229400D01*
X141268796Y-123229400D02*
X141197367Y-123157971D01*
X141197367Y-123157971D02*
X141125938Y-123015114D01*
X141125938Y-123015114D02*
X141054510Y-122729400D01*
X141054510Y-122729400D02*
X141054510Y-122372257D01*
X141054510Y-122372257D02*
X141125938Y-122086542D01*
X141125938Y-122086542D02*
X141197367Y-121943685D01*
X141197367Y-121943685D02*
X141268796Y-121872257D01*
X141268796Y-121872257D02*
X141411653Y-121800828D01*
X143268795Y-121800828D02*
X142554509Y-121800828D01*
X142554509Y-121800828D02*
X142483081Y-122515114D01*
X142483081Y-122515114D02*
X142554509Y-122443685D01*
X142554509Y-122443685D02*
X142697367Y-122372257D01*
X142697367Y-122372257D02*
X143054509Y-122372257D01*
X143054509Y-122372257D02*
X143197367Y-122443685D01*
X143197367Y-122443685D02*
X143268795Y-122515114D01*
X143268795Y-122515114D02*
X143340224Y-122657971D01*
X143340224Y-122657971D02*
X143340224Y-123015114D01*
X143340224Y-123015114D02*
X143268795Y-123157971D01*
X143268795Y-123157971D02*
X143197367Y-123229400D01*
X143197367Y-123229400D02*
X143054509Y-123300828D01*
X143054509Y-123300828D02*
X142697367Y-123300828D01*
X142697367Y-123300828D02*
X142554509Y-123229400D01*
X142554509Y-123229400D02*
X142483081Y-123157971D01*
D17*
X83204819Y-147283333D02*
X82728628Y-147616666D01*
X83204819Y-147854761D02*
X82204819Y-147854761D01*
X82204819Y-147854761D02*
X82204819Y-147473809D01*
X82204819Y-147473809D02*
X82252438Y-147378571D01*
X82252438Y-147378571D02*
X82300057Y-147330952D01*
X82300057Y-147330952D02*
X82395295Y-147283333D01*
X82395295Y-147283333D02*
X82538152Y-147283333D01*
X82538152Y-147283333D02*
X82633390Y-147330952D01*
X82633390Y-147330952D02*
X82681009Y-147378571D01*
X82681009Y-147378571D02*
X82728628Y-147473809D01*
X82728628Y-147473809D02*
X82728628Y-147854761D01*
X82681009Y-146854761D02*
X82681009Y-146521428D01*
X83204819Y-146378571D02*
X83204819Y-146854761D01*
X83204819Y-146854761D02*
X82204819Y-146854761D01*
X82204819Y-146854761D02*
X82204819Y-146378571D01*
X82681009Y-145616666D02*
X82681009Y-145949999D01*
X83204819Y-145949999D02*
X82204819Y-145949999D01*
X82204819Y-145949999D02*
X82204819Y-145473809D01*
X82204819Y-144949999D02*
X82442914Y-144949999D01*
X82347676Y-145188094D02*
X82442914Y-144949999D01*
X82442914Y-144949999D02*
X82347676Y-144711904D01*
X82633390Y-145092856D02*
X82442914Y-144949999D01*
X82442914Y-144949999D02*
X82633390Y-144807142D01*
X82204819Y-144188094D02*
X82442914Y-144188094D01*
X82347676Y-144426189D02*
X82442914Y-144188094D01*
X82442914Y-144188094D02*
X82347676Y-143949999D01*
X82633390Y-144330951D02*
X82442914Y-144188094D01*
X82442914Y-144188094D02*
X82633390Y-144045237D01*
X98666666Y-45306819D02*
X98333333Y-44830628D01*
X98095238Y-45306819D02*
X98095238Y-44306819D01*
X98095238Y-44306819D02*
X98476190Y-44306819D01*
X98476190Y-44306819D02*
X98571428Y-44354438D01*
X98571428Y-44354438D02*
X98619047Y-44402057D01*
X98619047Y-44402057D02*
X98666666Y-44497295D01*
X98666666Y-44497295D02*
X98666666Y-44640152D01*
X98666666Y-44640152D02*
X98619047Y-44735390D01*
X98619047Y-44735390D02*
X98571428Y-44783009D01*
X98571428Y-44783009D02*
X98476190Y-44830628D01*
X98476190Y-44830628D02*
X98095238Y-44830628D01*
X99095238Y-44783009D02*
X99428571Y-44783009D01*
X99571428Y-45306819D02*
X99095238Y-45306819D01*
X99095238Y-45306819D02*
X99095238Y-44306819D01*
X99095238Y-44306819D02*
X99571428Y-44306819D01*
X100333333Y-44783009D02*
X100000000Y-44783009D01*
X100000000Y-45306819D02*
X100000000Y-44306819D01*
X100000000Y-44306819D02*
X100476190Y-44306819D01*
X101000000Y-44306819D02*
X101000000Y-44544914D01*
X100761905Y-44449676D02*
X101000000Y-44544914D01*
X101000000Y-44544914D02*
X101238095Y-44449676D01*
X100857143Y-44735390D02*
X101000000Y-44544914D01*
X101000000Y-44544914D02*
X101142857Y-44735390D01*
X101761905Y-44306819D02*
X101761905Y-44544914D01*
X101523810Y-44449676D02*
X101761905Y-44544914D01*
X101761905Y-44544914D02*
X102000000Y-44449676D01*
X101619048Y-44735390D02*
X101761905Y-44544914D01*
X101761905Y-44544914D02*
X101904762Y-44735390D01*
X102666666Y-61254819D02*
X102333333Y-60778628D01*
X102095238Y-61254819D02*
X102095238Y-60254819D01*
X102095238Y-60254819D02*
X102476190Y-60254819D01*
X102476190Y-60254819D02*
X102571428Y-60302438D01*
X102571428Y-60302438D02*
X102619047Y-60350057D01*
X102619047Y-60350057D02*
X102666666Y-60445295D01*
X102666666Y-60445295D02*
X102666666Y-60588152D01*
X102666666Y-60588152D02*
X102619047Y-60683390D01*
X102619047Y-60683390D02*
X102571428Y-60731009D01*
X102571428Y-60731009D02*
X102476190Y-60778628D01*
X102476190Y-60778628D02*
X102095238Y-60778628D01*
X103095238Y-60731009D02*
X103428571Y-60731009D01*
X103571428Y-61254819D02*
X103095238Y-61254819D01*
X103095238Y-61254819D02*
X103095238Y-60254819D01*
X103095238Y-60254819D02*
X103571428Y-60254819D01*
X104333333Y-60731009D02*
X104000000Y-60731009D01*
X104000000Y-61254819D02*
X104000000Y-60254819D01*
X104000000Y-60254819D02*
X104476190Y-60254819D01*
X105000000Y-60254819D02*
X105000000Y-60492914D01*
X104761905Y-60397676D02*
X105000000Y-60492914D01*
X105000000Y-60492914D02*
X105238095Y-60397676D01*
X104857143Y-60683390D02*
X105000000Y-60492914D01*
X105000000Y-60492914D02*
X105142857Y-60683390D01*
X105761905Y-60254819D02*
X105761905Y-60492914D01*
X105523810Y-60397676D02*
X105761905Y-60492914D01*
X105761905Y-60492914D02*
X106000000Y-60397676D01*
X105619048Y-60683390D02*
X105761905Y-60492914D01*
X105761905Y-60492914D02*
X105904762Y-60683390D01*
X98666666Y-42806819D02*
X98333333Y-42330628D01*
X98095238Y-42806819D02*
X98095238Y-41806819D01*
X98095238Y-41806819D02*
X98476190Y-41806819D01*
X98476190Y-41806819D02*
X98571428Y-41854438D01*
X98571428Y-41854438D02*
X98619047Y-41902057D01*
X98619047Y-41902057D02*
X98666666Y-41997295D01*
X98666666Y-41997295D02*
X98666666Y-42140152D01*
X98666666Y-42140152D02*
X98619047Y-42235390D01*
X98619047Y-42235390D02*
X98571428Y-42283009D01*
X98571428Y-42283009D02*
X98476190Y-42330628D01*
X98476190Y-42330628D02*
X98095238Y-42330628D01*
X99095238Y-42283009D02*
X99428571Y-42283009D01*
X99571428Y-42806819D02*
X99095238Y-42806819D01*
X99095238Y-42806819D02*
X99095238Y-41806819D01*
X99095238Y-41806819D02*
X99571428Y-41806819D01*
X100333333Y-42283009D02*
X100000000Y-42283009D01*
X100000000Y-42806819D02*
X100000000Y-41806819D01*
X100000000Y-41806819D02*
X100476190Y-41806819D01*
X101000000Y-41806819D02*
X101000000Y-42044914D01*
X100761905Y-41949676D02*
X101000000Y-42044914D01*
X101000000Y-42044914D02*
X101238095Y-41949676D01*
X100857143Y-42235390D02*
X101000000Y-42044914D01*
X101000000Y-42044914D02*
X101142857Y-42235390D01*
X101761905Y-41806819D02*
X101761905Y-42044914D01*
X101523810Y-41949676D02*
X101761905Y-42044914D01*
X101761905Y-42044914D02*
X102000000Y-41949676D01*
X101619048Y-42235390D02*
X101761905Y-42044914D01*
X101761905Y-42044914D02*
X101904762Y-42235390D01*
X61504819Y-95833333D02*
X61028628Y-96166666D01*
X61504819Y-96404761D02*
X60504819Y-96404761D01*
X60504819Y-96404761D02*
X60504819Y-96023809D01*
X60504819Y-96023809D02*
X60552438Y-95928571D01*
X60552438Y-95928571D02*
X60600057Y-95880952D01*
X60600057Y-95880952D02*
X60695295Y-95833333D01*
X60695295Y-95833333D02*
X60838152Y-95833333D01*
X60838152Y-95833333D02*
X60933390Y-95880952D01*
X60933390Y-95880952D02*
X60981009Y-95928571D01*
X60981009Y-95928571D02*
X61028628Y-96023809D01*
X61028628Y-96023809D02*
X61028628Y-96404761D01*
X60981009Y-95404761D02*
X60981009Y-95071428D01*
X61504819Y-94928571D02*
X61504819Y-95404761D01*
X61504819Y-95404761D02*
X60504819Y-95404761D01*
X60504819Y-95404761D02*
X60504819Y-94928571D01*
X60981009Y-94166666D02*
X60981009Y-94499999D01*
X61504819Y-94499999D02*
X60504819Y-94499999D01*
X60504819Y-94499999D02*
X60504819Y-94023809D01*
X60504819Y-93499999D02*
X60742914Y-93499999D01*
X60647676Y-93738094D02*
X60742914Y-93499999D01*
X60742914Y-93499999D02*
X60647676Y-93261904D01*
X60933390Y-93642856D02*
X60742914Y-93499999D01*
X60742914Y-93499999D02*
X60933390Y-93357142D01*
X60504819Y-92738094D02*
X60742914Y-92738094D01*
X60647676Y-92976189D02*
X60742914Y-92738094D01*
X60742914Y-92738094D02*
X60647676Y-92499999D01*
X60933390Y-92880951D02*
X60742914Y-92738094D01*
X60742914Y-92738094D02*
X60933390Y-92595237D01*
X67666666Y-61254819D02*
X67333333Y-60778628D01*
X67095238Y-61254819D02*
X67095238Y-60254819D01*
X67095238Y-60254819D02*
X67476190Y-60254819D01*
X67476190Y-60254819D02*
X67571428Y-60302438D01*
X67571428Y-60302438D02*
X67619047Y-60350057D01*
X67619047Y-60350057D02*
X67666666Y-60445295D01*
X67666666Y-60445295D02*
X67666666Y-60588152D01*
X67666666Y-60588152D02*
X67619047Y-60683390D01*
X67619047Y-60683390D02*
X67571428Y-60731009D01*
X67571428Y-60731009D02*
X67476190Y-60778628D01*
X67476190Y-60778628D02*
X67095238Y-60778628D01*
X68095238Y-60731009D02*
X68428571Y-60731009D01*
X68571428Y-61254819D02*
X68095238Y-61254819D01*
X68095238Y-61254819D02*
X68095238Y-60254819D01*
X68095238Y-60254819D02*
X68571428Y-60254819D01*
X69333333Y-60731009D02*
X69000000Y-60731009D01*
X69000000Y-61254819D02*
X69000000Y-60254819D01*
X69000000Y-60254819D02*
X69476190Y-60254819D01*
X70000000Y-60254819D02*
X70000000Y-60492914D01*
X69761905Y-60397676D02*
X70000000Y-60492914D01*
X70000000Y-60492914D02*
X70238095Y-60397676D01*
X69857143Y-60683390D02*
X70000000Y-60492914D01*
X70000000Y-60492914D02*
X70142857Y-60683390D01*
X70761905Y-60254819D02*
X70761905Y-60492914D01*
X70523810Y-60397676D02*
X70761905Y-60492914D01*
X70761905Y-60492914D02*
X71000000Y-60397676D01*
X70619048Y-60683390D02*
X70761905Y-60492914D01*
X70761905Y-60492914D02*
X70904762Y-60683390D01*
X141204819Y-147283333D02*
X140728628Y-147616666D01*
X141204819Y-147854761D02*
X140204819Y-147854761D01*
X140204819Y-147854761D02*
X140204819Y-147473809D01*
X140204819Y-147473809D02*
X140252438Y-147378571D01*
X140252438Y-147378571D02*
X140300057Y-147330952D01*
X140300057Y-147330952D02*
X140395295Y-147283333D01*
X140395295Y-147283333D02*
X140538152Y-147283333D01*
X140538152Y-147283333D02*
X140633390Y-147330952D01*
X140633390Y-147330952D02*
X140681009Y-147378571D01*
X140681009Y-147378571D02*
X140728628Y-147473809D01*
X140728628Y-147473809D02*
X140728628Y-147854761D01*
X140681009Y-146854761D02*
X140681009Y-146521428D01*
X141204819Y-146378571D02*
X141204819Y-146854761D01*
X141204819Y-146854761D02*
X140204819Y-146854761D01*
X140204819Y-146854761D02*
X140204819Y-146378571D01*
X140681009Y-145616666D02*
X140681009Y-145949999D01*
X141204819Y-145949999D02*
X140204819Y-145949999D01*
X140204819Y-145949999D02*
X140204819Y-145473809D01*
X140204819Y-144949999D02*
X140442914Y-144949999D01*
X140347676Y-145188094D02*
X140442914Y-144949999D01*
X140442914Y-144949999D02*
X140347676Y-144711904D01*
X140633390Y-145092856D02*
X140442914Y-144949999D01*
X140442914Y-144949999D02*
X140633390Y-144807142D01*
X140204819Y-144188094D02*
X140442914Y-144188094D01*
X140347676Y-144426189D02*
X140442914Y-144188094D01*
X140442914Y-144188094D02*
X140347676Y-143949999D01*
X140633390Y-144330951D02*
X140442914Y-144188094D01*
X140442914Y-144188094D02*
X140633390Y-144045237D01*
X121666666Y-60574819D02*
X121333333Y-60098628D01*
X121095238Y-60574819D02*
X121095238Y-59574819D01*
X121095238Y-59574819D02*
X121476190Y-59574819D01*
X121476190Y-59574819D02*
X121571428Y-59622438D01*
X121571428Y-59622438D02*
X121619047Y-59670057D01*
X121619047Y-59670057D02*
X121666666Y-59765295D01*
X121666666Y-59765295D02*
X121666666Y-59908152D01*
X121666666Y-59908152D02*
X121619047Y-60003390D01*
X121619047Y-60003390D02*
X121571428Y-60051009D01*
X121571428Y-60051009D02*
X121476190Y-60098628D01*
X121476190Y-60098628D02*
X121095238Y-60098628D01*
X122095238Y-60051009D02*
X122428571Y-60051009D01*
X122571428Y-60574819D02*
X122095238Y-60574819D01*
X122095238Y-60574819D02*
X122095238Y-59574819D01*
X122095238Y-59574819D02*
X122571428Y-59574819D01*
X123333333Y-60051009D02*
X123000000Y-60051009D01*
X123000000Y-60574819D02*
X123000000Y-59574819D01*
X123000000Y-59574819D02*
X123476190Y-59574819D01*
X124000000Y-59574819D02*
X124000000Y-59812914D01*
X123761905Y-59717676D02*
X124000000Y-59812914D01*
X124000000Y-59812914D02*
X124238095Y-59717676D01*
X123857143Y-60003390D02*
X124000000Y-59812914D01*
X124000000Y-59812914D02*
X124142857Y-60003390D01*
X124761905Y-59574819D02*
X124761905Y-59812914D01*
X124523810Y-59717676D02*
X124761905Y-59812914D01*
X124761905Y-59812914D02*
X125000000Y-59717676D01*
X124619048Y-60003390D02*
X124761905Y-59812914D01*
X124761905Y-59812914D02*
X124904762Y-60003390D01*
X67666666Y-101754819D02*
X67333333Y-101278628D01*
X67095238Y-101754819D02*
X67095238Y-100754819D01*
X67095238Y-100754819D02*
X67476190Y-100754819D01*
X67476190Y-100754819D02*
X67571428Y-100802438D01*
X67571428Y-100802438D02*
X67619047Y-100850057D01*
X67619047Y-100850057D02*
X67666666Y-100945295D01*
X67666666Y-100945295D02*
X67666666Y-101088152D01*
X67666666Y-101088152D02*
X67619047Y-101183390D01*
X67619047Y-101183390D02*
X67571428Y-101231009D01*
X67571428Y-101231009D02*
X67476190Y-101278628D01*
X67476190Y-101278628D02*
X67095238Y-101278628D01*
X68095238Y-101231009D02*
X68428571Y-101231009D01*
X68571428Y-101754819D02*
X68095238Y-101754819D01*
X68095238Y-101754819D02*
X68095238Y-100754819D01*
X68095238Y-100754819D02*
X68571428Y-100754819D01*
X69333333Y-101231009D02*
X69000000Y-101231009D01*
X69000000Y-101754819D02*
X69000000Y-100754819D01*
X69000000Y-100754819D02*
X69476190Y-100754819D01*
X70000000Y-100754819D02*
X70000000Y-100992914D01*
X69761905Y-100897676D02*
X70000000Y-100992914D01*
X70000000Y-100992914D02*
X70238095Y-100897676D01*
X69857143Y-101183390D02*
X70000000Y-100992914D01*
X70000000Y-100992914D02*
X70142857Y-101183390D01*
X70761905Y-100754819D02*
X70761905Y-100992914D01*
X70523810Y-100897676D02*
X70761905Y-100992914D01*
X70761905Y-100992914D02*
X71000000Y-100897676D01*
X70619048Y-101183390D02*
X70761905Y-100992914D01*
X70761905Y-100992914D02*
X70904762Y-101183390D01*
X177204819Y-147283333D02*
X176728628Y-147616666D01*
X177204819Y-147854761D02*
X176204819Y-147854761D01*
X176204819Y-147854761D02*
X176204819Y-147473809D01*
X176204819Y-147473809D02*
X176252438Y-147378571D01*
X176252438Y-147378571D02*
X176300057Y-147330952D01*
X176300057Y-147330952D02*
X176395295Y-147283333D01*
X176395295Y-147283333D02*
X176538152Y-147283333D01*
X176538152Y-147283333D02*
X176633390Y-147330952D01*
X176633390Y-147330952D02*
X176681009Y-147378571D01*
X176681009Y-147378571D02*
X176728628Y-147473809D01*
X176728628Y-147473809D02*
X176728628Y-147854761D01*
X176681009Y-146854761D02*
X176681009Y-146521428D01*
X177204819Y-146378571D02*
X177204819Y-146854761D01*
X177204819Y-146854761D02*
X176204819Y-146854761D01*
X176204819Y-146854761D02*
X176204819Y-146378571D01*
X176681009Y-145616666D02*
X176681009Y-145949999D01*
X177204819Y-145949999D02*
X176204819Y-145949999D01*
X176204819Y-145949999D02*
X176204819Y-145473809D01*
X176204819Y-144949999D02*
X176442914Y-144949999D01*
X176347676Y-145188094D02*
X176442914Y-144949999D01*
X176442914Y-144949999D02*
X176347676Y-144711904D01*
X176633390Y-145092856D02*
X176442914Y-144949999D01*
X176442914Y-144949999D02*
X176633390Y-144807142D01*
X176204819Y-144188094D02*
X176442914Y-144188094D01*
X176347676Y-144426189D02*
X176442914Y-144188094D01*
X176442914Y-144188094D02*
X176347676Y-143949999D01*
X176633390Y-144330951D02*
X176442914Y-144188094D01*
X176442914Y-144188094D02*
X176633390Y-144045237D01*
X147166666Y-60574819D02*
X146833333Y-60098628D01*
X146595238Y-60574819D02*
X146595238Y-59574819D01*
X146595238Y-59574819D02*
X146976190Y-59574819D01*
X146976190Y-59574819D02*
X147071428Y-59622438D01*
X147071428Y-59622438D02*
X147119047Y-59670057D01*
X147119047Y-59670057D02*
X147166666Y-59765295D01*
X147166666Y-59765295D02*
X147166666Y-59908152D01*
X147166666Y-59908152D02*
X147119047Y-60003390D01*
X147119047Y-60003390D02*
X147071428Y-60051009D01*
X147071428Y-60051009D02*
X146976190Y-60098628D01*
X146976190Y-60098628D02*
X146595238Y-60098628D01*
X147595238Y-60051009D02*
X147928571Y-60051009D01*
X148071428Y-60574819D02*
X147595238Y-60574819D01*
X147595238Y-60574819D02*
X147595238Y-59574819D01*
X147595238Y-59574819D02*
X148071428Y-59574819D01*
X148833333Y-60051009D02*
X148500000Y-60051009D01*
X148500000Y-60574819D02*
X148500000Y-59574819D01*
X148500000Y-59574819D02*
X148976190Y-59574819D01*
X149500000Y-59574819D02*
X149500000Y-59812914D01*
X149261905Y-59717676D02*
X149500000Y-59812914D01*
X149500000Y-59812914D02*
X149738095Y-59717676D01*
X149357143Y-60003390D02*
X149500000Y-59812914D01*
X149500000Y-59812914D02*
X149642857Y-60003390D01*
X150261905Y-59574819D02*
X150261905Y-59812914D01*
X150023810Y-59717676D02*
X150261905Y-59812914D01*
X150261905Y-59812914D02*
X150500000Y-59717676D01*
X150119048Y-60003390D02*
X150261905Y-59812914D01*
X150261905Y-59812914D02*
X150404762Y-60003390D01*
X152706666Y-140634819D02*
X152373333Y-140158628D01*
X152135238Y-140634819D02*
X152135238Y-139634819D01*
X152135238Y-139634819D02*
X152516190Y-139634819D01*
X152516190Y-139634819D02*
X152611428Y-139682438D01*
X152611428Y-139682438D02*
X152659047Y-139730057D01*
X152659047Y-139730057D02*
X152706666Y-139825295D01*
X152706666Y-139825295D02*
X152706666Y-139968152D01*
X152706666Y-139968152D02*
X152659047Y-140063390D01*
X152659047Y-140063390D02*
X152611428Y-140111009D01*
X152611428Y-140111009D02*
X152516190Y-140158628D01*
X152516190Y-140158628D02*
X152135238Y-140158628D01*
X153135238Y-140111009D02*
X153468571Y-140111009D01*
X153611428Y-140634819D02*
X153135238Y-140634819D01*
X153135238Y-140634819D02*
X153135238Y-139634819D01*
X153135238Y-139634819D02*
X153611428Y-139634819D01*
X154373333Y-140111009D02*
X154040000Y-140111009D01*
X154040000Y-140634819D02*
X154040000Y-139634819D01*
X154040000Y-139634819D02*
X154516190Y-139634819D01*
X155040000Y-139634819D02*
X155040000Y-139872914D01*
X154801905Y-139777676D02*
X155040000Y-139872914D01*
X155040000Y-139872914D02*
X155278095Y-139777676D01*
X154897143Y-140063390D02*
X155040000Y-139872914D01*
X155040000Y-139872914D02*
X155182857Y-140063390D01*
X155801905Y-139634819D02*
X155801905Y-139872914D01*
X155563810Y-139777676D02*
X155801905Y-139872914D01*
X155801905Y-139872914D02*
X156040000Y-139777676D01*
X155659048Y-140063390D02*
X155801905Y-139872914D01*
X155801905Y-139872914D02*
X155944762Y-140063390D01*
X83074819Y-58833333D02*
X82598628Y-59166666D01*
X83074819Y-59404761D02*
X82074819Y-59404761D01*
X82074819Y-59404761D02*
X82074819Y-59023809D01*
X82074819Y-59023809D02*
X82122438Y-58928571D01*
X82122438Y-58928571D02*
X82170057Y-58880952D01*
X82170057Y-58880952D02*
X82265295Y-58833333D01*
X82265295Y-58833333D02*
X82408152Y-58833333D01*
X82408152Y-58833333D02*
X82503390Y-58880952D01*
X82503390Y-58880952D02*
X82551009Y-58928571D01*
X82551009Y-58928571D02*
X82598628Y-59023809D01*
X82598628Y-59023809D02*
X82598628Y-59404761D01*
X82551009Y-58404761D02*
X82551009Y-58071428D01*
X83074819Y-57928571D02*
X83074819Y-58404761D01*
X83074819Y-58404761D02*
X82074819Y-58404761D01*
X82074819Y-58404761D02*
X82074819Y-57928571D01*
X82551009Y-57166666D02*
X82551009Y-57499999D01*
X83074819Y-57499999D02*
X82074819Y-57499999D01*
X82074819Y-57499999D02*
X82074819Y-57023809D01*
X82074819Y-56499999D02*
X82312914Y-56499999D01*
X82217676Y-56738094D02*
X82312914Y-56499999D01*
X82312914Y-56499999D02*
X82217676Y-56261904D01*
X82503390Y-56642856D02*
X82312914Y-56499999D01*
X82312914Y-56499999D02*
X82503390Y-56357142D01*
X82074819Y-55738094D02*
X82312914Y-55738094D01*
X82217676Y-55976189D02*
X82312914Y-55738094D01*
X82312914Y-55738094D02*
X82217676Y-55499999D01*
X82503390Y-55880951D02*
X82312914Y-55738094D01*
X82312914Y-55738094D02*
X82503390Y-55595237D01*
X116671666Y-50774819D02*
X116338333Y-50298628D01*
X116100238Y-50774819D02*
X116100238Y-49774819D01*
X116100238Y-49774819D02*
X116481190Y-49774819D01*
X116481190Y-49774819D02*
X116576428Y-49822438D01*
X116576428Y-49822438D02*
X116624047Y-49870057D01*
X116624047Y-49870057D02*
X116671666Y-49965295D01*
X116671666Y-49965295D02*
X116671666Y-50108152D01*
X116671666Y-50108152D02*
X116624047Y-50203390D01*
X116624047Y-50203390D02*
X116576428Y-50251009D01*
X116576428Y-50251009D02*
X116481190Y-50298628D01*
X116481190Y-50298628D02*
X116100238Y-50298628D01*
X117100238Y-50251009D02*
X117433571Y-50251009D01*
X117576428Y-50774819D02*
X117100238Y-50774819D01*
X117100238Y-50774819D02*
X117100238Y-49774819D01*
X117100238Y-49774819D02*
X117576428Y-49774819D01*
X118338333Y-50251009D02*
X118005000Y-50251009D01*
X118005000Y-50774819D02*
X118005000Y-49774819D01*
X118005000Y-49774819D02*
X118481190Y-49774819D01*
X119005000Y-49774819D02*
X119005000Y-50012914D01*
X118766905Y-49917676D02*
X119005000Y-50012914D01*
X119005000Y-50012914D02*
X119243095Y-49917676D01*
X118862143Y-50203390D02*
X119005000Y-50012914D01*
X119005000Y-50012914D02*
X119147857Y-50203390D01*
X119766905Y-49774819D02*
X119766905Y-50012914D01*
X119528810Y-49917676D02*
X119766905Y-50012914D01*
X119766905Y-50012914D02*
X120005000Y-49917676D01*
X119624048Y-50203390D02*
X119766905Y-50012914D01*
X119766905Y-50012914D02*
X119909762Y-50203390D01*
X66204819Y-147283333D02*
X65728628Y-147616666D01*
X66204819Y-147854761D02*
X65204819Y-147854761D01*
X65204819Y-147854761D02*
X65204819Y-147473809D01*
X65204819Y-147473809D02*
X65252438Y-147378571D01*
X65252438Y-147378571D02*
X65300057Y-147330952D01*
X65300057Y-147330952D02*
X65395295Y-147283333D01*
X65395295Y-147283333D02*
X65538152Y-147283333D01*
X65538152Y-147283333D02*
X65633390Y-147330952D01*
X65633390Y-147330952D02*
X65681009Y-147378571D01*
X65681009Y-147378571D02*
X65728628Y-147473809D01*
X65728628Y-147473809D02*
X65728628Y-147854761D01*
X65681009Y-146854761D02*
X65681009Y-146521428D01*
X66204819Y-146378571D02*
X66204819Y-146854761D01*
X66204819Y-146854761D02*
X65204819Y-146854761D01*
X65204819Y-146854761D02*
X65204819Y-146378571D01*
X65681009Y-145616666D02*
X65681009Y-145949999D01*
X66204819Y-145949999D02*
X65204819Y-145949999D01*
X65204819Y-145949999D02*
X65204819Y-145473809D01*
X65204819Y-144949999D02*
X65442914Y-144949999D01*
X65347676Y-145188094D02*
X65442914Y-144949999D01*
X65442914Y-144949999D02*
X65347676Y-144711904D01*
X65633390Y-145092856D02*
X65442914Y-144949999D01*
X65442914Y-144949999D02*
X65633390Y-144807142D01*
X65204819Y-144188094D02*
X65442914Y-144188094D01*
X65347676Y-144426189D02*
X65442914Y-144188094D01*
X65442914Y-144188094D02*
X65347676Y-143949999D01*
X65633390Y-144330951D02*
X65442914Y-144188094D01*
X65442914Y-144188094D02*
X65633390Y-144045237D01*
X103666666Y-114454819D02*
X103333333Y-113978628D01*
X103095238Y-114454819D02*
X103095238Y-113454819D01*
X103095238Y-113454819D02*
X103476190Y-113454819D01*
X103476190Y-113454819D02*
X103571428Y-113502438D01*
X103571428Y-113502438D02*
X103619047Y-113550057D01*
X103619047Y-113550057D02*
X103666666Y-113645295D01*
X103666666Y-113645295D02*
X103666666Y-113788152D01*
X103666666Y-113788152D02*
X103619047Y-113883390D01*
X103619047Y-113883390D02*
X103571428Y-113931009D01*
X103571428Y-113931009D02*
X103476190Y-113978628D01*
X103476190Y-113978628D02*
X103095238Y-113978628D01*
X104095238Y-113931009D02*
X104428571Y-113931009D01*
X104571428Y-114454819D02*
X104095238Y-114454819D01*
X104095238Y-114454819D02*
X104095238Y-113454819D01*
X104095238Y-113454819D02*
X104571428Y-113454819D01*
X105333333Y-113931009D02*
X105000000Y-113931009D01*
X105000000Y-114454819D02*
X105000000Y-113454819D01*
X105000000Y-113454819D02*
X105476190Y-113454819D01*
X106000000Y-113454819D02*
X106000000Y-113692914D01*
X105761905Y-113597676D02*
X106000000Y-113692914D01*
X106000000Y-113692914D02*
X106238095Y-113597676D01*
X105857143Y-113883390D02*
X106000000Y-113692914D01*
X106000000Y-113692914D02*
X106142857Y-113883390D01*
X106761905Y-113454819D02*
X106761905Y-113692914D01*
X106523810Y-113597676D02*
X106761905Y-113692914D01*
X106761905Y-113692914D02*
X107000000Y-113597676D01*
X106619048Y-113883390D02*
X106761905Y-113692914D01*
X106761905Y-113692914D02*
X106904762Y-113883390D01*
X102666666Y-101754819D02*
X102333333Y-101278628D01*
X102095238Y-101754819D02*
X102095238Y-100754819D01*
X102095238Y-100754819D02*
X102476190Y-100754819D01*
X102476190Y-100754819D02*
X102571428Y-100802438D01*
X102571428Y-100802438D02*
X102619047Y-100850057D01*
X102619047Y-100850057D02*
X102666666Y-100945295D01*
X102666666Y-100945295D02*
X102666666Y-101088152D01*
X102666666Y-101088152D02*
X102619047Y-101183390D01*
X102619047Y-101183390D02*
X102571428Y-101231009D01*
X102571428Y-101231009D02*
X102476190Y-101278628D01*
X102476190Y-101278628D02*
X102095238Y-101278628D01*
X103095238Y-101231009D02*
X103428571Y-101231009D01*
X103571428Y-101754819D02*
X103095238Y-101754819D01*
X103095238Y-101754819D02*
X103095238Y-100754819D01*
X103095238Y-100754819D02*
X103571428Y-100754819D01*
X104333333Y-101231009D02*
X104000000Y-101231009D01*
X104000000Y-101754819D02*
X104000000Y-100754819D01*
X104000000Y-100754819D02*
X104476190Y-100754819D01*
X105000000Y-100754819D02*
X105000000Y-100992914D01*
X104761905Y-100897676D02*
X105000000Y-100992914D01*
X105000000Y-100992914D02*
X105238095Y-100897676D01*
X104857143Y-101183390D02*
X105000000Y-100992914D01*
X105000000Y-100992914D02*
X105142857Y-101183390D01*
X105761905Y-100754819D02*
X105761905Y-100992914D01*
X105523810Y-100897676D02*
X105761905Y-100992914D01*
X105761905Y-100992914D02*
X106000000Y-100897676D01*
X105619048Y-101183390D02*
X105761905Y-100992914D01*
X105761905Y-100992914D02*
X105904762Y-101183390D01*
X117666666Y-60574819D02*
X117333333Y-60098628D01*
X117095238Y-60574819D02*
X117095238Y-59574819D01*
X117095238Y-59574819D02*
X117476190Y-59574819D01*
X117476190Y-59574819D02*
X117571428Y-59622438D01*
X117571428Y-59622438D02*
X117619047Y-59670057D01*
X117619047Y-59670057D02*
X117666666Y-59765295D01*
X117666666Y-59765295D02*
X117666666Y-59908152D01*
X117666666Y-59908152D02*
X117619047Y-60003390D01*
X117619047Y-60003390D02*
X117571428Y-60051009D01*
X117571428Y-60051009D02*
X117476190Y-60098628D01*
X117476190Y-60098628D02*
X117095238Y-60098628D01*
X118095238Y-60051009D02*
X118428571Y-60051009D01*
X118571428Y-60574819D02*
X118095238Y-60574819D01*
X118095238Y-60574819D02*
X118095238Y-59574819D01*
X118095238Y-59574819D02*
X118571428Y-59574819D01*
X119333333Y-60051009D02*
X119000000Y-60051009D01*
X119000000Y-60574819D02*
X119000000Y-59574819D01*
X119000000Y-59574819D02*
X119476190Y-59574819D01*
X120000000Y-59574819D02*
X120000000Y-59812914D01*
X119761905Y-59717676D02*
X120000000Y-59812914D01*
X120000000Y-59812914D02*
X120238095Y-59717676D01*
X119857143Y-60003390D02*
X120000000Y-59812914D01*
X120000000Y-59812914D02*
X120142857Y-60003390D01*
X120761905Y-59574819D02*
X120761905Y-59812914D01*
X120523810Y-59717676D02*
X120761905Y-59812914D01*
X120761905Y-59812914D02*
X121000000Y-59717676D01*
X120619048Y-60003390D02*
X120761905Y-59812914D01*
X120761905Y-59812914D02*
X120904762Y-60003390D01*
X152746666Y-128584819D02*
X152413333Y-128108628D01*
X152175238Y-128584819D02*
X152175238Y-127584819D01*
X152175238Y-127584819D02*
X152556190Y-127584819D01*
X152556190Y-127584819D02*
X152651428Y-127632438D01*
X152651428Y-127632438D02*
X152699047Y-127680057D01*
X152699047Y-127680057D02*
X152746666Y-127775295D01*
X152746666Y-127775295D02*
X152746666Y-127918152D01*
X152746666Y-127918152D02*
X152699047Y-128013390D01*
X152699047Y-128013390D02*
X152651428Y-128061009D01*
X152651428Y-128061009D02*
X152556190Y-128108628D01*
X152556190Y-128108628D02*
X152175238Y-128108628D01*
X153175238Y-128061009D02*
X153508571Y-128061009D01*
X153651428Y-128584819D02*
X153175238Y-128584819D01*
X153175238Y-128584819D02*
X153175238Y-127584819D01*
X153175238Y-127584819D02*
X153651428Y-127584819D01*
X154413333Y-128061009D02*
X154080000Y-128061009D01*
X154080000Y-128584819D02*
X154080000Y-127584819D01*
X154080000Y-127584819D02*
X154556190Y-127584819D01*
X155080000Y-127584819D02*
X155080000Y-127822914D01*
X154841905Y-127727676D02*
X155080000Y-127822914D01*
X155080000Y-127822914D02*
X155318095Y-127727676D01*
X154937143Y-128013390D02*
X155080000Y-127822914D01*
X155080000Y-127822914D02*
X155222857Y-128013390D01*
X155841905Y-127584819D02*
X155841905Y-127822914D01*
X155603810Y-127727676D02*
X155841905Y-127822914D01*
X155841905Y-127822914D02*
X156080000Y-127727676D01*
X155699048Y-128013390D02*
X155841905Y-127822914D01*
X155841905Y-127822914D02*
X155984762Y-128013390D01*
X151626666Y-50774819D02*
X151293333Y-50298628D01*
X151055238Y-50774819D02*
X151055238Y-49774819D01*
X151055238Y-49774819D02*
X151436190Y-49774819D01*
X151436190Y-49774819D02*
X151531428Y-49822438D01*
X151531428Y-49822438D02*
X151579047Y-49870057D01*
X151579047Y-49870057D02*
X151626666Y-49965295D01*
X151626666Y-49965295D02*
X151626666Y-50108152D01*
X151626666Y-50108152D02*
X151579047Y-50203390D01*
X151579047Y-50203390D02*
X151531428Y-50251009D01*
X151531428Y-50251009D02*
X151436190Y-50298628D01*
X151436190Y-50298628D02*
X151055238Y-50298628D01*
X152055238Y-50251009D02*
X152388571Y-50251009D01*
X152531428Y-50774819D02*
X152055238Y-50774819D01*
X152055238Y-50774819D02*
X152055238Y-49774819D01*
X152055238Y-49774819D02*
X152531428Y-49774819D01*
X153293333Y-50251009D02*
X152960000Y-50251009D01*
X152960000Y-50774819D02*
X152960000Y-49774819D01*
X152960000Y-49774819D02*
X153436190Y-49774819D01*
X153960000Y-49774819D02*
X153960000Y-50012914D01*
X153721905Y-49917676D02*
X153960000Y-50012914D01*
X153960000Y-50012914D02*
X154198095Y-49917676D01*
X153817143Y-50203390D02*
X153960000Y-50012914D01*
X153960000Y-50012914D02*
X154102857Y-50203390D01*
X154721905Y-49774819D02*
X154721905Y-50012914D01*
X154483810Y-49917676D02*
X154721905Y-50012914D01*
X154721905Y-50012914D02*
X154960000Y-49917676D01*
X154579048Y-50203390D02*
X154721905Y-50012914D01*
X154721905Y-50012914D02*
X154864762Y-50203390D01*
X85666666Y-111704819D02*
X85333333Y-111228628D01*
X85095238Y-111704819D02*
X85095238Y-110704819D01*
X85095238Y-110704819D02*
X85476190Y-110704819D01*
X85476190Y-110704819D02*
X85571428Y-110752438D01*
X85571428Y-110752438D02*
X85619047Y-110800057D01*
X85619047Y-110800057D02*
X85666666Y-110895295D01*
X85666666Y-110895295D02*
X85666666Y-111038152D01*
X85666666Y-111038152D02*
X85619047Y-111133390D01*
X85619047Y-111133390D02*
X85571428Y-111181009D01*
X85571428Y-111181009D02*
X85476190Y-111228628D01*
X85476190Y-111228628D02*
X85095238Y-111228628D01*
X86095238Y-111181009D02*
X86428571Y-111181009D01*
X86571428Y-111704819D02*
X86095238Y-111704819D01*
X86095238Y-111704819D02*
X86095238Y-110704819D01*
X86095238Y-110704819D02*
X86571428Y-110704819D01*
X87333333Y-111181009D02*
X87000000Y-111181009D01*
X87000000Y-111704819D02*
X87000000Y-110704819D01*
X87000000Y-110704819D02*
X87476190Y-110704819D01*
X88000000Y-110704819D02*
X88000000Y-110942914D01*
X87761905Y-110847676D02*
X88000000Y-110942914D01*
X88000000Y-110942914D02*
X88238095Y-110847676D01*
X87857143Y-111133390D02*
X88000000Y-110942914D01*
X88000000Y-110942914D02*
X88142857Y-111133390D01*
X88761905Y-110704819D02*
X88761905Y-110942914D01*
X88523810Y-110847676D02*
X88761905Y-110942914D01*
X88761905Y-110942914D02*
X89000000Y-110847676D01*
X88619048Y-111133390D02*
X88761905Y-110942914D01*
X88761905Y-110942914D02*
X88904762Y-111133390D01*
X138706666Y-115184819D02*
X138373333Y-114708628D01*
X138135238Y-115184819D02*
X138135238Y-114184819D01*
X138135238Y-114184819D02*
X138516190Y-114184819D01*
X138516190Y-114184819D02*
X138611428Y-114232438D01*
X138611428Y-114232438D02*
X138659047Y-114280057D01*
X138659047Y-114280057D02*
X138706666Y-114375295D01*
X138706666Y-114375295D02*
X138706666Y-114518152D01*
X138706666Y-114518152D02*
X138659047Y-114613390D01*
X138659047Y-114613390D02*
X138611428Y-114661009D01*
X138611428Y-114661009D02*
X138516190Y-114708628D01*
X138516190Y-114708628D02*
X138135238Y-114708628D01*
X139135238Y-114661009D02*
X139468571Y-114661009D01*
X139611428Y-115184819D02*
X139135238Y-115184819D01*
X139135238Y-115184819D02*
X139135238Y-114184819D01*
X139135238Y-114184819D02*
X139611428Y-114184819D01*
X140373333Y-114661009D02*
X140040000Y-114661009D01*
X140040000Y-115184819D02*
X140040000Y-114184819D01*
X140040000Y-114184819D02*
X140516190Y-114184819D01*
X141040000Y-114184819D02*
X141040000Y-114422914D01*
X140801905Y-114327676D02*
X141040000Y-114422914D01*
X141040000Y-114422914D02*
X141278095Y-114327676D01*
X140897143Y-114613390D02*
X141040000Y-114422914D01*
X141040000Y-114422914D02*
X141182857Y-114613390D01*
X141801905Y-114184819D02*
X141801905Y-114422914D01*
X141563810Y-114327676D02*
X141801905Y-114422914D01*
X141801905Y-114422914D02*
X142040000Y-114327676D01*
X141659048Y-114613390D02*
X141801905Y-114422914D01*
X141801905Y-114422914D02*
X141944762Y-114613390D01*
X132724819Y-122373333D02*
X132248628Y-122706666D01*
X132724819Y-122944761D02*
X131724819Y-122944761D01*
X131724819Y-122944761D02*
X131724819Y-122563809D01*
X131724819Y-122563809D02*
X131772438Y-122468571D01*
X131772438Y-122468571D02*
X131820057Y-122420952D01*
X131820057Y-122420952D02*
X131915295Y-122373333D01*
X131915295Y-122373333D02*
X132058152Y-122373333D01*
X132058152Y-122373333D02*
X132153390Y-122420952D01*
X132153390Y-122420952D02*
X132201009Y-122468571D01*
X132201009Y-122468571D02*
X132248628Y-122563809D01*
X132248628Y-122563809D02*
X132248628Y-122944761D01*
X132201009Y-121944761D02*
X132201009Y-121611428D01*
X132724819Y-121468571D02*
X132724819Y-121944761D01*
X132724819Y-121944761D02*
X131724819Y-121944761D01*
X131724819Y-121944761D02*
X131724819Y-121468571D01*
X132201009Y-120706666D02*
X132201009Y-121039999D01*
X132724819Y-121039999D02*
X131724819Y-121039999D01*
X131724819Y-121039999D02*
X131724819Y-120563809D01*
X131724819Y-120039999D02*
X131962914Y-120039999D01*
X131867676Y-120278094D02*
X131962914Y-120039999D01*
X131962914Y-120039999D02*
X131867676Y-119801904D01*
X132153390Y-120182856D02*
X131962914Y-120039999D01*
X131962914Y-120039999D02*
X132153390Y-119897142D01*
X131724819Y-119278094D02*
X131962914Y-119278094D01*
X131867676Y-119516189D02*
X131962914Y-119278094D01*
X131962914Y-119278094D02*
X131867676Y-119039999D01*
X132153390Y-119420951D02*
X131962914Y-119278094D01*
X131962914Y-119278094D02*
X132153390Y-119135237D01*
X151166666Y-60574819D02*
X150833333Y-60098628D01*
X150595238Y-60574819D02*
X150595238Y-59574819D01*
X150595238Y-59574819D02*
X150976190Y-59574819D01*
X150976190Y-59574819D02*
X151071428Y-59622438D01*
X151071428Y-59622438D02*
X151119047Y-59670057D01*
X151119047Y-59670057D02*
X151166666Y-59765295D01*
X151166666Y-59765295D02*
X151166666Y-59908152D01*
X151166666Y-59908152D02*
X151119047Y-60003390D01*
X151119047Y-60003390D02*
X151071428Y-60051009D01*
X151071428Y-60051009D02*
X150976190Y-60098628D01*
X150976190Y-60098628D02*
X150595238Y-60098628D01*
X151595238Y-60051009D02*
X151928571Y-60051009D01*
X152071428Y-60574819D02*
X151595238Y-60574819D01*
X151595238Y-60574819D02*
X151595238Y-59574819D01*
X151595238Y-59574819D02*
X152071428Y-59574819D01*
X152833333Y-60051009D02*
X152500000Y-60051009D01*
X152500000Y-60574819D02*
X152500000Y-59574819D01*
X152500000Y-59574819D02*
X152976190Y-59574819D01*
X153500000Y-59574819D02*
X153500000Y-59812914D01*
X153261905Y-59717676D02*
X153500000Y-59812914D01*
X153500000Y-59812914D02*
X153738095Y-59717676D01*
X153357143Y-60003390D02*
X153500000Y-59812914D01*
X153500000Y-59812914D02*
X153642857Y-60003390D01*
X154261905Y-59574819D02*
X154261905Y-59812914D01*
X154023810Y-59717676D02*
X154261905Y-59812914D01*
X154261905Y-59812914D02*
X154500000Y-59717676D01*
X154119048Y-60003390D02*
X154261905Y-59812914D01*
X154261905Y-59812914D02*
X154404762Y-60003390D01*
X103424819Y-124643333D02*
X102948628Y-124976666D01*
X103424819Y-125214761D02*
X102424819Y-125214761D01*
X102424819Y-125214761D02*
X102424819Y-124833809D01*
X102424819Y-124833809D02*
X102472438Y-124738571D01*
X102472438Y-124738571D02*
X102520057Y-124690952D01*
X102520057Y-124690952D02*
X102615295Y-124643333D01*
X102615295Y-124643333D02*
X102758152Y-124643333D01*
X102758152Y-124643333D02*
X102853390Y-124690952D01*
X102853390Y-124690952D02*
X102901009Y-124738571D01*
X102901009Y-124738571D02*
X102948628Y-124833809D01*
X102948628Y-124833809D02*
X102948628Y-125214761D01*
X102901009Y-124214761D02*
X102901009Y-123881428D01*
X103424819Y-123738571D02*
X103424819Y-124214761D01*
X103424819Y-124214761D02*
X102424819Y-124214761D01*
X102424819Y-124214761D02*
X102424819Y-123738571D01*
X102901009Y-122976666D02*
X102901009Y-123309999D01*
X103424819Y-123309999D02*
X102424819Y-123309999D01*
X102424819Y-123309999D02*
X102424819Y-122833809D01*
X102424819Y-122309999D02*
X102662914Y-122309999D01*
X102567676Y-122548094D02*
X102662914Y-122309999D01*
X102662914Y-122309999D02*
X102567676Y-122071904D01*
X102853390Y-122452856D02*
X102662914Y-122309999D01*
X102662914Y-122309999D02*
X102853390Y-122167142D01*
X102424819Y-121548094D02*
X102662914Y-121548094D01*
X102567676Y-121786189D02*
X102662914Y-121548094D01*
X102662914Y-121548094D02*
X102567676Y-121309999D01*
X102853390Y-121690951D02*
X102662914Y-121548094D01*
X102662914Y-121548094D02*
X102853390Y-121405237D01*
X103054819Y-119761904D02*
X102054819Y-119761904D01*
X103054819Y-119190476D02*
X102483390Y-119619047D01*
X102054819Y-119190476D02*
X102626247Y-119761904D01*
X91166666Y-111704819D02*
X90833333Y-111228628D01*
X90595238Y-111704819D02*
X90595238Y-110704819D01*
X90595238Y-110704819D02*
X90976190Y-110704819D01*
X90976190Y-110704819D02*
X91071428Y-110752438D01*
X91071428Y-110752438D02*
X91119047Y-110800057D01*
X91119047Y-110800057D02*
X91166666Y-110895295D01*
X91166666Y-110895295D02*
X91166666Y-111038152D01*
X91166666Y-111038152D02*
X91119047Y-111133390D01*
X91119047Y-111133390D02*
X91071428Y-111181009D01*
X91071428Y-111181009D02*
X90976190Y-111228628D01*
X90976190Y-111228628D02*
X90595238Y-111228628D01*
X91595238Y-111181009D02*
X91928571Y-111181009D01*
X92071428Y-111704819D02*
X91595238Y-111704819D01*
X91595238Y-111704819D02*
X91595238Y-110704819D01*
X91595238Y-110704819D02*
X92071428Y-110704819D01*
X92833333Y-111181009D02*
X92500000Y-111181009D01*
X92500000Y-111704819D02*
X92500000Y-110704819D01*
X92500000Y-110704819D02*
X92976190Y-110704819D01*
X93500000Y-110704819D02*
X93500000Y-110942914D01*
X93261905Y-110847676D02*
X93500000Y-110942914D01*
X93500000Y-110942914D02*
X93738095Y-110847676D01*
X93357143Y-111133390D02*
X93500000Y-110942914D01*
X93500000Y-110942914D02*
X93642857Y-111133390D01*
X94261905Y-110704819D02*
X94261905Y-110942914D01*
X94023810Y-110847676D02*
X94261905Y-110942914D01*
X94261905Y-110942914D02*
X94500000Y-110847676D01*
X94119048Y-111133390D02*
X94261905Y-110942914D01*
X94261905Y-110942914D02*
X94404762Y-111133390D01*
X98704819Y-147283333D02*
X98228628Y-147616666D01*
X98704819Y-147854761D02*
X97704819Y-147854761D01*
X97704819Y-147854761D02*
X97704819Y-147473809D01*
X97704819Y-147473809D02*
X97752438Y-147378571D01*
X97752438Y-147378571D02*
X97800057Y-147330952D01*
X97800057Y-147330952D02*
X97895295Y-147283333D01*
X97895295Y-147283333D02*
X98038152Y-147283333D01*
X98038152Y-147283333D02*
X98133390Y-147330952D01*
X98133390Y-147330952D02*
X98181009Y-147378571D01*
X98181009Y-147378571D02*
X98228628Y-147473809D01*
X98228628Y-147473809D02*
X98228628Y-147854761D01*
X98181009Y-146854761D02*
X98181009Y-146521428D01*
X98704819Y-146378571D02*
X98704819Y-146854761D01*
X98704819Y-146854761D02*
X97704819Y-146854761D01*
X97704819Y-146854761D02*
X97704819Y-146378571D01*
X98181009Y-145616666D02*
X98181009Y-145949999D01*
X98704819Y-145949999D02*
X97704819Y-145949999D01*
X97704819Y-145949999D02*
X97704819Y-145473809D01*
X97704819Y-144949999D02*
X97942914Y-144949999D01*
X97847676Y-145188094D02*
X97942914Y-144949999D01*
X97942914Y-144949999D02*
X97847676Y-144711904D01*
X98133390Y-145092856D02*
X97942914Y-144949999D01*
X97942914Y-144949999D02*
X98133390Y-144807142D01*
X97704819Y-144188094D02*
X97942914Y-144188094D01*
X97847676Y-144426189D02*
X97942914Y-144188094D01*
X97942914Y-144188094D02*
X97847676Y-143949999D01*
X98133390Y-144330951D02*
X97942914Y-144188094D01*
X97942914Y-144188094D02*
X98133390Y-144045237D01*
X98666666Y-47806819D02*
X98333333Y-47330628D01*
X98095238Y-47806819D02*
X98095238Y-46806819D01*
X98095238Y-46806819D02*
X98476190Y-46806819D01*
X98476190Y-46806819D02*
X98571428Y-46854438D01*
X98571428Y-46854438D02*
X98619047Y-46902057D01*
X98619047Y-46902057D02*
X98666666Y-46997295D01*
X98666666Y-46997295D02*
X98666666Y-47140152D01*
X98666666Y-47140152D02*
X98619047Y-47235390D01*
X98619047Y-47235390D02*
X98571428Y-47283009D01*
X98571428Y-47283009D02*
X98476190Y-47330628D01*
X98476190Y-47330628D02*
X98095238Y-47330628D01*
X99095238Y-47283009D02*
X99428571Y-47283009D01*
X99571428Y-47806819D02*
X99095238Y-47806819D01*
X99095238Y-47806819D02*
X99095238Y-46806819D01*
X99095238Y-46806819D02*
X99571428Y-46806819D01*
X100333333Y-47283009D02*
X100000000Y-47283009D01*
X100000000Y-47806819D02*
X100000000Y-46806819D01*
X100000000Y-46806819D02*
X100476190Y-46806819D01*
X101000000Y-46806819D02*
X101000000Y-47044914D01*
X100761905Y-46949676D02*
X101000000Y-47044914D01*
X101000000Y-47044914D02*
X101238095Y-46949676D01*
X100857143Y-47235390D02*
X101000000Y-47044914D01*
X101000000Y-47044914D02*
X101142857Y-47235390D01*
X101761905Y-46806819D02*
X101761905Y-47044914D01*
X101523810Y-46949676D02*
X101761905Y-47044914D01*
X101761905Y-47044914D02*
X102000000Y-46949676D01*
X101619048Y-47235390D02*
X101761905Y-47044914D01*
X101761905Y-47044914D02*
X101904762Y-47235390D01*
X169671666Y-50774819D02*
X169338333Y-50298628D01*
X169100238Y-50774819D02*
X169100238Y-49774819D01*
X169100238Y-49774819D02*
X169481190Y-49774819D01*
X169481190Y-49774819D02*
X169576428Y-49822438D01*
X169576428Y-49822438D02*
X169624047Y-49870057D01*
X169624047Y-49870057D02*
X169671666Y-49965295D01*
X169671666Y-49965295D02*
X169671666Y-50108152D01*
X169671666Y-50108152D02*
X169624047Y-50203390D01*
X169624047Y-50203390D02*
X169576428Y-50251009D01*
X169576428Y-50251009D02*
X169481190Y-50298628D01*
X169481190Y-50298628D02*
X169100238Y-50298628D01*
X170100238Y-50251009D02*
X170433571Y-50251009D01*
X170576428Y-50774819D02*
X170100238Y-50774819D01*
X170100238Y-50774819D02*
X170100238Y-49774819D01*
X170100238Y-49774819D02*
X170576428Y-49774819D01*
X171338333Y-50251009D02*
X171005000Y-50251009D01*
X171005000Y-50774819D02*
X171005000Y-49774819D01*
X171005000Y-49774819D02*
X171481190Y-49774819D01*
X172005000Y-49774819D02*
X172005000Y-50012914D01*
X171766905Y-49917676D02*
X172005000Y-50012914D01*
X172005000Y-50012914D02*
X172243095Y-49917676D01*
X171862143Y-50203390D02*
X172005000Y-50012914D01*
X172005000Y-50012914D02*
X172147857Y-50203390D01*
X172766905Y-49774819D02*
X172766905Y-50012914D01*
X172528810Y-49917676D02*
X172766905Y-50012914D01*
X172766905Y-50012914D02*
X173005000Y-49917676D01*
X172624048Y-50203390D02*
X172766905Y-50012914D01*
X172766905Y-50012914D02*
X172909762Y-50203390D01*
D18*
%TO.C,REF\u002A\u002A*%
X72200000Y-137450000D02*
X72200000Y-136400000D01*
X72400000Y-136600000D02*
X75000000Y-136600000D01*
X72400000Y-151300000D02*
X72400000Y-136600000D01*
X73250000Y-136400000D02*
X72200000Y-136400000D01*
X78900000Y-136600000D02*
X81600000Y-136600000D01*
X81600000Y-136600000D02*
X81600000Y-138500000D01*
X81600000Y-142500000D02*
X81600000Y-151300000D01*
X81600000Y-151300000D02*
X72400000Y-151300000D01*
X100950000Y-46500000D02*
G75*
G02*
X99050000Y-46500000I-950000J0D01*
G01*
X99050000Y-46500000D02*
G75*
G02*
X100950000Y-46500000I950000J0D01*
G01*
X100950000Y-44000000D02*
G75*
G02*
X99050000Y-44000000I-950000J0D01*
G01*
X99050000Y-44000000D02*
G75*
G02*
X100950000Y-44000000I950000J0D01*
G01*
X52140000Y-89440000D02*
X52140000Y-99560000D01*
X52140000Y-92000000D02*
X56500000Y-92000000D01*
X52140000Y-99560000D02*
X59960000Y-99560000D01*
X54400000Y-90200000D02*
X54400000Y-91200000D01*
X54400000Y-90700000D02*
X52140000Y-90700000D01*
X54400000Y-91200000D02*
X52140000Y-91200000D01*
X54400000Y-91200000D02*
X56000000Y-91200000D01*
X54400000Y-97800000D02*
X56000000Y-97800000D01*
X54400000Y-98800000D02*
X54400000Y-97800000D01*
X56000000Y-90200000D02*
X54400000Y-90200000D01*
X56000000Y-91200000D02*
X56000000Y-90200000D01*
X56000000Y-97800000D02*
X56000000Y-98800000D01*
X56000000Y-98800000D02*
X54400000Y-98800000D01*
X56500000Y-92000000D02*
X56500000Y-97000000D01*
X56500000Y-97000000D02*
X52140000Y-97000000D01*
X58360000Y-89440000D02*
X58360000Y-90360000D01*
X58360000Y-90360000D02*
X59960000Y-90360000D01*
X58360000Y-90640000D02*
X58360000Y-90360000D01*
X58360000Y-90640000D02*
X59575000Y-90640000D01*
X58360000Y-98640000D02*
X58360000Y-98360000D01*
X58360000Y-99560000D02*
X58360000Y-98640000D01*
X59960000Y-89440000D02*
X52140000Y-89440000D01*
X59960000Y-90360000D02*
X59960000Y-89440000D01*
X59960000Y-98640000D02*
X58360000Y-98640000D01*
X59960000Y-99560000D02*
X59960000Y-98640000D01*
X130200000Y-137450000D02*
X130200000Y-136400000D01*
X130400000Y-136600000D02*
X133000000Y-136600000D01*
X130400000Y-151300000D02*
X130400000Y-136600000D01*
X131250000Y-136400000D02*
X130200000Y-136400000D01*
X136900000Y-136600000D02*
X139600000Y-136600000D01*
X139600000Y-136600000D02*
X139600000Y-138500000D01*
X139600000Y-142500000D02*
X139600000Y-151300000D01*
X139600000Y-151300000D02*
X130400000Y-151300000D01*
X121620000Y-61120000D02*
X123000000Y-61120000D01*
X121620000Y-62500000D02*
X121620000Y-61120000D01*
X121620000Y-63770000D02*
X121620000Y-109600000D01*
X121620000Y-63770000D02*
X124380000Y-63770000D01*
X121620000Y-109600000D02*
X124380000Y-109600000D01*
X124380000Y-63770000D02*
X124380000Y-109600000D01*
X166200000Y-137450000D02*
X166200000Y-136400000D01*
X166400000Y-136600000D02*
X169000000Y-136600000D01*
X166400000Y-151300000D02*
X166400000Y-136600000D01*
X167250000Y-136400000D02*
X166200000Y-136400000D01*
X172900000Y-136600000D02*
X175600000Y-136600000D01*
X175600000Y-136600000D02*
X175600000Y-138500000D01*
X175600000Y-142500000D02*
X175600000Y-151300000D01*
X175600000Y-151300000D02*
X166400000Y-151300000D01*
X147120000Y-61120000D02*
X148500000Y-61120000D01*
X147120000Y-62500000D02*
X147120000Y-61120000D01*
X147120000Y-63770000D02*
X147120000Y-109600000D01*
X147120000Y-63770000D02*
X149880000Y-63770000D01*
X147120000Y-109600000D02*
X149880000Y-109600000D01*
X149880000Y-63770000D02*
X149880000Y-109600000D01*
X148840000Y-141180000D02*
X148840000Y-151220000D01*
X148840000Y-141180000D02*
X159240000Y-141180000D01*
X148840000Y-144200000D02*
X159240000Y-144200000D01*
X148840000Y-149100000D02*
X159240000Y-149100000D01*
X148840000Y-150600000D02*
X159240000Y-150600000D01*
X148840000Y-151220000D02*
X151200000Y-151220000D01*
X151800000Y-151220000D02*
X159240000Y-151220000D01*
X159240000Y-141180000D02*
X159240000Y-151220000D01*
X151940000Y-151830000D02*
X151060000Y-151830000D01*
X151500000Y-151220000D01*
X151940000Y-151830000D01*
G36*
X151940000Y-151830000D02*
G01*
X151060000Y-151830000D01*
X151500000Y-151220000D01*
X151940000Y-151830000D01*
G37*
X83620000Y-58880000D02*
X83620000Y-57500000D01*
X85000000Y-58880000D02*
X83620000Y-58880000D01*
X86270000Y-56120000D02*
X91460000Y-56120000D01*
X86270000Y-58880000D02*
X86270000Y-56120000D01*
X86270000Y-58880000D02*
X91460000Y-58880000D01*
X91460000Y-58880000D02*
X91460000Y-56120000D01*
X112805000Y-49320000D02*
X112805000Y-39280000D01*
X120245000Y-39280000D02*
X112805000Y-39280000D01*
X123205000Y-39280000D02*
X120845000Y-39280000D01*
X123205000Y-39900000D02*
X112805000Y-39900000D01*
X123205000Y-41400000D02*
X112805000Y-41400000D01*
X123205000Y-46300000D02*
X112805000Y-46300000D01*
X123205000Y-49320000D02*
X112805000Y-49320000D01*
X123205000Y-49320000D02*
X123205000Y-39280000D01*
X120545000Y-39280000D02*
X120105000Y-38670000D01*
X120985000Y-38670000D01*
X120545000Y-39280000D01*
G36*
X120545000Y-39280000D02*
G01*
X120105000Y-38670000D01*
X120985000Y-38670000D01*
X120545000Y-39280000D01*
G37*
X55200000Y-137450000D02*
X55200000Y-136400000D01*
X55400000Y-136600000D02*
X58000000Y-136600000D01*
X55400000Y-151300000D02*
X55400000Y-136600000D01*
X56250000Y-136400000D02*
X55200000Y-136400000D01*
X61900000Y-136600000D02*
X64600000Y-136600000D01*
X64600000Y-136600000D02*
X64600000Y-138500000D01*
X64600000Y-142500000D02*
X64600000Y-151300000D01*
X64600000Y-151300000D02*
X55400000Y-151300000D01*
X103000000Y-129100000D02*
X103000000Y-131300000D01*
X103000000Y-131300000D02*
X105200000Y-131300000D01*
X103400000Y-115100000D02*
X103400000Y-130900000D01*
X103400000Y-130900000D02*
X122800000Y-130900000D01*
X106600000Y-123000000D02*
X109400000Y-123000000D01*
X109900000Y-120950000D02*
X109900000Y-124750000D01*
X109900000Y-124750000D02*
X111900000Y-124750000D01*
X110900000Y-117000000D02*
X108400000Y-117000000D01*
X110900000Y-120950000D02*
X110900000Y-117000000D01*
X110900000Y-124750000D02*
X110900000Y-129000000D01*
X110900000Y-129000000D02*
X108400000Y-129000000D01*
X111900000Y-120950000D02*
X109900000Y-120950000D01*
X111900000Y-122550000D02*
X109900000Y-123550000D01*
X111900000Y-124750000D02*
X111900000Y-120950000D01*
X113400000Y-123000000D02*
X112300000Y-123000000D01*
X113400000Y-123000000D02*
X115200000Y-121200000D01*
X115000000Y-119800000D02*
X115000000Y-121000000D01*
X115000000Y-119800000D02*
X119200000Y-119800000D01*
X115000000Y-126200000D02*
X115000000Y-125000000D01*
X119200000Y-118600000D02*
X119200000Y-119800000D01*
X119200000Y-126200000D02*
X115000000Y-126200000D01*
X119200000Y-127400000D02*
X119200000Y-126200000D01*
X122800000Y-115100000D02*
X103400000Y-115100000D01*
X122800000Y-130900000D02*
X122800000Y-115100000D01*
X117620000Y-61120000D02*
X119000000Y-61120000D01*
X117620000Y-62500000D02*
X117620000Y-61120000D01*
X117620000Y-63770000D02*
X117620000Y-109600000D01*
X117620000Y-63770000D02*
X120380000Y-63770000D01*
X117620000Y-109600000D02*
X120380000Y-109600000D01*
X120380000Y-63770000D02*
X120380000Y-109600000D01*
X150040000Y-130500000D02*
X150810000Y-130500000D01*
X150810000Y-129130000D02*
X150810000Y-131870000D01*
X150810000Y-131870000D02*
X157350000Y-131870000D01*
X157350000Y-129130000D02*
X150810000Y-129130000D01*
X157350000Y-131870000D02*
X157350000Y-129130000D01*
X158120000Y-130500000D02*
X157350000Y-130500000D01*
X147760000Y-49320000D02*
X147760000Y-39280000D01*
X155200000Y-39280000D02*
X147760000Y-39280000D01*
X158160000Y-39280000D02*
X155800000Y-39280000D01*
X158160000Y-39900000D02*
X147760000Y-39900000D01*
X158160000Y-41400000D02*
X147760000Y-41400000D01*
X158160000Y-46300000D02*
X147760000Y-46300000D01*
X158160000Y-49320000D02*
X147760000Y-49320000D01*
X158160000Y-49320000D02*
X158160000Y-39280000D01*
X155500000Y-39280000D02*
X155060000Y-38670000D01*
X155940000Y-38670000D01*
X155500000Y-39280000D01*
G36*
X155500000Y-39280000D02*
G01*
X155060000Y-38670000D01*
X155940000Y-38670000D01*
X155500000Y-39280000D01*
G37*
X134920000Y-115730000D02*
X134920000Y-120371000D01*
X134920000Y-115730000D02*
X145160000Y-115730000D01*
X134920000Y-117240000D02*
X145160000Y-117240000D01*
X134920000Y-120371000D02*
X145160000Y-120371000D01*
X138190000Y-115730000D02*
X138190000Y-117240000D01*
X141891000Y-115730000D02*
X141891000Y-117240000D01*
X145160000Y-115730000D02*
X145160000Y-120371000D01*
X126629000Y-115920000D02*
X126629000Y-126160000D01*
X129760000Y-115920000D02*
X129760000Y-126160000D01*
X131270000Y-115920000D02*
X126629000Y-115920000D01*
X131270000Y-115920000D02*
X131270000Y-126160000D01*
X131270000Y-119190000D02*
X129760000Y-119190000D01*
X131270000Y-122891000D02*
X129760000Y-122891000D01*
X131270000Y-126160000D02*
X126629000Y-126160000D01*
X151120000Y-61120000D02*
X152500000Y-61120000D01*
X151120000Y-62500000D02*
X151120000Y-61120000D01*
X151120000Y-63770000D02*
X151120000Y-109600000D01*
X151120000Y-63770000D02*
X153880000Y-63770000D01*
X151120000Y-109600000D02*
X153880000Y-109600000D01*
X153880000Y-63770000D02*
X153880000Y-109600000D01*
X99030000Y-120590000D02*
X99030000Y-126030000D01*
X99030000Y-126030000D02*
X99160000Y-126030000D01*
X99160000Y-120590000D02*
X99030000Y-120590000D01*
X101840000Y-120590000D02*
X101970000Y-120590000D01*
X101970000Y-120590000D02*
X101970000Y-126030000D01*
X101970000Y-121370000D02*
X99030000Y-121370000D01*
X101970000Y-121490000D02*
X99030000Y-121490000D01*
X101970000Y-121610000D02*
X99030000Y-121610000D01*
X101970000Y-126030000D02*
X101840000Y-126030000D01*
X87700000Y-137450000D02*
X87700000Y-136400000D01*
X87900000Y-136600000D02*
X90500000Y-136600000D01*
X87900000Y-151300000D02*
X87900000Y-136600000D01*
X88750000Y-136400000D02*
X87700000Y-136400000D01*
X94400000Y-136600000D02*
X97100000Y-136600000D01*
X97100000Y-136600000D02*
X97100000Y-138500000D01*
X97100000Y-142500000D02*
X97100000Y-151300000D01*
X97100000Y-151300000D02*
X87900000Y-151300000D01*
X100950000Y-49000000D02*
G75*
G02*
X99050000Y-49000000I-950000J0D01*
G01*
X99050000Y-49000000D02*
G75*
G02*
X100950000Y-49000000I950000J0D01*
G01*
X165805000Y-49320000D02*
X165805000Y-39280000D01*
X173245000Y-39280000D02*
X165805000Y-39280000D01*
X176205000Y-39280000D02*
X173845000Y-39280000D01*
X176205000Y-39900000D02*
X165805000Y-39900000D01*
X176205000Y-41400000D02*
X165805000Y-41400000D01*
X176205000Y-46300000D02*
X165805000Y-46300000D01*
X176205000Y-49320000D02*
X165805000Y-49320000D01*
X176205000Y-49320000D02*
X176205000Y-39280000D01*
X173545000Y-39280000D02*
X173105000Y-38670000D01*
X173985000Y-38670000D01*
X173545000Y-39280000D01*
G36*
X173545000Y-39280000D02*
G01*
X173105000Y-38670000D01*
X173985000Y-38670000D01*
X173545000Y-39280000D01*
G37*
%TD*%
M02*
