%TF.GenerationSoftware,KiCad,Pcbnew,9.0.1*%
%TF.CreationDate,2025-05-02T15:54:27+01:00*%
%TF.ProjectId,main_board,6d61696e-5f62-46f6-9172-642e6b696361,rev?*%
%TF.SameCoordinates,Original*%
%TF.FileFunction,Soldermask,Top*%
%TF.FilePolarity,Negative*%
%FSLAX46Y46*%
G04 Gerber Fmt 4.6, Leading zero omitted, Abs format (unit mm)*
G04 Created by KiCad (PCBNEW 9.0.1) date 2025-05-02 15:54:27*
%MOMM*%
%LPD*%
G01*
G04 APERTURE LIST*
G04 Aperture macros list*
%AMRoundRect*
0 Rectangle with rounded corners*
0 $1 Rounding radius*
0 $2 $3 $4 $5 $6 $7 $8 $9 X,Y pos of 4 corners*
0 Add a 4 corners polygon primitive as box body*
4,1,4,$2,$3,$4,$5,$6,$7,$8,$9,$2,$3,0*
0 Add four circle primitives for the rounded corners*
1,1,$1+$1,$2,$3*
1,1,$1+$1,$4,$5*
1,1,$1+$1,$6,$7*
1,1,$1+$1,$8,$9*
0 Add four rect primitives between the rounded corners*
20,1,$1+$1,$2,$3,$4,$5,0*
20,1,$1+$1,$4,$5,$6,$7,0*
20,1,$1+$1,$6,$7,$8,$9,0*
20,1,$1+$1,$8,$9,$2,$3,0*%
G04 Aperture macros list end*
%ADD10R,3.500000X3.500000*%
%ADD11RoundRect,0.750000X1.000000X-0.750000X1.000000X0.750000X-1.000000X0.750000X-1.000000X-0.750000X0*%
%ADD12RoundRect,0.875000X0.875000X-0.875000X0.875000X0.875000X-0.875000X0.875000X-0.875000X-0.875000X0*%
%ADD13C,1.500000*%
%ADD14C,3.200000*%
%ADD15O,2.600000X5.700000*%
%ADD16RoundRect,0.250000X-0.625000X0.350000X-0.625000X-0.350000X0.625000X-0.350000X0.625000X0.350000X0*%
%ADD17O,1.750000X1.200000*%
%ADD18C,1.700000*%
%ADD19R,1.700000X1.700000*%
%ADD20RoundRect,0.250000X-1.050000X-1.050000X1.050000X-1.050000X1.050000X1.050000X-1.050000X1.050000X0*%
%ADD21C,2.600000*%
%ADD22RoundRect,0.250000X1.050000X1.050000X-1.050000X1.050000X-1.050000X-1.050000X1.050000X-1.050000X0*%
%ADD23C,2.500000*%
%ADD24RoundRect,0.250000X-1.000000X-1.000000X1.000000X-1.000000X1.000000X1.000000X-1.000000X1.000000X0*%
%ADD25C,1.600000*%
%ADD26O,1.600000X1.600000*%
%ADD27C,3.500000*%
%ADD28O,1.905000X2.000000*%
%ADD29R,1.905000X2.000000*%
%ADD30R,2.000000X1.905000*%
%ADD31O,2.000000X1.905000*%
%ADD32R,2.200000X2.200000*%
%ADD33O,2.200000X2.200000*%
G04 APERTURE END LIST*
D10*
%TO.C,REF\u002A\u002A*%
X77000000Y-137500000D03*
D11*
X77000000Y-143500000D03*
D12*
X81700000Y-140500000D03*
%TD*%
D13*
%TO.C,REF\u002A\u002A*%
X100000000Y-46500000D03*
%TD*%
D14*
%TO.C,REF\u002A\u002A*%
X104000000Y-65000000D03*
%TD*%
D15*
%TO.C,REF\u002A\u002A*%
X176000000Y-97500000D03*
X168500000Y-130500000D03*
X171150000Y-97500000D03*
X173500000Y-130500000D03*
X166500000Y-97500000D03*
%TD*%
D13*
%TO.C,REF\u002A\u002A*%
X100000000Y-44000000D03*
%TD*%
D16*
%TO.C,REF\u002A\u002A*%
X58500000Y-91500000D03*
D17*
X58500000Y-93500000D03*
X58500000Y-95500000D03*
X58500000Y-97500000D03*
%TD*%
D14*
%TO.C,REF\u002A\u002A*%
X69000000Y-65000000D03*
%TD*%
D10*
%TO.C,REF\u002A\u002A*%
X135000000Y-137500000D03*
D11*
X135000000Y-143500000D03*
D12*
X139700000Y-140500000D03*
%TD*%
D18*
%TO.C,REF\u002A\u002A*%
X123000000Y-65040000D03*
X123000000Y-67580000D03*
X123000000Y-70120000D03*
X123000000Y-72660000D03*
X123000000Y-75200000D03*
X123000000Y-77740000D03*
X123000000Y-80280000D03*
X123000000Y-82820000D03*
X123000000Y-85360000D03*
X123000000Y-87900000D03*
D19*
X123000000Y-62500000D03*
D18*
X123000000Y-90440000D03*
X123000000Y-95520000D03*
X123000000Y-103140000D03*
X123000000Y-105680000D03*
X123000000Y-92980000D03*
X123000000Y-108220000D03*
X123000000Y-98060000D03*
X123000000Y-100600000D03*
%TD*%
D14*
%TO.C,REF\u002A\u002A*%
X69000000Y-105500000D03*
%TD*%
D10*
%TO.C,REF\u002A\u002A*%
X171000000Y-137500000D03*
D11*
X171000000Y-143500000D03*
D12*
X175700000Y-140500000D03*
%TD*%
D18*
%TO.C,REF\u002A\u002A*%
X148500000Y-108220000D03*
X148500000Y-92980000D03*
X148500000Y-95520000D03*
X148500000Y-100600000D03*
X148500000Y-103140000D03*
X148500000Y-105680000D03*
X148500000Y-65040000D03*
X148500000Y-77740000D03*
X148500000Y-72660000D03*
X148500000Y-80280000D03*
X148500000Y-87900000D03*
X148500000Y-85360000D03*
X148500000Y-82820000D03*
X148500000Y-90440000D03*
X148500000Y-98060000D03*
X148500000Y-75200000D03*
X148500000Y-70120000D03*
X148500000Y-67580000D03*
D19*
X148500000Y-62500000D03*
%TD*%
D20*
%TO.C,REF\u002A\u002A*%
X151500000Y-146500000D03*
D21*
X156580000Y-146500000D03*
%TD*%
D18*
%TO.C,REF\u002A\u002A*%
X87540000Y-57500000D03*
D19*
X85000000Y-57500000D03*
D18*
X90080000Y-57500000D03*
%TD*%
D22*
%TO.C,REF\u002A\u002A*%
X120545000Y-44000000D03*
D21*
X115465000Y-44000000D03*
%TD*%
D10*
%TO.C,REF\u002A\u002A*%
X60000000Y-137500000D03*
D11*
X60000000Y-143500000D03*
D12*
X64700000Y-140500000D03*
%TD*%
D23*
%TO.C,REF\u002A\u002A*%
X105000000Y-123000000D03*
X119200000Y-117000000D03*
X119200000Y-129000000D03*
D24*
X107000000Y-117000000D03*
D23*
X107000000Y-129000000D03*
%TD*%
D14*
%TO.C,REF\u002A\u002A*%
X104000000Y-105500000D03*
%TD*%
D19*
%TO.C,REF\u002A\u002A*%
X119000000Y-62500000D03*
D18*
X119000000Y-65040000D03*
X119000000Y-67580000D03*
X119000000Y-70120000D03*
X119000000Y-72660000D03*
X119000000Y-75200000D03*
X119000000Y-77740000D03*
X119000000Y-80280000D03*
X119000000Y-82820000D03*
X119000000Y-85360000D03*
X119000000Y-87900000D03*
X119000000Y-90440000D03*
X119000000Y-92980000D03*
X119000000Y-95520000D03*
X119000000Y-98060000D03*
X119000000Y-100600000D03*
X119000000Y-103140000D03*
X119000000Y-105680000D03*
X119000000Y-108220000D03*
%TD*%
D25*
%TO.C,REF\u002A\u002A*%
X149000000Y-130500000D03*
D26*
X159160000Y-130500000D03*
%TD*%
D22*
%TO.C,REF\u002A\u002A*%
X155500000Y-44000000D03*
D21*
X150420000Y-44000000D03*
%TD*%
D27*
%TO.C,REF\u002A\u002A*%
X87000000Y-114000000D03*
%TD*%
D28*
%TO.C,REF\u002A\u002A*%
X140040000Y-119000000D03*
D29*
X137500000Y-119000000D03*
D28*
X142580000Y-119000000D03*
%TD*%
D30*
%TO.C,REF\u002A\u002A*%
X128000000Y-118500000D03*
D31*
X128000000Y-121040000D03*
X128000000Y-123580000D03*
%TD*%
D27*
%TO.C,*%
X74500000Y-114000000D03*
%TD*%
D19*
%TO.C,REF\u002A\u002A*%
X152500000Y-62500000D03*
D18*
X152500000Y-65040000D03*
X152500000Y-67580000D03*
X152500000Y-70120000D03*
X152500000Y-72660000D03*
X152500000Y-75200000D03*
X152500000Y-77740000D03*
X152500000Y-80280000D03*
X152500000Y-82820000D03*
X152500000Y-87900000D03*
X152500000Y-90440000D03*
X152500000Y-92980000D03*
X152500000Y-95520000D03*
X152500000Y-98060000D03*
X152500000Y-100600000D03*
X152500000Y-103140000D03*
X152500000Y-105680000D03*
X152500000Y-108220000D03*
X152500000Y-85360000D03*
%TD*%
D32*
%TO.C,REF\u002A\u002A*%
X100500000Y-119500000D03*
D33*
X100500000Y-127120000D03*
%TD*%
D27*
%TO.C,*%
X80000000Y-114000000D03*
%TD*%
%TO.C,REF\u002A\u002A*%
X92500000Y-114000000D03*
%TD*%
D15*
%TO.C,REF\u002A\u002A*%
X176000000Y-56000000D03*
X168500000Y-89000000D03*
X173500000Y-89000000D03*
X166500000Y-56000000D03*
X171150000Y-56000000D03*
%TD*%
D10*
%TO.C,REF\u002A\u002A*%
X92500000Y-137500000D03*
D11*
X92500000Y-143500000D03*
D12*
X97200000Y-140500000D03*
%TD*%
D13*
%TO.C,REF\u002A\u002A*%
X100000000Y-49000000D03*
%TD*%
D22*
%TO.C,REF\u002A\u002A*%
X173545000Y-44000000D03*
D21*
X168465000Y-44000000D03*
%TD*%
M02*
