%TF.GenerationSoftware,KiCad,Pcbnew,9.0.1*%
%TF.CreationDate,2025-05-24T15:45:39+01:00*%
%TF.ProjectId,main_board,6d61696e-5f62-46f6-9172-642e6b696361,rev?*%
%TF.SameCoordinates,Original*%
%TF.FileFunction,Soldermask,Bot*%
%TF.FilePolarity,Negative*%
%FSLAX46Y46*%
G04 Gerber Fmt 4.6, Leading zero omitted, Abs format (unit mm)*
G04 Created by KiCad (PCBNEW 9.0.1) date 2025-05-24 15:45:39*
%MOMM*%
%LPD*%
G01*
G04 APERTURE LIST*
G04 Aperture macros list*
%AMRoundRect*
0 Rectangle with rounded corners*
0 $1 Rounding radius*
0 $2 $3 $4 $5 $6 $7 $8 $9 X,Y pos of 4 corners*
0 Add a 4 corners polygon primitive as box body*
4,1,4,$2,$3,$4,$5,$6,$7,$8,$9,$2,$3,0*
0 Add four circle primitives for the rounded corners*
1,1,$1+$1,$2,$3*
1,1,$1+$1,$4,$5*
1,1,$1+$1,$6,$7*
1,1,$1+$1,$8,$9*
0 Add four rect primitives between the rounded corners*
20,1,$1+$1,$2,$3,$4,$5,0*
20,1,$1+$1,$4,$5,$6,$7,0*
20,1,$1+$1,$6,$7,$8,$9,0*
20,1,$1+$1,$8,$9,$2,$3,0*%
%AMOutline5P*
0 Free polygon, 5 corners , with rotation*
0 The origin of the aperture is its center*
0 number of corners: always 5*
0 $1 to $10 corner X, Y*
0 $11 Rotation angle, in degrees counterclockwise*
0 create outline with 5 corners*
4,1,5,$1,$2,$3,$4,$5,$6,$7,$8,$9,$10,$1,$2,$11*%
%AMOutline6P*
0 Free polygon, 6 corners , with rotation*
0 The origin of the aperture is its center*
0 number of corners: always 6*
0 $1 to $12 corner X, Y*
0 $13 Rotation angle, in degrees counterclockwise*
0 create outline with 6 corners*
4,1,6,$1,$2,$3,$4,$5,$6,$7,$8,$9,$10,$11,$12,$1,$2,$13*%
%AMOutline7P*
0 Free polygon, 7 corners , with rotation*
0 The origin of the aperture is its center*
0 number of corners: always 7*
0 $1 to $14 corner X, Y*
0 $15 Rotation angle, in degrees counterclockwise*
0 create outline with 7 corners*
4,1,7,$1,$2,$3,$4,$5,$6,$7,$8,$9,$10,$11,$12,$13,$14,$1,$2,$15*%
%AMOutline8P*
0 Free polygon, 8 corners , with rotation*
0 The origin of the aperture is its center*
0 number of corners: always 8*
0 $1 to $16 corner X, Y*
0 $17 Rotation angle, in degrees counterclockwise*
0 create outline with 8 corners*
4,1,8,$1,$2,$3,$4,$5,$6,$7,$8,$9,$10,$11,$12,$13,$14,$15,$16,$1,$2,$17*%
G04 Aperture macros list end*
%ADD10Outline5P,-0.800000X0.800000X0.480000X0.800000X0.800000X0.480000X0.800000X-0.800000X-0.800000X-0.800000X0.000000*%
%ADD11C,1.600000*%
%ADD12C,1.354000*%
%ADD13RoundRect,0.250000X0.350000X0.625000X-0.350000X0.625000X-0.350000X-0.625000X0.350000X-0.625000X0*%
%ADD14O,1.200000X1.750000*%
%ADD15R,3.500000X3.500000*%
%ADD16RoundRect,0.750000X1.000000X-0.750000X1.000000X0.750000X-1.000000X0.750000X-1.000000X-0.750000X0*%
%ADD17RoundRect,0.875000X0.875000X-0.875000X0.875000X0.875000X-0.875000X0.875000X-0.875000X-0.875000X0*%
%ADD18C,3.200000*%
%ADD19C,1.700000*%
%ADD20R,1.700000X1.700000*%
%ADD21RoundRect,0.250000X-1.050000X-1.050000X1.050000X-1.050000X1.050000X1.050000X-1.050000X1.050000X0*%
%ADD22C,2.600000*%
%ADD23RoundRect,0.250000X1.050000X1.050000X-1.050000X1.050000X-1.050000X-1.050000X1.050000X-1.050000X0*%
%ADD24R,1.500000X2.300000*%
%ADD25O,1.500000X2.300000*%
%ADD26O,1.600000X1.600000*%
%ADD27C,3.500000*%
%ADD28R,2.000000X1.905000*%
%ADD29O,2.000000X1.905000*%
%ADD30R,2.200000X2.200000*%
%ADD31O,2.200000X2.200000*%
%ADD32C,2.500000*%
%ADD33RoundRect,0.250000X1.000000X1.000000X-1.000000X1.000000X-1.000000X-1.000000X1.000000X-1.000000X0*%
G04 APERTURE END LIST*
D10*
%TO.C,REF\u002A\u002A*%
X138500000Y-129000000D03*
D11*
X140500000Y-129000000D03*
%TD*%
D12*
%TO.C,REF\u002A\u002A*%
X133500000Y-127500000D03*
X133500000Y-132500000D03*
%TD*%
D13*
%TO.C,REF\u002A\u002A*%
X139000000Y-45500000D03*
D14*
X137000000Y-45500000D03*
X135000000Y-45500000D03*
X133000000Y-45500000D03*
%TD*%
D15*
%TO.C,REF\u002A\u002A*%
X77000000Y-137500000D03*
D16*
X77000000Y-143500000D03*
D17*
X81700000Y-140500000D03*
%TD*%
D18*
%TO.C,REF\u002A\u002A*%
X104000000Y-65000000D03*
%TD*%
%TO.C,REF\u002A\u002A*%
X69000000Y-65000000D03*
%TD*%
D15*
%TO.C,REF\u002A\u002A*%
X135000000Y-137500000D03*
D16*
X135000000Y-143500000D03*
D17*
X139700000Y-140500000D03*
%TD*%
D19*
%TO.C,REF\u002A\u002A*%
X123000000Y-65040000D03*
X123000000Y-67580000D03*
X123000000Y-70120000D03*
X123000000Y-72660000D03*
X123000000Y-75200000D03*
X123000000Y-77740000D03*
X123000000Y-80280000D03*
X123000000Y-82820000D03*
X123000000Y-85360000D03*
X123000000Y-87900000D03*
D20*
X123000000Y-62500000D03*
D19*
X123000000Y-90440000D03*
X123000000Y-95520000D03*
X123000000Y-103140000D03*
X123000000Y-105680000D03*
X123000000Y-92980000D03*
X123000000Y-108220000D03*
X123000000Y-98060000D03*
X123000000Y-100600000D03*
%TD*%
D18*
%TO.C,REF\u002A\u002A*%
X69000000Y-105500000D03*
%TD*%
D15*
%TO.C,REF\u002A\u002A*%
X171000000Y-137500000D03*
D16*
X171000000Y-143500000D03*
D17*
X175700000Y-140500000D03*
%TD*%
D19*
%TO.C,REF\u002A\u002A*%
X148500000Y-108220000D03*
X148500000Y-92980000D03*
X148500000Y-95520000D03*
X148500000Y-100600000D03*
X148500000Y-103140000D03*
X148500000Y-105680000D03*
X148500000Y-65040000D03*
X148500000Y-77740000D03*
X148500000Y-72660000D03*
X148500000Y-80280000D03*
X148500000Y-87900000D03*
X148500000Y-85360000D03*
X148500000Y-82820000D03*
X148500000Y-90440000D03*
X148500000Y-98060000D03*
X148500000Y-75200000D03*
X148500000Y-70120000D03*
X148500000Y-67580000D03*
D20*
X148500000Y-62500000D03*
%TD*%
D21*
%TO.C,REF\u002A\u002A*%
X151500000Y-146500000D03*
D22*
X156580000Y-146500000D03*
%TD*%
D19*
%TO.C,REF\u002A\u002A*%
X87540000Y-57500000D03*
D20*
X85000000Y-57500000D03*
D19*
X90080000Y-57500000D03*
%TD*%
D23*
%TO.C,REF\u002A\u002A*%
X120545000Y-44000000D03*
D22*
X115465000Y-44000000D03*
%TD*%
D15*
%TO.C,REF\u002A\u002A*%
X60000000Y-137500000D03*
D16*
X60000000Y-143500000D03*
D17*
X64700000Y-140500000D03*
%TD*%
D18*
%TO.C,REF\u002A\u002A*%
X104000000Y-105500000D03*
%TD*%
D24*
%TO.C,REF\u002A\u002A*%
X138500000Y-123500000D03*
D25*
X141040000Y-123500000D03*
X143580000Y-123500000D03*
%TD*%
D20*
%TO.C,REF\u002A\u002A*%
X119000000Y-62500000D03*
D19*
X119000000Y-65040000D03*
X119000000Y-67580000D03*
X119000000Y-70120000D03*
X119000000Y-72660000D03*
X119000000Y-75200000D03*
X119000000Y-77740000D03*
X119000000Y-80280000D03*
X119000000Y-82820000D03*
X119000000Y-85360000D03*
X119000000Y-87900000D03*
X119000000Y-90440000D03*
X119000000Y-92980000D03*
X119000000Y-95520000D03*
X119000000Y-98060000D03*
X119000000Y-100600000D03*
X119000000Y-103140000D03*
X119000000Y-105680000D03*
X119000000Y-108220000D03*
%TD*%
D11*
%TO.C,REF\u002A\u002A*%
X149000000Y-135000000D03*
D26*
X159160000Y-135000000D03*
%TD*%
D23*
%TO.C,REF\u002A\u002A*%
X155500000Y-44000000D03*
D22*
X150420000Y-44000000D03*
%TD*%
D27*
%TO.C,REF\u002A\u002A*%
X87000000Y-114000000D03*
%TD*%
D28*
%TO.C,REF\u002A\u002A*%
X127000000Y-118500000D03*
D29*
X127000000Y-121040000D03*
X127000000Y-123580000D03*
%TD*%
D27*
%TO.C,*%
X74500000Y-114000000D03*
%TD*%
D20*
%TO.C,REF\u002A\u002A*%
X152500000Y-62500000D03*
D19*
X152500000Y-65040000D03*
X152500000Y-67580000D03*
X152500000Y-70120000D03*
X152500000Y-72660000D03*
X152500000Y-75200000D03*
X152500000Y-77740000D03*
X152500000Y-80280000D03*
X152500000Y-82820000D03*
X152500000Y-87900000D03*
X152500000Y-90440000D03*
X152500000Y-92980000D03*
X152500000Y-95520000D03*
X152500000Y-98060000D03*
X152500000Y-100600000D03*
X152500000Y-103140000D03*
X152500000Y-105680000D03*
X152500000Y-108220000D03*
X152500000Y-85360000D03*
%TD*%
D30*
%TO.C,REF\u002A\u002A*%
X121000000Y-120000000D03*
D31*
X121000000Y-127620000D03*
%TD*%
D27*
%TO.C,*%
X80000000Y-114000000D03*
%TD*%
%TO.C,REF\u002A\u002A*%
X92500000Y-114000000D03*
%TD*%
D15*
%TO.C,REF\u002A\u002A*%
X92500000Y-137500000D03*
D16*
X92500000Y-143500000D03*
D17*
X97200000Y-140500000D03*
%TD*%
D23*
%TO.C,REF\u002A\u002A*%
X173545000Y-44000000D03*
D22*
X168465000Y-44000000D03*
%TD*%
D32*
%TO.C,REF\u002A\u002A*%
X115200000Y-124000000D03*
X101000000Y-130000000D03*
X101000000Y-118000000D03*
D33*
X113200000Y-130000000D03*
D32*
X113200000Y-118000000D03*
%TD*%
M02*
