%TF.GenerationSoftware,KiCad,Pcbnew,9.0.1*%
%TF.CreationDate,2025-05-24T15:45:38+01:00*%
%TF.ProjectId,main_board,6d61696e-5f62-46f6-9172-642e6b696361,rev?*%
%TF.SameCoordinates,Original*%
%TF.FileFunction,Copper,L1,Top*%
%TF.FilePolarity,Positive*%
%FSLAX46Y46*%
G04 Gerber Fmt 4.6, Leading zero omitted, Abs format (unit mm)*
G04 Created by KiCad (PCBNEW 9.0.1) date 2025-05-24 15:45:38*
%MOMM*%
%LPD*%
G01*
G04 APERTURE LIST*
G04 Aperture macros list*
%AMRoundRect*
0 Rectangle with rounded corners*
0 $1 Rounding radius*
0 $2 $3 $4 $5 $6 $7 $8 $9 X,Y pos of 4 corners*
0 Add a 4 corners polygon primitive as box body*
4,1,4,$2,$3,$4,$5,$6,$7,$8,$9,$2,$3,0*
0 Add four circle primitives for the rounded corners*
1,1,$1+$1,$2,$3*
1,1,$1+$1,$4,$5*
1,1,$1+$1,$6,$7*
1,1,$1+$1,$8,$9*
0 Add four rect primitives between the rounded corners*
20,1,$1+$1,$2,$3,$4,$5,0*
20,1,$1+$1,$4,$5,$6,$7,0*
20,1,$1+$1,$6,$7,$8,$9,0*
20,1,$1+$1,$8,$9,$2,$3,0*%
%AMOutline5P*
0 Free polygon, 5 corners , with rotation*
0 The origin of the aperture is its center*
0 number of corners: always 5*
0 $1 to $10 corner X, Y*
0 $11 Rotation angle, in degrees counterclockwise*
0 create outline with 5 corners*
4,1,5,$1,$2,$3,$4,$5,$6,$7,$8,$9,$10,$1,$2,$11*%
%AMOutline6P*
0 Free polygon, 6 corners , with rotation*
0 The origin of the aperture is its center*
0 number of corners: always 6*
0 $1 to $12 corner X, Y*
0 $13 Rotation angle, in degrees counterclockwise*
0 create outline with 6 corners*
4,1,6,$1,$2,$3,$4,$5,$6,$7,$8,$9,$10,$11,$12,$1,$2,$13*%
%AMOutline7P*
0 Free polygon, 7 corners , with rotation*
0 The origin of the aperture is its center*
0 number of corners: always 7*
0 $1 to $14 corner X, Y*
0 $15 Rotation angle, in degrees counterclockwise*
0 create outline with 7 corners*
4,1,7,$1,$2,$3,$4,$5,$6,$7,$8,$9,$10,$11,$12,$13,$14,$1,$2,$15*%
%AMOutline8P*
0 Free polygon, 8 corners , with rotation*
0 The origin of the aperture is its center*
0 number of corners: always 8*
0 $1 to $16 corner X, Y*
0 $17 Rotation angle, in degrees counterclockwise*
0 create outline with 8 corners*
4,1,8,$1,$2,$3,$4,$5,$6,$7,$8,$9,$10,$11,$12,$13,$14,$15,$16,$1,$2,$17*%
G04 Aperture macros list end*
%TA.AperFunction,SMDPad,CuDef*%
%ADD10RoundRect,0.090000X-0.660000X-0.360000X0.660000X-0.360000X0.660000X0.360000X-0.660000X0.360000X0*%
%TD*%
%TA.AperFunction,ComponentPad*%
%ADD11Outline5P,-0.800000X0.800000X0.480000X0.800000X0.800000X0.480000X0.800000X-0.800000X-0.800000X-0.800000X0.000000*%
%TD*%
%TA.AperFunction,ComponentPad*%
%ADD12C,1.600000*%
%TD*%
%TA.AperFunction,ComponentPad*%
%ADD13C,1.150000*%
%TD*%
%TA.AperFunction,ComponentPad*%
%ADD14RoundRect,0.250000X0.350000X0.625000X-0.350000X0.625000X-0.350000X-0.625000X0.350000X-0.625000X0*%
%TD*%
%TA.AperFunction,ComponentPad*%
%ADD15O,1.200000X1.750000*%
%TD*%
%TA.AperFunction,ComponentPad*%
%ADD16R,3.500000X3.500000*%
%TD*%
%TA.AperFunction,ComponentPad*%
%ADD17RoundRect,0.750000X1.000000X-0.750000X1.000000X0.750000X-1.000000X0.750000X-1.000000X-0.750000X0*%
%TD*%
%TA.AperFunction,ComponentPad*%
%ADD18RoundRect,0.875000X0.875000X-0.875000X0.875000X0.875000X-0.875000X0.875000X-0.875000X-0.875000X0*%
%TD*%
%TA.AperFunction,SMDPad,CuDef*%
%ADD19O,2.600000X5.700000*%
%TD*%
%TA.AperFunction,ComponentPad*%
%ADD20C,1.700000*%
%TD*%
%TA.AperFunction,ComponentPad*%
%ADD21R,1.700000X1.700000*%
%TD*%
%TA.AperFunction,ComponentPad*%
%ADD22RoundRect,0.250000X-1.050000X-1.050000X1.050000X-1.050000X1.050000X1.050000X-1.050000X1.050000X0*%
%TD*%
%TA.AperFunction,ComponentPad*%
%ADD23C,2.600000*%
%TD*%
%TA.AperFunction,ComponentPad*%
%ADD24RoundRect,0.250000X1.050000X1.050000X-1.050000X1.050000X-1.050000X-1.050000X1.050000X-1.050000X0*%
%TD*%
%TA.AperFunction,ComponentPad*%
%ADD25R,1.500000X2.300000*%
%TD*%
%TA.AperFunction,ComponentPad*%
%ADD26O,1.500000X2.300000*%
%TD*%
%TA.AperFunction,ComponentPad*%
%ADD27O,1.600000X1.600000*%
%TD*%
%TA.AperFunction,ComponentPad*%
%ADD28C,3.500000*%
%TD*%
%TA.AperFunction,ComponentPad*%
%ADD29R,2.000000X1.905000*%
%TD*%
%TA.AperFunction,ComponentPad*%
%ADD30O,2.000000X1.905000*%
%TD*%
%TA.AperFunction,ComponentPad*%
%ADD31R,2.200000X2.200000*%
%TD*%
%TA.AperFunction,ComponentPad*%
%ADD32O,2.200000X2.200000*%
%TD*%
%TA.AperFunction,ComponentPad*%
%ADD33C,2.500000*%
%TD*%
%TA.AperFunction,ComponentPad*%
%ADD34RoundRect,0.250000X1.000000X1.000000X-1.000000X1.000000X-1.000000X-1.000000X1.000000X-1.000000X0*%
%TD*%
%TA.AperFunction,ViaPad*%
%ADD35C,0.600000*%
%TD*%
%TA.AperFunction,ViaPad*%
%ADD36C,0.700000*%
%TD*%
%TA.AperFunction,Conductor*%
%ADD37C,0.200000*%
%TD*%
%TA.AperFunction,Conductor*%
%ADD38C,1.000000*%
%TD*%
%TA.AperFunction,Conductor*%
%ADD39C,3.000000*%
%TD*%
G04 APERTURE END LIST*
D10*
%TO.P,REF\u002A\u002A,1*%
%TO.N,5v+*%
X90600000Y-44700000D03*
%TO.P,REF\u002A\u002A,2*%
%TO.N,N/C*%
X90600000Y-48000000D03*
%TO.P,REF\u002A\u002A,3*%
%TO.N,gnd*%
X95500000Y-48000000D03*
%TO.P,REF\u002A\u002A,4*%
%TO.N,N/C*%
X95500000Y-44700000D03*
%TD*%
D11*
%TO.P,REF\u002A\u002A,1*%
%TO.N,N/C*%
X138500000Y-129000000D03*
D12*
%TO.P,REF\u002A\u002A,2*%
X140500000Y-129000000D03*
%TD*%
D13*
%TO.P,REF\u002A\u002A,1*%
%TO.N,12v+*%
X133500000Y-127500000D03*
%TO.P,REF\u002A\u002A,2*%
X133500000Y-132500000D03*
%TD*%
D14*
%TO.P,REF\u002A\u002A,1*%
%TO.N,SCL*%
X139000000Y-45500000D03*
D15*
%TO.P,REF\u002A\u002A,2*%
%TO.N,SDA*%
X137000000Y-45500000D03*
%TO.P,REF\u002A\u002A,3*%
%TO.N,3.3v*%
X135000000Y-45500000D03*
%TO.P,REF\u002A\u002A,4*%
%TO.N,gnd*%
X133000000Y-45500000D03*
%TD*%
D16*
%TO.P,REF\u002A\u002A,1*%
%TO.N,Big+*%
X77000000Y-137500000D03*
D17*
%TO.P,REF\u002A\u002A,2*%
%TO.N,BigGND*%
X77000000Y-143500000D03*
D18*
%TO.P,REF\u002A\u002A,3*%
%TO.N,N/C*%
X81700000Y-140500000D03*
%TD*%
D19*
%TO.P,REF\u002A\u002A,+*%
%TO.N,5v+*%
X166000000Y-129000000D03*
%TO.P,REF\u002A\u002A,GND*%
%TO.N,gnd*%
X173500000Y-96000000D03*
%TO.P,REF\u002A\u002A,Load GND*%
%TO.N,humidiferGND*%
X170850000Y-129000000D03*
%TO.P,REF\u002A\u002A,PWM*%
%TO.N,humidiferPinOut*%
X168500000Y-96000000D03*
%TO.P,REF\u002A\u002A,PWR GND*%
%TO.N,gnd*%
X175500000Y-129000000D03*
%TD*%
D16*
%TO.P,REF\u002A\u002A,1*%
%TO.N,12v+*%
X135000000Y-137500000D03*
D17*
%TO.P,REF\u002A\u002A,2*%
%TO.N,gnd*%
X135000000Y-143500000D03*
D18*
%TO.P,REF\u002A\u002A,3*%
%TO.N,N/C*%
X139700000Y-140500000D03*
%TD*%
D20*
%TO.P,REF\u002A\u002A,2*%
%TO.N,N/C*%
X123000000Y-65040000D03*
%TO.P,REF\u002A\u002A,3*%
X123000000Y-67580000D03*
%TO.P,REF\u002A\u002A,4*%
X123000000Y-70120000D03*
%TO.P,REF\u002A\u002A,5*%
X123000000Y-72660000D03*
%TO.P,REF\u002A\u002A,6*%
X123000000Y-75200000D03*
%TO.P,REF\u002A\u002A,7*%
X123000000Y-77740000D03*
%TO.P,REF\u002A\u002A,8*%
X123000000Y-80280000D03*
%TO.P,REF\u002A\u002A,9*%
X123000000Y-82820000D03*
%TO.P,REF\u002A\u002A,10*%
X123000000Y-85360000D03*
%TO.P,REF\u002A\u002A,11*%
X123000000Y-87900000D03*
D21*
%TO.P,REF\u002A\u002A,CLK*%
X123000000Y-62500000D03*
D20*
%TO.P,REF\u002A\u002A,G19*%
X123000000Y-90440000D03*
%TO.P,REF\u002A\u002A,G21*%
%TO.N,SDA*%
X123000000Y-95520000D03*
%TO.P,REF\u002A\u002A,G22*%
%TO.N,SCL*%
X123000000Y-103140000D03*
%TO.P,REF\u002A\u002A,G23*%
%TO.N,N/C*%
X123000000Y-105680000D03*
%TO.P,REF\u002A\u002A,GND*%
%TO.N,gnd*%
X123000000Y-92980000D03*
X123000000Y-108220000D03*
%TO.P,REF\u002A\u002A,RXD*%
%TO.N,N/C*%
X123000000Y-98060000D03*
%TO.P,REF\u002A\u002A,TXD*%
X123000000Y-100600000D03*
%TD*%
D16*
%TO.P,REF\u002A\u002A,1*%
%TO.N,5v+*%
X171000000Y-137500000D03*
D17*
%TO.P,REF\u002A\u002A,2*%
%TO.N,humidiferGND*%
X171000000Y-143500000D03*
D18*
%TO.P,REF\u002A\u002A,3*%
%TO.N,N/C*%
X175700000Y-140500000D03*
%TD*%
D20*
%TO.P,REF\u002A\u002A,3V3*%
%TO.N,3.3v*%
X148500000Y-108220000D03*
%TO.P,REF\u002A\u002A,13*%
%TO.N,N/C*%
X148500000Y-92980000D03*
%TO.P,REF\u002A\u002A,14*%
X148500000Y-95520000D03*
%TO.P,REF\u002A\u002A,16*%
X148500000Y-100600000D03*
%TO.P,REF\u002A\u002A,17*%
X148500000Y-103140000D03*
%TO.P,REF\u002A\u002A,18*%
X148500000Y-105680000D03*
%TO.P,REF\u002A\u002A,CMD*%
X148500000Y-65040000D03*
%TO.P,REF\u002A\u002A,G12*%
X148500000Y-77740000D03*
%TO.P,REF\u002A\u002A,G13*%
%TO.N,humidiferPinOut*%
X148500000Y-72660000D03*
%TO.P,REF\u002A\u002A,G14*%
%TO.N,N/C*%
X148500000Y-80280000D03*
%TO.P,REF\u002A\u002A,G25*%
X148500000Y-87900000D03*
%TO.P,REF\u002A\u002A,G26*%
%TO.N,HeaterPin*%
X148500000Y-85360000D03*
%TO.P,REF\u002A\u002A,G27*%
%TO.N,N/C*%
X148500000Y-82820000D03*
%TO.P,REF\u002A\u002A,G33*%
%TO.N,pumpOutPin*%
X148500000Y-90440000D03*
%TO.P,REF\u002A\u002A,G34*%
%TO.N,wtrsnrIN*%
X148500000Y-98060000D03*
%TO.P,REF\u002A\u002A,GND*%
%TO.N,gnd*%
X148500000Y-75200000D03*
%TO.P,REF\u002A\u002A,SD2*%
%TO.N,N/C*%
X148500000Y-70120000D03*
%TO.P,REF\u002A\u002A,SD3*%
X148500000Y-67580000D03*
D21*
%TO.P,REF\u002A\u002A,V5*%
%TO.N,5v+*%
X148500000Y-62500000D03*
%TD*%
D22*
%TO.P,REF\u002A\u002A,1*%
%TO.N,5v+*%
X151500000Y-146500000D03*
D23*
%TO.P,REF\u002A\u002A,2*%
%TO.N,wtrsnrIN*%
X156580000Y-146500000D03*
%TD*%
D20*
%TO.P,REF\u002A\u002A,2*%
%TO.N,N/C*%
X87540000Y-57500000D03*
D21*
%TO.P,REF\u002A\u002A,GND*%
%TO.N,gnd*%
X85000000Y-57500000D03*
D20*
%TO.P,REF\u002A\u002A,IN1*%
%TO.N,N/C*%
X90080000Y-57500000D03*
%TD*%
D24*
%TO.P,REF\u002A\u002A,1*%
%TO.N,12v+*%
X120545000Y-44000000D03*
D23*
%TO.P,REF\u002A\u002A,2*%
%TO.N,gnd*%
X115465000Y-44000000D03*
%TD*%
D16*
%TO.P,REF\u002A\u002A,1*%
%TO.N,N/C*%
X60000000Y-137500000D03*
D17*
%TO.P,REF\u002A\u002A,2*%
X60000000Y-143500000D03*
D18*
%TO.P,REF\u002A\u002A,3*%
X64700000Y-140500000D03*
%TD*%
D25*
%TO.P,REF\u002A\u002A,1*%
%TO.N,12v+*%
X138500000Y-123500000D03*
D26*
%TO.P,REF\u002A\u002A,2*%
%TO.N,gnd*%
X141040000Y-123500000D03*
%TO.P,REF\u002A\u002A,3*%
%TO.N,5v+*%
X143580000Y-123500000D03*
%TD*%
D21*
%TO.P,REF\u002A\u002A,1*%
%TO.N,N/C*%
X119000000Y-62500000D03*
D20*
%TO.P,REF\u002A\u002A,2*%
X119000000Y-65040000D03*
%TO.P,REF\u002A\u002A,3*%
X119000000Y-67580000D03*
%TO.P,REF\u002A\u002A,4*%
X119000000Y-70120000D03*
%TO.P,REF\u002A\u002A,5*%
X119000000Y-72660000D03*
%TO.P,REF\u002A\u002A,6*%
X119000000Y-75200000D03*
%TO.P,REF\u002A\u002A,7*%
X119000000Y-77740000D03*
%TO.P,REF\u002A\u002A,8*%
X119000000Y-80280000D03*
%TO.P,REF\u002A\u002A,9*%
X119000000Y-82820000D03*
%TO.P,REF\u002A\u002A,10*%
X119000000Y-85360000D03*
%TO.P,REF\u002A\u002A,11*%
X119000000Y-87900000D03*
%TO.P,REF\u002A\u002A,12*%
X119000000Y-90440000D03*
%TO.P,REF\u002A\u002A,13*%
%TO.N,gnd*%
X119000000Y-92980000D03*
%TO.P,REF\u002A\u002A,14*%
%TO.N,N/C*%
X119000000Y-95520000D03*
%TO.P,REF\u002A\u002A,15*%
X119000000Y-98060000D03*
%TO.P,REF\u002A\u002A,16*%
X119000000Y-100600000D03*
%TO.P,REF\u002A\u002A,17*%
X119000000Y-103140000D03*
%TO.P,REF\u002A\u002A,18*%
X119000000Y-105680000D03*
%TO.P,REF\u002A\u002A,19*%
%TO.N,gnd*%
X119000000Y-108220000D03*
%TD*%
D12*
%TO.P,REF\u002A\u002A,1*%
%TO.N,gnd*%
X149000000Y-135000000D03*
D27*
%TO.P,REF\u002A\u002A,2*%
%TO.N,wtrsnrIN*%
X159160000Y-135000000D03*
%TD*%
D24*
%TO.P,REF\u002A\u002A,1*%
%TO.N,5v+*%
X155500000Y-44000000D03*
D23*
%TO.P,REF\u002A\u002A,2*%
%TO.N,gnd*%
X150420000Y-44000000D03*
%TD*%
D28*
%TO.P,REF\u002A\u002A,1*%
%TO.N,BigGND*%
X87000000Y-114000000D03*
%TD*%
D29*
%TO.P,REF\u002A\u002A,1*%
%TO.N,HeaterPin*%
X127000000Y-118500000D03*
D30*
%TO.P,REF\u002A\u002A,2*%
%TO.N,heaterTransistorOut*%
X127000000Y-121040000D03*
%TO.P,REF\u002A\u002A,3*%
%TO.N,gnd*%
X127000000Y-123580000D03*
%TD*%
D28*
%TO.P,,MTR*%
%TO.N,N/C*%
X74500000Y-114000000D03*
%TD*%
D21*
%TO.P,REF\u002A\u002A,1*%
%TO.N,5v+*%
X152500000Y-62500000D03*
D20*
%TO.P,REF\u002A\u002A,2*%
%TO.N,N/C*%
X152500000Y-65040000D03*
%TO.P,REF\u002A\u002A,3*%
X152500000Y-67580000D03*
%TO.P,REF\u002A\u002A,4*%
X152500000Y-70120000D03*
%TO.P,REF\u002A\u002A,5*%
%TO.N,humidiferPinOut*%
X152500000Y-72660000D03*
%TO.P,REF\u002A\u002A,6*%
%TO.N,gnd*%
X152500000Y-75200000D03*
%TO.P,REF\u002A\u002A,7*%
%TO.N,N/C*%
X152500000Y-77740000D03*
%TO.P,REF\u002A\u002A,8*%
X152500000Y-80280000D03*
%TO.P,REF\u002A\u002A,9*%
X152500000Y-82820000D03*
%TO.P,REF\u002A\u002A,11*%
X152500000Y-87900000D03*
%TO.P,REF\u002A\u002A,12*%
%TO.N,pumpOutPin*%
X152500000Y-90440000D03*
%TO.P,REF\u002A\u002A,13*%
%TO.N,N/C*%
X152500000Y-92980000D03*
%TO.P,REF\u002A\u002A,14*%
X152500000Y-95520000D03*
%TO.P,REF\u002A\u002A,15*%
%TO.N,wtrsnrIN*%
X152500000Y-98060000D03*
%TO.P,REF\u002A\u002A,16*%
%TO.N,N/C*%
X152500000Y-100600000D03*
%TO.P,REF\u002A\u002A,17*%
X152500000Y-103140000D03*
%TO.P,REF\u002A\u002A,18*%
X152500000Y-105680000D03*
%TO.P,REF\u002A\u002A,19*%
X152500000Y-108220000D03*
%TO.P,REF\u002A\u002A,G26*%
%TO.N,HeaterPin*%
X152500000Y-85360000D03*
%TD*%
D31*
%TO.P,REF\u002A\u002A,1*%
%TO.N,3.3v*%
X121000000Y-120000000D03*
D32*
%TO.P,REF\u002A\u002A,2*%
%TO.N,heaterTransistorOut*%
X121000000Y-127620000D03*
%TD*%
D28*
%TO.P,,MTR*%
%TO.N,N/C*%
X80000000Y-114000000D03*
%TD*%
%TO.P,REF\u002A\u002A,1*%
%TO.N,Big+*%
X92500000Y-114000000D03*
%TD*%
D19*
%TO.P,REF\u002A\u002A,+*%
%TO.N,12v+*%
X176000000Y-56000000D03*
%TO.P,REF\u002A\u002A,GND*%
%TO.N,gnd*%
X168500000Y-89000000D03*
%TO.P,REF\u002A\u002A,PWM*%
%TO.N,pumpOutPin*%
X173500000Y-89000000D03*
%TO.P,REF\u002A\u002A,PWR GND*%
%TO.N,gnd*%
X166500000Y-56000000D03*
%TO.P,REF\u002A\u002A,pump GND*%
%TO.N,pumpGND*%
X171150000Y-56000000D03*
%TD*%
D16*
%TO.P,REF\u002A\u002A,1*%
%TO.N,heaterRelayOut+*%
X92500000Y-137500000D03*
D17*
%TO.P,REF\u002A\u002A,2*%
%TO.N,BigGND*%
X92500000Y-143500000D03*
D18*
%TO.P,REF\u002A\u002A,3*%
%TO.N,N/C*%
X97200000Y-140500000D03*
%TD*%
D24*
%TO.P,REF\u002A\u002A,1*%
%TO.N,12v+*%
X173545000Y-44000000D03*
D23*
%TO.P,REF\u002A\u002A,2*%
%TO.N,pumpGND*%
X168465000Y-44000000D03*
%TD*%
D33*
%TO.P,REF\u002A\u002A,11*%
%TO.N,Big+*%
X115200000Y-124000000D03*
%TO.P,REF\u002A\u002A,12*%
%TO.N,N/C*%
X101000000Y-130000000D03*
%TO.P,REF\u002A\u002A,14*%
%TO.N,heaterRelayOut+*%
X101000000Y-118000000D03*
D34*
%TO.P,REF\u002A\u002A,A1*%
%TO.N,heaterTransistorOut*%
X113200000Y-130000000D03*
D33*
%TO.P,REF\u002A\u002A,A2*%
%TO.N,3.3v*%
X113200000Y-118000000D03*
%TD*%
D35*
%TO.N,SCL*%
X139000000Y-87500000D03*
%TO.N,SDA*%
X137010000Y-85990000D03*
%TO.N,3.3v*%
X145500000Y-70500000D03*
X135000000Y-60000000D03*
%TO.N,*%
X112500000Y-57500000D03*
D36*
%TO.N,12v+*%
X173000000Y-61500000D03*
X130000000Y-61000000D03*
%TO.N,gnd*%
X131720000Y-108220000D03*
D35*
X172750000Y-124750000D03*
%TO.N,HeaterPin*%
X127000000Y-104500000D03*
%TO.N,pumpOutPin*%
X171500000Y-84500000D03*
%TO.N,humidiferPinOut*%
X158500000Y-86000000D03*
%TD*%
D37*
%TO.N,SCL*%
X139000000Y-87500000D02*
X139000000Y-45500000D01*
%TO.N,3.3v*%
X145500000Y-105220000D02*
X148500000Y-108220000D01*
X145500000Y-70500000D02*
X145500000Y-105220000D01*
D38*
%TO.N,5v+*%
X143540000Y-66460000D02*
X147500000Y-62500000D01*
X147500000Y-62500000D02*
X148500000Y-62500000D01*
X143540000Y-123460000D02*
X143540000Y-66460000D01*
X143580000Y-123500000D02*
X143540000Y-123460000D01*
%TO.N,humidiferGND*%
X177500000Y-143500000D02*
X171000000Y-143500000D01*
X178500000Y-142500000D02*
X177500000Y-143500000D01*
X178500000Y-138500000D02*
X178500000Y-142500000D01*
X170850000Y-130850000D02*
X178500000Y-138500000D01*
%TO.N,12v+*%
X138000000Y-125500000D02*
X138500000Y-125000000D01*
X135500000Y-125500000D02*
X138000000Y-125500000D01*
X133500000Y-127500000D02*
X135500000Y-125500000D01*
D37*
%TO.N,*%
X117940000Y-90440000D02*
X119000000Y-90440000D01*
X115000000Y-87500000D02*
X117940000Y-90440000D01*
X105500000Y-44500000D02*
X115000000Y-54000000D01*
X95700000Y-44500000D02*
X105500000Y-44500000D01*
X95500000Y-44700000D02*
X95700000Y-44500000D01*
X115000000Y-54000000D02*
X115000000Y-87500000D01*
D38*
%TO.N,5v+*%
X94300000Y-41000000D02*
X90600000Y-44700000D01*
X148500000Y-49000000D02*
X140500000Y-41000000D01*
X148500000Y-57000000D02*
X148500000Y-49000000D01*
X140500000Y-41000000D02*
X94300000Y-41000000D01*
D39*
%TO.N,*%
X61000000Y-144500000D02*
X60000000Y-143500000D01*
X70000000Y-124750000D02*
X70000000Y-141750000D01*
X80000000Y-114750000D02*
X70000000Y-124750000D01*
X70000000Y-141750000D02*
X67250000Y-144500000D01*
X67250000Y-144500000D02*
X61000000Y-144500000D01*
X80000000Y-114000000D02*
X80000000Y-114750000D01*
%TO.N,Big+*%
X77000000Y-132000000D02*
X85500000Y-123500000D01*
X77000000Y-137500000D02*
X77000000Y-132000000D01*
X86000000Y-124000000D02*
X115200000Y-124000000D01*
X85500000Y-123500000D02*
X86000000Y-124000000D01*
X85500000Y-123500000D02*
X92500000Y-116500000D01*
D38*
%TO.N,12v+*%
X138460000Y-133540000D02*
X135000000Y-137000000D01*
X138460000Y-125040000D02*
X138460000Y-133540000D01*
X138500000Y-125000000D02*
X138460000Y-125040000D01*
D37*
%TO.N,heaterTransistorOut*%
X115500000Y-130000000D02*
X113200000Y-130000000D01*
X124460000Y-121040000D02*
X115500000Y-130000000D01*
X127000000Y-121040000D02*
X124460000Y-121040000D01*
X118620000Y-130000000D02*
X113200000Y-130000000D01*
X121000000Y-127620000D02*
X118620000Y-130000000D01*
D39*
%TO.N,Big+*%
X92500000Y-116500000D02*
X92500000Y-114000000D01*
D37*
%TO.N,HeaterPin*%
X127000000Y-104500000D02*
X127000000Y-118500000D01*
D38*
%TO.N,12v+*%
X135000000Y-134500000D02*
X133500000Y-133000000D01*
X133500000Y-133000000D02*
X133500000Y-132500000D01*
X135000000Y-137500000D02*
X135000000Y-134500000D01*
%TO.N,5v+*%
X163000000Y-126000000D02*
X166000000Y-129000000D01*
X144040000Y-126000000D02*
X163000000Y-126000000D01*
X143580000Y-125540000D02*
X144040000Y-126000000D01*
X143580000Y-123500000D02*
X143580000Y-125540000D01*
X143580000Y-125000000D02*
X143580000Y-123500000D01*
X143540000Y-125040000D02*
X143580000Y-125000000D01*
X145500000Y-127960000D02*
X143540000Y-126000000D01*
X145500000Y-140500000D02*
X145500000Y-127960000D01*
X151500000Y-146500000D02*
X145500000Y-140500000D01*
%TO.N,gnd*%
X141000000Y-117500000D02*
X141000000Y-123460000D01*
X131720000Y-108220000D02*
X141000000Y-117500000D01*
%TO.N,12v+*%
X138460000Y-123460000D02*
X138500000Y-123500000D01*
X138460000Y-120460000D02*
X138460000Y-123460000D01*
X130000000Y-112000000D02*
X138460000Y-120460000D01*
%TO.N,gnd*%
X141000000Y-123460000D02*
X141040000Y-123500000D01*
%TO.N,12v+*%
X138500000Y-123500000D02*
X138500000Y-125000000D01*
X130000000Y-61000000D02*
X130000000Y-112000000D01*
%TO.N,5v+*%
X143540000Y-126000000D02*
X143540000Y-125040000D01*
D37*
%TO.N,12v+*%
X135000000Y-137500000D02*
X135000000Y-137000000D01*
D38*
%TO.N,5v+*%
X166000000Y-128000000D02*
X166000000Y-129000000D01*
D37*
%TO.N,wtrsnrIN*%
X159160000Y-135000000D02*
X159160000Y-143920000D01*
%TO.N,SDA*%
X137000000Y-80500000D02*
X137000000Y-45500000D01*
X137010000Y-80510000D02*
X137000000Y-80500000D01*
X137010000Y-85990000D02*
X137010000Y-80510000D01*
D38*
%TO.N,gnd*%
X157500000Y-41500000D02*
X166500000Y-50500000D01*
X166500000Y-50500000D02*
X166500000Y-56000000D01*
X150420000Y-44000000D02*
X152920000Y-41500000D01*
X152920000Y-41500000D02*
X157500000Y-41500000D01*
D37*
X168500000Y-89500000D02*
X168500000Y-89000000D01*
D38*
X173500000Y-94500000D02*
X168500000Y-89500000D01*
D37*
%TO.N,humidiferPinOut*%
X158500000Y-86000000D02*
X168500000Y-96000000D01*
D38*
%TO.N,gnd*%
X127500000Y-58500000D02*
X133000000Y-53000000D01*
X127500000Y-88480000D02*
X127500000Y-58500000D01*
X123000000Y-92980000D02*
X127500000Y-88480000D01*
X133000000Y-53000000D02*
X133000000Y-45500000D01*
D37*
%TO.N,3.3v*%
X135000000Y-60000000D02*
X135000000Y-45500000D01*
%TO.N,*%
X112500000Y-57500000D02*
X90080000Y-57500000D01*
D39*
X60000000Y-128000000D02*
X60000000Y-137500000D01*
D37*
X74000000Y-114000000D02*
X74500000Y-114000000D01*
D39*
X74000000Y-114000000D02*
X60000000Y-128000000D01*
D38*
%TO.N,12v+*%
X173000000Y-61500000D02*
X176000000Y-58500000D01*
X176000000Y-56000000D02*
X176000000Y-46455000D01*
X176000000Y-46455000D02*
X173545000Y-44000000D01*
X176000000Y-58500000D02*
X176000000Y-56000000D01*
D37*
%TO.N,gnd*%
X85000000Y-57000000D02*
X85000000Y-57500000D01*
X168500000Y-89000000D02*
X168000000Y-89000000D01*
D38*
X160700000Y-75200000D02*
X154200000Y-75200000D01*
D37*
X173500000Y-96000000D02*
X173500000Y-94500000D01*
D38*
X168000000Y-82500000D02*
X165500000Y-80000000D01*
X165500000Y-80000000D02*
X160700000Y-75200000D01*
X173000000Y-96000000D02*
X173000000Y-95500000D01*
X175500000Y-127500000D02*
X175500000Y-129000000D01*
X166500000Y-56000000D02*
X166500000Y-67000000D01*
X168000000Y-89000000D02*
X168000000Y-82500000D01*
X166500000Y-67000000D02*
X158300000Y-75200000D01*
D37*
X167000000Y-81500000D02*
X165500000Y-80000000D01*
D38*
X172750000Y-124750000D02*
X175500000Y-127500000D01*
D37*
X168500000Y-91500000D02*
X168500000Y-89000000D01*
D38*
X158300000Y-75200000D02*
X154200000Y-75200000D01*
X154200000Y-75200000D02*
X152500000Y-75200000D01*
D37*
X173500000Y-96000000D02*
X173000000Y-96000000D01*
D38*
%TO.N,5v+*%
X148500000Y-62500000D02*
X148500000Y-56500000D01*
X155500000Y-44000000D02*
X155500000Y-47000000D01*
X155500000Y-47000000D02*
X148500000Y-54000000D01*
X166000000Y-132500000D02*
X171000000Y-137500000D01*
X166000000Y-129000000D02*
X166000000Y-132500000D01*
X148500000Y-54000000D02*
X148500000Y-56500000D01*
D37*
%TO.N,wtrsnrIN*%
X156920000Y-146500000D02*
X157000000Y-146420000D01*
X152560000Y-98000000D02*
X152500000Y-98060000D01*
X156580000Y-146500000D02*
X156920000Y-146500000D01*
X153000000Y-98000000D02*
X152560000Y-98000000D01*
X156580000Y-146500000D02*
X159160000Y-143920000D01*
%TO.N,humidiferGND*%
X170850000Y-129000000D02*
X170850000Y-130850000D01*
D38*
%TO.N,pumpGND*%
X168465000Y-44035000D02*
X168465000Y-44000000D01*
D37*
X171150000Y-56000000D02*
X171150000Y-46685000D01*
X171150000Y-46685000D02*
X168465000Y-44000000D01*
%TO.N,BigGND*%
X87000000Y-115000000D02*
X87000000Y-114000000D01*
%TO.N,pumpOutPin*%
X173500000Y-86500000D02*
X173500000Y-89000000D01*
X171500000Y-84500000D02*
X173500000Y-86500000D01*
%TO.N,humidiferPinOut*%
X148160000Y-73000000D02*
X148500000Y-72660000D01*
%TD*%
M02*
