%TF.GenerationSoftware,KiCad,Pcbnew,9.0.1*%
%TF.CreationDate,2025-05-24T15:45:38+01:00*%
%TF.ProjectId,main_board,6d61696e-5f62-46f6-9172-642e6b696361,rev?*%
%TF.SameCoordinates,Original*%
%TF.FileFunction,Copper,L2,Bot*%
%TF.FilePolarity,Positive*%
%FSLAX46Y46*%
G04 Gerber Fmt 4.6, Leading zero omitted, Abs format (unit mm)*
G04 Created by KiCad (PCBNEW 9.0.1) date 2025-05-24 15:45:38*
%MOMM*%
%LPD*%
G01*
G04 APERTURE LIST*
G04 Aperture macros list*
%AMRoundRect*
0 Rectangle with rounded corners*
0 $1 Rounding radius*
0 $2 $3 $4 $5 $6 $7 $8 $9 X,Y pos of 4 corners*
0 Add a 4 corners polygon primitive as box body*
4,1,4,$2,$3,$4,$5,$6,$7,$8,$9,$2,$3,0*
0 Add four circle primitives for the rounded corners*
1,1,$1+$1,$2,$3*
1,1,$1+$1,$4,$5*
1,1,$1+$1,$6,$7*
1,1,$1+$1,$8,$9*
0 Add four rect primitives between the rounded corners*
20,1,$1+$1,$2,$3,$4,$5,0*
20,1,$1+$1,$4,$5,$6,$7,0*
20,1,$1+$1,$6,$7,$8,$9,0*
20,1,$1+$1,$8,$9,$2,$3,0*%
%AMOutline5P*
0 Free polygon, 5 corners , with rotation*
0 The origin of the aperture is its center*
0 number of corners: always 5*
0 $1 to $10 corner X, Y*
0 $11 Rotation angle, in degrees counterclockwise*
0 create outline with 5 corners*
4,1,5,$1,$2,$3,$4,$5,$6,$7,$8,$9,$10,$1,$2,$11*%
%AMOutline6P*
0 Free polygon, 6 corners , with rotation*
0 The origin of the aperture is its center*
0 number of corners: always 6*
0 $1 to $12 corner X, Y*
0 $13 Rotation angle, in degrees counterclockwise*
0 create outline with 6 corners*
4,1,6,$1,$2,$3,$4,$5,$6,$7,$8,$9,$10,$11,$12,$1,$2,$13*%
%AMOutline7P*
0 Free polygon, 7 corners , with rotation*
0 The origin of the aperture is its center*
0 number of corners: always 7*
0 $1 to $14 corner X, Y*
0 $15 Rotation angle, in degrees counterclockwise*
0 create outline with 7 corners*
4,1,7,$1,$2,$3,$4,$5,$6,$7,$8,$9,$10,$11,$12,$13,$14,$1,$2,$15*%
%AMOutline8P*
0 Free polygon, 8 corners , with rotation*
0 The origin of the aperture is its center*
0 number of corners: always 8*
0 $1 to $16 corner X, Y*
0 $17 Rotation angle, in degrees counterclockwise*
0 create outline with 8 corners*
4,1,8,$1,$2,$3,$4,$5,$6,$7,$8,$9,$10,$11,$12,$13,$14,$15,$16,$1,$2,$17*%
G04 Aperture macros list end*
%TA.AperFunction,ComponentPad*%
%ADD10Outline5P,-0.800000X0.800000X0.480000X0.800000X0.800000X0.480000X0.800000X-0.800000X-0.800000X-0.800000X0.000000*%
%TD*%
%TA.AperFunction,ComponentPad*%
%ADD11C,1.600000*%
%TD*%
%TA.AperFunction,ComponentPad*%
%ADD12C,1.150000*%
%TD*%
%TA.AperFunction,ComponentPad*%
%ADD13RoundRect,0.250000X0.350000X0.625000X-0.350000X0.625000X-0.350000X-0.625000X0.350000X-0.625000X0*%
%TD*%
%TA.AperFunction,ComponentPad*%
%ADD14O,1.200000X1.750000*%
%TD*%
%TA.AperFunction,ComponentPad*%
%ADD15R,3.500000X3.500000*%
%TD*%
%TA.AperFunction,ComponentPad*%
%ADD16RoundRect,0.750000X1.000000X-0.750000X1.000000X0.750000X-1.000000X0.750000X-1.000000X-0.750000X0*%
%TD*%
%TA.AperFunction,ComponentPad*%
%ADD17RoundRect,0.875000X0.875000X-0.875000X0.875000X0.875000X-0.875000X0.875000X-0.875000X-0.875000X0*%
%TD*%
%TA.AperFunction,ComponentPad*%
%ADD18C,1.700000*%
%TD*%
%TA.AperFunction,ComponentPad*%
%ADD19R,1.700000X1.700000*%
%TD*%
%TA.AperFunction,ComponentPad*%
%ADD20RoundRect,0.250000X-1.050000X-1.050000X1.050000X-1.050000X1.050000X1.050000X-1.050000X1.050000X0*%
%TD*%
%TA.AperFunction,ComponentPad*%
%ADD21C,2.600000*%
%TD*%
%TA.AperFunction,ComponentPad*%
%ADD22RoundRect,0.250000X1.050000X1.050000X-1.050000X1.050000X-1.050000X-1.050000X1.050000X-1.050000X0*%
%TD*%
%TA.AperFunction,ComponentPad*%
%ADD23R,1.500000X2.300000*%
%TD*%
%TA.AperFunction,ComponentPad*%
%ADD24O,1.500000X2.300000*%
%TD*%
%TA.AperFunction,ComponentPad*%
%ADD25O,1.600000X1.600000*%
%TD*%
%TA.AperFunction,ComponentPad*%
%ADD26C,3.500000*%
%TD*%
%TA.AperFunction,ComponentPad*%
%ADD27R,2.000000X1.905000*%
%TD*%
%TA.AperFunction,ComponentPad*%
%ADD28O,2.000000X1.905000*%
%TD*%
%TA.AperFunction,ComponentPad*%
%ADD29R,2.200000X2.200000*%
%TD*%
%TA.AperFunction,ComponentPad*%
%ADD30O,2.200000X2.200000*%
%TD*%
%TA.AperFunction,ComponentPad*%
%ADD31C,2.500000*%
%TD*%
%TA.AperFunction,ComponentPad*%
%ADD32RoundRect,0.250000X1.000000X1.000000X-1.000000X1.000000X-1.000000X-1.000000X1.000000X-1.000000X0*%
%TD*%
%TA.AperFunction,ViaPad*%
%ADD33C,0.600000*%
%TD*%
%TA.AperFunction,ViaPad*%
%ADD34C,0.700000*%
%TD*%
%TA.AperFunction,Conductor*%
%ADD35C,0.200000*%
%TD*%
%TA.AperFunction,Conductor*%
%ADD36C,1.000000*%
%TD*%
%TA.AperFunction,Conductor*%
%ADD37C,3.000000*%
%TD*%
G04 APERTURE END LIST*
D10*
%TO.P,REF\u002A\u002A,1*%
%TO.N,N/C*%
X138500000Y-129000000D03*
D11*
%TO.P,REF\u002A\u002A,2*%
X140500000Y-129000000D03*
%TD*%
D12*
%TO.P,REF\u002A\u002A,1*%
%TO.N,12v+*%
X133500000Y-127500000D03*
%TO.P,REF\u002A\u002A,2*%
X133500000Y-132500000D03*
%TD*%
D13*
%TO.P,REF\u002A\u002A,1*%
%TO.N,SCL*%
X139000000Y-45500000D03*
D14*
%TO.P,REF\u002A\u002A,2*%
%TO.N,SDA*%
X137000000Y-45500000D03*
%TO.P,REF\u002A\u002A,3*%
%TO.N,3.3v*%
X135000000Y-45500000D03*
%TO.P,REF\u002A\u002A,4*%
%TO.N,gnd*%
X133000000Y-45500000D03*
%TD*%
D15*
%TO.P,REF\u002A\u002A,1*%
%TO.N,Big+*%
X77000000Y-137500000D03*
D16*
%TO.P,REF\u002A\u002A,2*%
%TO.N,BigGND*%
X77000000Y-143500000D03*
D17*
%TO.P,REF\u002A\u002A,3*%
%TO.N,N/C*%
X81700000Y-140500000D03*
%TD*%
D15*
%TO.P,REF\u002A\u002A,1*%
%TO.N,12v+*%
X135000000Y-137500000D03*
D16*
%TO.P,REF\u002A\u002A,2*%
%TO.N,gnd*%
X135000000Y-143500000D03*
D17*
%TO.P,REF\u002A\u002A,3*%
%TO.N,N/C*%
X139700000Y-140500000D03*
%TD*%
D18*
%TO.P,REF\u002A\u002A,2*%
%TO.N,N/C*%
X123000000Y-65040000D03*
%TO.P,REF\u002A\u002A,3*%
X123000000Y-67580000D03*
%TO.P,REF\u002A\u002A,4*%
X123000000Y-70120000D03*
%TO.P,REF\u002A\u002A,5*%
X123000000Y-72660000D03*
%TO.P,REF\u002A\u002A,6*%
X123000000Y-75200000D03*
%TO.P,REF\u002A\u002A,7*%
X123000000Y-77740000D03*
%TO.P,REF\u002A\u002A,8*%
X123000000Y-80280000D03*
%TO.P,REF\u002A\u002A,9*%
X123000000Y-82820000D03*
%TO.P,REF\u002A\u002A,10*%
X123000000Y-85360000D03*
%TO.P,REF\u002A\u002A,11*%
X123000000Y-87900000D03*
D19*
%TO.P,REF\u002A\u002A,CLK*%
X123000000Y-62500000D03*
D18*
%TO.P,REF\u002A\u002A,G19*%
X123000000Y-90440000D03*
%TO.P,REF\u002A\u002A,G21*%
%TO.N,SDA*%
X123000000Y-95520000D03*
%TO.P,REF\u002A\u002A,G22*%
%TO.N,SCL*%
X123000000Y-103140000D03*
%TO.P,REF\u002A\u002A,G23*%
%TO.N,N/C*%
X123000000Y-105680000D03*
%TO.P,REF\u002A\u002A,GND*%
%TO.N,gnd*%
X123000000Y-92980000D03*
X123000000Y-108220000D03*
%TO.P,REF\u002A\u002A,RXD*%
%TO.N,N/C*%
X123000000Y-98060000D03*
%TO.P,REF\u002A\u002A,TXD*%
X123000000Y-100600000D03*
%TD*%
D15*
%TO.P,REF\u002A\u002A,1*%
%TO.N,5v+*%
X171000000Y-137500000D03*
D16*
%TO.P,REF\u002A\u002A,2*%
%TO.N,humidiferGND*%
X171000000Y-143500000D03*
D17*
%TO.P,REF\u002A\u002A,3*%
%TO.N,N/C*%
X175700000Y-140500000D03*
%TD*%
D18*
%TO.P,REF\u002A\u002A,3V3*%
%TO.N,3.3v*%
X148500000Y-108220000D03*
%TO.P,REF\u002A\u002A,13*%
%TO.N,N/C*%
X148500000Y-92980000D03*
%TO.P,REF\u002A\u002A,14*%
X148500000Y-95520000D03*
%TO.P,REF\u002A\u002A,16*%
X148500000Y-100600000D03*
%TO.P,REF\u002A\u002A,17*%
X148500000Y-103140000D03*
%TO.P,REF\u002A\u002A,18*%
X148500000Y-105680000D03*
%TO.P,REF\u002A\u002A,CMD*%
X148500000Y-65040000D03*
%TO.P,REF\u002A\u002A,G12*%
X148500000Y-77740000D03*
%TO.P,REF\u002A\u002A,G13*%
%TO.N,humidiferPinOut*%
X148500000Y-72660000D03*
%TO.P,REF\u002A\u002A,G14*%
%TO.N,N/C*%
X148500000Y-80280000D03*
%TO.P,REF\u002A\u002A,G25*%
X148500000Y-87900000D03*
%TO.P,REF\u002A\u002A,G26*%
%TO.N,HeaterPin*%
X148500000Y-85360000D03*
%TO.P,REF\u002A\u002A,G27*%
%TO.N,N/C*%
X148500000Y-82820000D03*
%TO.P,REF\u002A\u002A,G33*%
%TO.N,pumpOutPin*%
X148500000Y-90440000D03*
%TO.P,REF\u002A\u002A,G34*%
%TO.N,wtrsnrIN*%
X148500000Y-98060000D03*
%TO.P,REF\u002A\u002A,GND*%
%TO.N,gnd*%
X148500000Y-75200000D03*
%TO.P,REF\u002A\u002A,SD2*%
%TO.N,N/C*%
X148500000Y-70120000D03*
%TO.P,REF\u002A\u002A,SD3*%
X148500000Y-67580000D03*
D19*
%TO.P,REF\u002A\u002A,V5*%
%TO.N,5v+*%
X148500000Y-62500000D03*
%TD*%
D20*
%TO.P,REF\u002A\u002A,1*%
%TO.N,5v+*%
X151500000Y-146500000D03*
D21*
%TO.P,REF\u002A\u002A,2*%
%TO.N,wtrsnrIN*%
X156580000Y-146500000D03*
%TD*%
D18*
%TO.P,REF\u002A\u002A,2*%
%TO.N,N/C*%
X87540000Y-57500000D03*
D19*
%TO.P,REF\u002A\u002A,GND*%
%TO.N,gnd*%
X85000000Y-57500000D03*
D18*
%TO.P,REF\u002A\u002A,IN1*%
%TO.N,N/C*%
X90080000Y-57500000D03*
%TD*%
D22*
%TO.P,REF\u002A\u002A,1*%
%TO.N,12v+*%
X120545000Y-44000000D03*
D21*
%TO.P,REF\u002A\u002A,2*%
%TO.N,gnd*%
X115465000Y-44000000D03*
%TD*%
D15*
%TO.P,REF\u002A\u002A,1*%
%TO.N,N/C*%
X60000000Y-137500000D03*
D16*
%TO.P,REF\u002A\u002A,2*%
X60000000Y-143500000D03*
D17*
%TO.P,REF\u002A\u002A,3*%
X64700000Y-140500000D03*
%TD*%
D23*
%TO.P,REF\u002A\u002A,1*%
%TO.N,12v+*%
X138500000Y-123500000D03*
D24*
%TO.P,REF\u002A\u002A,2*%
%TO.N,gnd*%
X141040000Y-123500000D03*
%TO.P,REF\u002A\u002A,3*%
%TO.N,5v+*%
X143580000Y-123500000D03*
%TD*%
D19*
%TO.P,REF\u002A\u002A,1*%
%TO.N,N/C*%
X119000000Y-62500000D03*
D18*
%TO.P,REF\u002A\u002A,2*%
X119000000Y-65040000D03*
%TO.P,REF\u002A\u002A,3*%
X119000000Y-67580000D03*
%TO.P,REF\u002A\u002A,4*%
X119000000Y-70120000D03*
%TO.P,REF\u002A\u002A,5*%
X119000000Y-72660000D03*
%TO.P,REF\u002A\u002A,6*%
X119000000Y-75200000D03*
%TO.P,REF\u002A\u002A,7*%
X119000000Y-77740000D03*
%TO.P,REF\u002A\u002A,8*%
X119000000Y-80280000D03*
%TO.P,REF\u002A\u002A,9*%
X119000000Y-82820000D03*
%TO.P,REF\u002A\u002A,10*%
X119000000Y-85360000D03*
%TO.P,REF\u002A\u002A,11*%
X119000000Y-87900000D03*
%TO.P,REF\u002A\u002A,12*%
X119000000Y-90440000D03*
%TO.P,REF\u002A\u002A,13*%
%TO.N,gnd*%
X119000000Y-92980000D03*
%TO.P,REF\u002A\u002A,14*%
%TO.N,N/C*%
X119000000Y-95520000D03*
%TO.P,REF\u002A\u002A,15*%
X119000000Y-98060000D03*
%TO.P,REF\u002A\u002A,16*%
X119000000Y-100600000D03*
%TO.P,REF\u002A\u002A,17*%
X119000000Y-103140000D03*
%TO.P,REF\u002A\u002A,18*%
X119000000Y-105680000D03*
%TO.P,REF\u002A\u002A,19*%
%TO.N,gnd*%
X119000000Y-108220000D03*
%TD*%
D11*
%TO.P,REF\u002A\u002A,1*%
%TO.N,gnd*%
X149000000Y-135000000D03*
D25*
%TO.P,REF\u002A\u002A,2*%
%TO.N,wtrsnrIN*%
X159160000Y-135000000D03*
%TD*%
D22*
%TO.P,REF\u002A\u002A,1*%
%TO.N,5v+*%
X155500000Y-44000000D03*
D21*
%TO.P,REF\u002A\u002A,2*%
%TO.N,gnd*%
X150420000Y-44000000D03*
%TD*%
D26*
%TO.P,REF\u002A\u002A,1*%
%TO.N,BigGND*%
X87000000Y-114000000D03*
%TD*%
D27*
%TO.P,REF\u002A\u002A,1*%
%TO.N,HeaterPin*%
X127000000Y-118500000D03*
D28*
%TO.P,REF\u002A\u002A,2*%
%TO.N,heaterTransistorOut*%
X127000000Y-121040000D03*
%TO.P,REF\u002A\u002A,3*%
%TO.N,gnd*%
X127000000Y-123580000D03*
%TD*%
D26*
%TO.P,,MTR*%
%TO.N,N/C*%
X74500000Y-114000000D03*
%TD*%
D19*
%TO.P,REF\u002A\u002A,1*%
%TO.N,5v+*%
X152500000Y-62500000D03*
D18*
%TO.P,REF\u002A\u002A,2*%
%TO.N,N/C*%
X152500000Y-65040000D03*
%TO.P,REF\u002A\u002A,3*%
X152500000Y-67580000D03*
%TO.P,REF\u002A\u002A,4*%
X152500000Y-70120000D03*
%TO.P,REF\u002A\u002A,5*%
%TO.N,humidiferPinOut*%
X152500000Y-72660000D03*
%TO.P,REF\u002A\u002A,6*%
%TO.N,gnd*%
X152500000Y-75200000D03*
%TO.P,REF\u002A\u002A,7*%
%TO.N,N/C*%
X152500000Y-77740000D03*
%TO.P,REF\u002A\u002A,8*%
X152500000Y-80280000D03*
%TO.P,REF\u002A\u002A,9*%
X152500000Y-82820000D03*
%TO.P,REF\u002A\u002A,11*%
X152500000Y-87900000D03*
%TO.P,REF\u002A\u002A,12*%
%TO.N,pumpOutPin*%
X152500000Y-90440000D03*
%TO.P,REF\u002A\u002A,13*%
%TO.N,N/C*%
X152500000Y-92980000D03*
%TO.P,REF\u002A\u002A,14*%
X152500000Y-95520000D03*
%TO.P,REF\u002A\u002A,15*%
%TO.N,wtrsnrIN*%
X152500000Y-98060000D03*
%TO.P,REF\u002A\u002A,16*%
%TO.N,N/C*%
X152500000Y-100600000D03*
%TO.P,REF\u002A\u002A,17*%
X152500000Y-103140000D03*
%TO.P,REF\u002A\u002A,18*%
X152500000Y-105680000D03*
%TO.P,REF\u002A\u002A,19*%
X152500000Y-108220000D03*
%TO.P,REF\u002A\u002A,G26*%
%TO.N,HeaterPin*%
X152500000Y-85360000D03*
%TD*%
D29*
%TO.P,REF\u002A\u002A,1*%
%TO.N,3.3v*%
X121000000Y-120000000D03*
D30*
%TO.P,REF\u002A\u002A,2*%
%TO.N,heaterTransistorOut*%
X121000000Y-127620000D03*
%TD*%
D26*
%TO.P,,MTR*%
%TO.N,N/C*%
X80000000Y-114000000D03*
%TD*%
%TO.P,REF\u002A\u002A,1*%
%TO.N,Big+*%
X92500000Y-114000000D03*
%TD*%
D15*
%TO.P,REF\u002A\u002A,1*%
%TO.N,heaterRelayOut+*%
X92500000Y-137500000D03*
D16*
%TO.P,REF\u002A\u002A,2*%
%TO.N,BigGND*%
X92500000Y-143500000D03*
D17*
%TO.P,REF\u002A\u002A,3*%
%TO.N,N/C*%
X97200000Y-140500000D03*
%TD*%
D22*
%TO.P,REF\u002A\u002A,1*%
%TO.N,12v+*%
X173545000Y-44000000D03*
D21*
%TO.P,REF\u002A\u002A,2*%
%TO.N,pumpGND*%
X168465000Y-44000000D03*
%TD*%
D31*
%TO.P,REF\u002A\u002A,11*%
%TO.N,Big+*%
X115200000Y-124000000D03*
%TO.P,REF\u002A\u002A,12*%
%TO.N,N/C*%
X101000000Y-130000000D03*
%TO.P,REF\u002A\u002A,14*%
%TO.N,heaterRelayOut+*%
X101000000Y-118000000D03*
D32*
%TO.P,REF\u002A\u002A,A1*%
%TO.N,heaterTransistorOut*%
X113200000Y-130000000D03*
D31*
%TO.P,REF\u002A\u002A,A2*%
%TO.N,3.3v*%
X113200000Y-118000000D03*
%TD*%
D33*
%TO.N,SCL*%
X139000000Y-87500000D03*
%TO.N,SDA*%
X137010000Y-85990000D03*
%TO.N,3.3v*%
X145500000Y-70500000D03*
X135000000Y-60000000D03*
%TO.N,*%
X112500000Y-57500000D03*
D34*
%TO.N,12v+*%
X173000000Y-61500000D03*
X130000000Y-61000000D03*
%TO.N,gnd*%
X131720000Y-108220000D03*
D33*
X172750000Y-124750000D03*
%TO.N,HeaterPin*%
X127000000Y-104500000D03*
%TO.N,pumpOutPin*%
X171500000Y-84500000D03*
%TO.N,humidiferPinOut*%
X158500000Y-86000000D03*
%TD*%
D35*
%TO.N,SCL*%
X125000000Y-101140000D02*
X123000000Y-103140000D01*
X125500000Y-101000000D02*
X125000000Y-101000000D01*
X125000000Y-101000000D02*
X125000000Y-101140000D01*
X139000000Y-87500000D02*
X125500000Y-101000000D01*
%TO.N,SDA*%
X123980000Y-96500000D02*
X123000000Y-95520000D01*
X126500000Y-96500000D02*
X123980000Y-96500000D01*
X137010000Y-85990000D02*
X126500000Y-96500000D01*
%TO.N,3.3v*%
X145500000Y-70500000D02*
X135000000Y-60000000D01*
D36*
%TO.N,gnd*%
X159500000Y-138000000D02*
X152000000Y-138000000D01*
X172750000Y-124750000D02*
X159500000Y-138000000D01*
X96500000Y-49000000D02*
X95500000Y-48000000D01*
X100000000Y-49000000D02*
X96500000Y-49000000D01*
X93500000Y-69500000D02*
X108000000Y-69500000D01*
X85000000Y-61000000D02*
X93500000Y-69500000D01*
X85000000Y-57500000D02*
X85000000Y-61000000D01*
X108000000Y-69500000D02*
X110000000Y-71500000D01*
X129750000Y-121000000D02*
X127170000Y-123580000D01*
X139500000Y-121000000D02*
X129750000Y-121000000D01*
X141000000Y-122500000D02*
X139500000Y-121000000D01*
X127170000Y-123580000D02*
X127000000Y-123580000D01*
X141000000Y-123460000D02*
X141000000Y-122500000D01*
X141040000Y-123500000D02*
X141000000Y-123460000D01*
D37*
%TO.N,heaterRelayOut+*%
X92500000Y-126500000D02*
X101000000Y-118000000D01*
X92500000Y-137500000D02*
X92500000Y-126500000D01*
D36*
%TO.N,gnd*%
X141000000Y-134000000D02*
X141000000Y-128500000D01*
X143500000Y-142500000D02*
X143500000Y-136500000D01*
X143500000Y-136500000D02*
X141000000Y-134000000D01*
X142500000Y-143500000D02*
X143500000Y-142500000D01*
X135000000Y-143500000D02*
X142500000Y-143500000D01*
D37*
%TO.N,Big+*%
X77000000Y-137500000D02*
X78000000Y-137500000D01*
D35*
%TO.N,3.3v*%
X113500000Y-118000000D02*
X113200000Y-118000000D01*
X119000000Y-112500000D02*
X113500000Y-118000000D01*
X144000000Y-112500000D02*
X119000000Y-112500000D01*
X148280000Y-108220000D02*
X144000000Y-112500000D01*
X148500000Y-108220000D02*
X148280000Y-108220000D01*
X119000000Y-118000000D02*
X121000000Y-120000000D01*
X113200000Y-118000000D02*
X119000000Y-118000000D01*
D36*
%TO.N,gnd*%
X116480000Y-92980000D02*
X119000000Y-92980000D01*
X110000000Y-86500000D02*
X116480000Y-92980000D01*
X110000000Y-71500000D02*
X110000000Y-86500000D01*
X141000000Y-125040000D02*
X141000000Y-128500000D01*
X141040000Y-125000000D02*
X141000000Y-125040000D01*
X141040000Y-123500000D02*
X141040000Y-125000000D01*
%TO.N,12v+*%
X157000000Y-57500000D02*
X161000000Y-61500000D01*
X132500000Y-57500000D02*
X157000000Y-57500000D01*
X161000000Y-61500000D02*
X173000000Y-61500000D01*
X130000000Y-60000000D02*
X132500000Y-57500000D01*
X130000000Y-61000000D02*
X130000000Y-60000000D01*
%TO.N,gnd*%
X147500000Y-135000000D02*
X149000000Y-135000000D01*
X141000000Y-128500000D02*
X147500000Y-135000000D01*
X149000000Y-136000000D02*
X151000000Y-138000000D01*
X149000000Y-135000000D02*
X149000000Y-136000000D01*
X152000000Y-138000000D02*
X152500000Y-138000000D01*
X152000000Y-138000000D02*
X151000000Y-138000000D01*
D35*
%TO.N,wtrsnrIN*%
X159160000Y-130500000D02*
X159160000Y-135000000D01*
%TO.N,pumpOutPin*%
X157560000Y-90440000D02*
X152500000Y-90440000D01*
X163500000Y-84500000D02*
X157560000Y-90440000D01*
X171500000Y-84500000D02*
X163500000Y-84500000D01*
%TO.N,humidiferPinOut*%
X153660000Y-72660000D02*
X152500000Y-72660000D01*
X158500000Y-77500000D02*
X153660000Y-72660000D01*
X158500000Y-86000000D02*
X158500000Y-77500000D01*
%TO.N,HeaterPin*%
X146140000Y-85360000D02*
X148500000Y-85360000D01*
X127000000Y-104500000D02*
X146140000Y-85360000D01*
%TO.N,*%
X143240000Y-77740000D02*
X148500000Y-77740000D01*
X112500000Y-57500000D02*
X123000000Y-57500000D01*
X123000000Y-57500000D02*
X143240000Y-77740000D01*
X119240000Y-77500000D02*
X121500000Y-77500000D01*
X152500000Y-100600000D02*
X148500000Y-100600000D01*
X148500000Y-67580000D02*
X152500000Y-67580000D01*
X119300000Y-75500000D02*
X123000000Y-75500000D01*
X148500000Y-82820000D02*
X152500000Y-82820000D01*
X123000000Y-75500000D02*
X123000000Y-75200000D01*
X119000000Y-100600000D02*
X123000000Y-100600000D01*
X119000000Y-75200000D02*
X119300000Y-75500000D01*
X119000000Y-90440000D02*
X123000000Y-90440000D01*
X119000000Y-72660000D02*
X123000000Y-72660000D01*
%TO.N,SDA*%
X119000000Y-95520000D02*
X123000000Y-95520000D01*
%TO.N,*%
X119000000Y-62500000D02*
X123000000Y-62500000D01*
X119000000Y-67580000D02*
X123000000Y-67580000D01*
X148500000Y-92980000D02*
X152500000Y-92980000D01*
X119000000Y-72660000D02*
X119340000Y-73000000D01*
X148500000Y-95520000D02*
X152500000Y-95520000D01*
X119000000Y-80280000D02*
X119220000Y-80500000D01*
X119820000Y-85320000D02*
X119820000Y-85180000D01*
X119000000Y-105680000D02*
X123000000Y-105680000D01*
X119000000Y-87900000D02*
X123000000Y-87900000D01*
X119000000Y-82820000D02*
X123000000Y-82820000D01*
X148500000Y-70120000D02*
X152500000Y-70120000D01*
X121500000Y-77500000D02*
X121740000Y-77740000D01*
%TO.N,3.3v*%
X152500000Y-108220000D02*
X148500000Y-108220000D01*
%TO.N,*%
X121740000Y-77740000D02*
X123000000Y-77740000D01*
X152500000Y-105680000D02*
X148500000Y-105680000D01*
X148500000Y-77740000D02*
X152500000Y-77740000D01*
X148500000Y-80280000D02*
X152500000Y-80280000D01*
X119000000Y-98060000D02*
X123000000Y-98060000D01*
X119000000Y-85360000D02*
X123000000Y-85360000D01*
X148500000Y-65040000D02*
X152500000Y-65040000D01*
X119000000Y-65040000D02*
X123000000Y-65040000D01*
X119220000Y-80500000D02*
X121720000Y-80500000D01*
%TO.N,SCL*%
X119000000Y-103140000D02*
X123000000Y-103140000D01*
%TO.N,*%
X119000000Y-70120000D02*
X123000000Y-70120000D01*
X148500000Y-87900000D02*
X152500000Y-87900000D01*
X152500000Y-103140000D02*
X148500000Y-103140000D01*
X119000000Y-77740000D02*
X119240000Y-77500000D01*
D36*
%TO.N,12v+*%
X120500000Y-50000000D02*
X120500000Y-44090000D01*
X120500000Y-44090000D02*
X120545000Y-44045000D01*
D35*
X120545000Y-44045000D02*
X120545000Y-44000000D01*
D36*
X130000000Y-61000000D02*
X130000000Y-59500000D01*
X130000000Y-59500000D02*
X120500000Y-50000000D01*
%TO.N,gnd*%
X148500000Y-75200000D02*
X152500000Y-75200000D01*
D35*
X150500000Y-44000000D02*
X150420000Y-44000000D01*
D36*
X131720000Y-108220000D02*
X123000000Y-108220000D01*
X123000000Y-108220000D02*
X119000000Y-108220000D01*
X119000000Y-92980000D02*
X123000000Y-92980000D01*
%TO.N,5v+*%
X171000000Y-137500000D02*
X170500000Y-137500000D01*
X148500000Y-62500000D02*
X152500000Y-62500000D01*
D35*
%TO.N,wtrsnrIN*%
X148500000Y-98060000D02*
X152500000Y-98060000D01*
X159160000Y-104720000D02*
X152500000Y-98060000D01*
D37*
%TO.N,BigGND*%
X72500000Y-129500000D02*
X72500000Y-140000000D01*
X87000000Y-115000000D02*
X72500000Y-129500000D01*
X72500000Y-140000000D02*
X76000000Y-143500000D01*
X76000000Y-143500000D02*
X77000000Y-143500000D01*
X77000000Y-144500000D02*
X91500000Y-144500000D01*
X76000000Y-143500000D02*
X77000000Y-144500000D01*
X87000000Y-114000000D02*
X87000000Y-115000000D01*
X91500000Y-144500000D02*
X92500000Y-143500000D01*
D35*
%TO.N,HeaterPin*%
X148500000Y-85360000D02*
X152500000Y-85360000D01*
%TO.N,pumpOutPin*%
X152500000Y-90440000D02*
X148500000Y-90440000D01*
%TO.N,humidiferPinOut*%
X148500000Y-72660000D02*
X152500000Y-72660000D01*
%TO.N,wtrsnrIN*%
X159160000Y-130500000D02*
X159160000Y-104720000D01*
D36*
%TO.N,gnd*%
X107000000Y-49000000D02*
X110000000Y-52000000D01*
X110000000Y-52000000D02*
X110000000Y-71500000D01*
D35*
%TO.N,SDA*%
X118980000Y-95500000D02*
X119000000Y-95520000D01*
D36*
%TO.N,gnd*%
X107500000Y-49000000D02*
X112500000Y-44000000D01*
X112500000Y-44000000D02*
X115465000Y-44000000D01*
X100000000Y-49000000D02*
X107000000Y-49000000D01*
X107000000Y-49000000D02*
X107500000Y-49000000D01*
%TD*%
M02*
